<svg xmlns="http://www.w3.org/2000/svg" viewBox="0 0 292.34 600.82"><defs><style>.cls-1,.cls-12,.cls-2,.cls-4,.cls-5,.cls-8{isolation:isolate;}.cls-2,.cls-5{font-size:21px;}.cls-2,.cls-4{fill:#ff781d;}.cls-2,.cls-4,.cls-5,.cls-8{font-family:Unibody8Pro-Regular, "Unibody 8 Pro";}.cls-13,.cls-14,.cls-3{fill:none;}.cls-13,.cls-3{stroke:#ff781d;}.cls-3{stroke-miterlimit:10;}.cls-12,.cls-4,.cls-8{font-size:11px;}.cls-5,.cls-7,.cls-8{fill:#3a8def;}.cls-6{letter-spacing:-0.13em;}.cls-14,.cls-7{stroke:#3a8def;}.cls-9{fill:#18191c;}.cls-10{fill:#353535;}.cls-11{fill:#707070;}.cls-12{fill:#5b5b5b;font-family:FuturaPT-Bold, Futura PT;font-weight:700;}.cls-13,.cls-14{stroke-linecap:round;stroke-linejoin:round;stroke-width:2px;stroke-dasharray:12;}</style></defs><g id="Layer_2" data-name="Layer 2"><g id="Layer_1-2" data-name="Layer 1"><g id="Group_39" data-name="Group 39"><g id="Info"><g id="Power"><g id="Power_SPI_Flash" data-name="Power SPI Flash" class="cls-1"><text class="cls-2" transform="translate(4.99 532.88)">Power &amp; SPI Flash</text></g><line id="Line_4" data-name="Line 4" class="cls-3" x1="4.99" y1="545" x2="271.34" y2="545"/><g id="_-_Unregulated_3.3v_input_-_SPI_Flash_pins_with_autoflash_mode_-_2nd_SPI_and_UART" data-name=" - Unregulated 3.3v input - SPI Flash pins with autoflash mode - 2nd SPI and UART" class="cls-1"><text class="cls-4" transform="translate(4.99 566.75)">- Unregulated 3.3v input</text><text class="cls-4" transform="translate(4.99 581.75)">- SPI Flash pins with autoflash mode</text><text class="cls-4" transform="translate(4.99 596.75)">- 2nd SPI and UART</text></g></g><g id="Data"><g id="Data_Lines_-_Busses" data-name="Data Lines - Busses" class="cls-1"><text class="cls-5" transform="translate(0 20.89)">Da<tspan class="cls-6" x="36.75" y="0">t</tspan><tspan x="49.88" y="0">a Lines - Busses</tspan></text></g><path id="Path_1" data-name="Path 1" class="cls-7" d="M0,33.23H292.34"/><g id="_-_All_GPIO_pins_-_Both_SPI_UART_interfaces_-_Both_I2C_and_I2S_interfaces_-_Both_DAC_pins" data-name=" - All GPIO pins - Both SPI UART interfaces - Both I2C and I2S interfaces - Both DAC pins" class="cls-1"><text class="cls-8" transform="translate(0 58.48)">- All GPIO pins</text><text class="cls-8" transform="translate(0 73.48)">- Both SPI &amp; UART interfaces</text><text class="cls-8" transform="translate(0 88.48)">- Both I2C and I2S interfaces </text><text class="cls-8" transform="translate(0 103.48)">- Both DAC pins</text></g></g></g><g id="ESP_Graph" data-name="ESP Graph"><g id="ESP"><path id="Rectangle_72" data-name="Rectangle 72" class="cls-9" d="M62.28,163.21H225.59a15.6,15.6,0,0,1,15.6,15.6v263.9a15.6,15.6,0,0,1-15.6,15.6H62.28a15.61,15.61,0,0,1-15.61-15.61V178.81A15.6,15.6,0,0,1,62.28,163.21Z"/><rect id="Rectangle_73" data-name="Rectangle 73" class="cls-10" x="108.94" y="275.76" width="69.99" height="69.99" transform="translate(-177.58 192.8) rotate(-45)"/><g id="Group_2" data-name="Group 2"><rect id="Rectangle_74" data-name="Rectangle 74" class="cls-10" x="74.75" y="178.07" width="138.36" height="17.3" rx="3.22"/><g id="Group_1" data-name="Group 1"><rect id="Rectangle_75" data-name="Rectangle 75" class="cls-11" x="79.03" y="180.58" width="3.52" height="3.52"/><rect id="Rectangle_76" data-name="Rectangle 76" class="cls-11" x="79.03" y="189.12" width="3.52" height="3.52"/><rect id="Rectangle_77" data-name="Rectangle 77" class="cls-11" x="87.21" y="180.58" width="3.52" height="3.52"/><rect id="Rectangle_78" data-name="Rectangle 78" class="cls-11" x="87.21" y="189.12" width="3.52" height="3.52"/><rect id="Rectangle_79" data-name="Rectangle 79" class="cls-11" x="96.05" y="180.58" width="3.52" height="3.52"/><rect id="Rectangle_80" data-name="Rectangle 80" class="cls-11" x="96.05" y="189.12" width="3.52" height="3.52"/><rect id="Rectangle_81" data-name="Rectangle 81" class="cls-11" x="104.24" y="180.58" width="3.52" height="3.52"/><rect id="Rectangle_82" data-name="Rectangle 82" class="cls-11" x="104.24" y="189.12" width="3.52" height="3.52"/><rect id="Rectangle_83" data-name="Rectangle 83" class="cls-11" x="112.96" y="180.58" width="3.52" height="3.52"/><rect id="Rectangle_84" data-name="Rectangle 84" class="cls-11" x="112.96" y="189.12" width="3.52" height="3.52"/><rect id="Rectangle_85" data-name="Rectangle 85" class="cls-11" x="121.14" y="180.58" width="3.52" height="3.52"/><rect id="Rectangle_86" data-name="Rectangle 86" class="cls-11" x="121.14" y="189.12" width="3.52" height="3.52"/><rect id="Rectangle_87" data-name="Rectangle 87" class="cls-11" x="129.98" y="180.58" width="3.52" height="3.52"/><rect id="Rectangle_88" data-name="Rectangle 88" class="cls-11" x="129.98" y="189.12" width="3.52" height="3.52"/><rect id="Rectangle_89" data-name="Rectangle 89" class="cls-11" x="138.16" y="180.58" width="3.52" height="3.52"/><rect id="Rectangle_90" data-name="Rectangle 90" class="cls-11" x="138.16" y="189.12" width="3.52" height="3.52"/><rect id="Rectangle_91" data-name="Rectangle 91" class="cls-11" x="146.17" y="180.58" width="3.52" height="3.52"/><rect id="Rectangle_92" data-name="Rectangle 92" class="cls-11" x="146.17" y="189.12" width="3.52" height="3.52"/><rect id="Rectangle_93" data-name="Rectangle 93" class="cls-11" x="154.35" y="180.58" width="3.52" height="3.52"/><rect id="Rectangle_94" data-name="Rectangle 94" class="cls-11" x="154.35" y="189.12" width="3.52" height="3.52"/><rect id="Rectangle_95" data-name="Rectangle 95" class="cls-11" x="163.19" y="180.58" width="3.52" height="3.52"/><rect id="Rectangle_96" data-name="Rectangle 96" class="cls-11" x="163.19" y="189.12" width="3.52" height="3.52"/><rect id="Rectangle_97" data-name="Rectangle 97" class="cls-11" x="171.37" y="180.58" width="3.52" height="3.52"/><rect id="Rectangle_98" data-name="Rectangle 98" class="cls-11" x="171.37" y="189.12" width="3.52" height="3.52"/><rect id="Rectangle_99" data-name="Rectangle 99" class="cls-11" x="179.74" y="180.58" width="3.52" height="3.52"/><rect id="Rectangle_100" data-name="Rectangle 100" class="cls-11" x="179.74" y="189.12" width="3.52" height="3.52"/><rect id="Rectangle_101" data-name="Rectangle 101" class="cls-11" x="187.92" y="180.58" width="3.52" height="3.52"/><rect id="Rectangle_102" data-name="Rectangle 102" class="cls-11" x="187.92" y="189.12" width="3.52" height="3.52"/><rect id="Rectangle_103" data-name="Rectangle 103" class="cls-11" x="196.76" y="180.58" width="3.52" height="3.52"/><rect id="Rectangle_104" data-name="Rectangle 104" class="cls-11" x="196.76" y="189.12" width="3.52" height="3.52"/><rect id="Rectangle_105" data-name="Rectangle 105" class="cls-11" x="204.94" y="180.58" width="3.52" height="3.52"/><rect id="Rectangle_106" data-name="Rectangle 106" class="cls-11" x="204.94" y="189.12" width="3.52" height="3.52"/></g></g><g id="Group_4" data-name="Group 4"><rect id="Rectangle_107" data-name="Rectangle 107" class="cls-10" x="74.75" y="419.56" width="138.36" height="17.3" rx="3.22"/><g id="Group_3" data-name="Group 3"><rect id="Rectangle_108" data-name="Rectangle 108" class="cls-11" x="79.03" y="422.07" width="3.52" height="3.52"/><rect id="Rectangle_109" data-name="Rectangle 109" class="cls-11" x="79.03" y="430.61" width="3.52" height="3.52"/><rect id="Rectangle_110" data-name="Rectangle 110" class="cls-11" x="87.21" y="422.07" width="3.52" height="3.52"/><rect id="Rectangle_111" data-name="Rectangle 111" class="cls-11" x="87.21" y="430.61" width="3.52" height="3.52"/><rect id="Rectangle_112" data-name="Rectangle 112" class="cls-11" x="96.05" y="422.07" width="3.52" height="3.52"/><rect id="Rectangle_113" data-name="Rectangle 113" class="cls-11" x="96.05" y="430.61" width="3.52" height="3.52"/><rect id="Rectangle_114" data-name="Rectangle 114" class="cls-11" x="104.24" y="422.07" width="3.52" height="3.52"/><rect id="Rectangle_115" data-name="Rectangle 115" class="cls-11" x="104.24" y="430.61" width="3.52" height="3.52"/><rect id="Rectangle_116" data-name="Rectangle 116" class="cls-11" x="112.96" y="422.07" width="3.52" height="3.52"/><rect id="Rectangle_117" data-name="Rectangle 117" class="cls-11" x="112.96" y="430.61" width="3.52" height="3.52"/><rect id="Rectangle_118" data-name="Rectangle 118" class="cls-11" x="121.14" y="422.07" width="3.52" height="3.52"/><rect id="Rectangle_119" data-name="Rectangle 119" class="cls-11" x="121.14" y="430.61" width="3.52" height="3.52"/><rect id="Rectangle_120" data-name="Rectangle 120" class="cls-11" x="129.98" y="422.07" width="3.52" height="3.52"/><rect id="Rectangle_121" data-name="Rectangle 121" class="cls-11" x="129.98" y="430.61" width="3.52" height="3.52"/><rect id="Rectangle_122" data-name="Rectangle 122" class="cls-11" x="138.16" y="422.07" width="3.52" height="3.52"/><rect id="Rectangle_123" data-name="Rectangle 123" class="cls-11" x="138.16" y="430.61" width="3.52" height="3.52"/><rect id="Rectangle_124" data-name="Rectangle 124" class="cls-11" x="146.17" y="422.07" width="3.52" height="3.52"/><rect id="Rectangle_125" data-name="Rectangle 125" class="cls-11" x="146.17" y="430.61" width="3.52" height="3.52"/><rect id="Rectangle_126" data-name="Rectangle 126" class="cls-11" x="154.35" y="422.07" width="3.52" height="3.52"/><rect id="Rectangle_127" data-name="Rectangle 127" class="cls-11" x="154.35" y="430.61" width="3.52" height="3.52"/><rect id="Rectangle_128" data-name="Rectangle 128" class="cls-11" x="163.19" y="422.07" width="3.52" height="3.52"/><rect id="Rectangle_129" data-name="Rectangle 129" class="cls-11" x="163.19" y="430.61" width="3.52" height="3.52"/><rect id="Rectangle_130" data-name="Rectangle 130" class="cls-11" x="171.37" y="422.07" width="3.52" height="3.52"/><rect id="Rectangle_131" data-name="Rectangle 131" class="cls-11" x="171.37" y="430.61" width="3.52" height="3.52"/><rect id="Rectangle_132" data-name="Rectangle 132" class="cls-11" x="179.74" y="422.07" width="3.52" height="3.52"/><rect id="Rectangle_133" data-name="Rectangle 133" class="cls-11" x="179.74" y="430.61" width="3.52" height="3.52"/><rect id="Rectangle_134" data-name="Rectangle 134" class="cls-11" x="187.92" y="422.07" width="3.52" height="3.52"/><rect id="Rectangle_135" data-name="Rectangle 135" class="cls-11" x="187.92" y="430.61" width="3.52" height="3.52"/><rect id="Rectangle_136" data-name="Rectangle 136" class="cls-11" x="196.76" y="422.07" width="3.52" height="3.52"/><rect id="Rectangle_137" data-name="Rectangle 137" class="cls-11" x="196.76" y="430.61" width="3.52" height="3.52"/><rect id="Rectangle_138" data-name="Rectangle 138" class="cls-11" x="204.94" y="422.07" width="3.52" height="3.52"/><rect id="Rectangle_139" data-name="Rectangle 139" class="cls-11" x="204.94" y="430.61" width="3.52" height="3.52"/></g></g><g id="ESP32" class="cls-1"><text class="cls-12" transform="translate(104.65 314.9) rotate(-45)">ESP32</text></g></g><rect id="Rectangle_156" data-name="Rectangle 156" class="cls-13" x="70.19" y="415.57" width="147.03" height="25.49" rx="6.12"/><rect id="Rectangle_141" data-name="Rectangle 141" class="cls-14" x="70.19" y="173.78" width="147.03" height="25.49" rx="6.12"/></g></g></g></g></svg>