<svg xmlns="http://www.w3.org/2000/svg" viewBox="0 0 614.41 338.6"><defs><style>.cls-1{fill:#18191c;}.cls-2{fill:#353535;}.cls-3{fill:#707070;}.cls-4{isolation:isolate;}.cls-5{fill:#5b5b5b;}.cls-6{fill:#d8d8d8;}.cls-7{fill:#e8e8e8;}.cls-8{fill:#fff;}.cls-9{fill:#ff781d;}.cls-10{fill:#3a8def;}</style></defs><g id="Layer_2" data-name="Layer 2"><g id="Layer_1-2" data-name="Layer 1"><g id="Second_Page" data-name="Second Page"><g id="Content"><g id="ESP"><g id="Rectangle_72" data-name="Rectangle 72"><path class="cls-1" d="M15.6,40.06H181.18a15.6,15.6,0,0,1,15.6,15.6V323a15.61,15.61,0,0,1-15.61,15.61H15.61A15.61,15.61,0,0,1,0,323V55.67a15.6,15.6,0,0,1,15.6-15.6Z"/></g><g id="Rectangle_73" data-name="Rectangle 73"><rect class="cls-2" x="62.99" y="153.93" width="70.81" height="70.81" transform="translate(-105.06 125.03) rotate(-45)"/></g><g id="Group_2" data-name="Group 2"><g id="Rectangle_74" data-name="Rectangle 74"><rect class="cls-2" x="28.4" y="55.1" width="139.97" height="17.5" rx="3.22"/></g><g id="Group_1" data-name="Group 1"><g id="Rectangle_75" data-name="Rectangle 75"><rect class="cls-3" x="32.73" y="57.64" width="3.57" height="3.57"/></g><g id="Rectangle_76" data-name="Rectangle 76"><rect class="cls-3" x="32.73" y="66.28" width="3.57" height="3.57"/></g><g id="Rectangle_77" data-name="Rectangle 77"><rect class="cls-3" x="41.01" y="57.64" width="3.57" height="3.57"/></g><g id="Rectangle_78" data-name="Rectangle 78"><rect class="cls-3" x="41.01" y="66.28" width="3.57" height="3.57"/></g><g id="Rectangle_79" data-name="Rectangle 79"><rect class="cls-3" x="49.95" y="57.64" width="3.57" height="3.57"/></g><g id="Rectangle_80" data-name="Rectangle 80"><rect class="cls-3" x="49.95" y="66.28" width="3.57" height="3.57"/></g><g id="Rectangle_81" data-name="Rectangle 81"><rect class="cls-3" x="58.23" y="57.64" width="3.57" height="3.57"/></g><g id="Rectangle_82" data-name="Rectangle 82"><rect class="cls-3" x="58.23" y="66.28" width="3.57" height="3.57"/></g><g id="Rectangle_83" data-name="Rectangle 83"><rect class="cls-3" x="67.05" y="57.64" width="3.57" height="3.57"/></g><g id="Rectangle_84" data-name="Rectangle 84"><rect class="cls-3" x="67.05" y="66.28" width="3.57" height="3.57"/></g><g id="Rectangle_85" data-name="Rectangle 85"><rect class="cls-3" x="75.33" y="57.64" width="3.57" height="3.57"/></g><g id="Rectangle_86" data-name="Rectangle 86"><rect class="cls-3" x="75.33" y="66.28" width="3.57" height="3.57"/></g><g id="Rectangle_87" data-name="Rectangle 87"><rect class="cls-3" x="84.27" y="57.64" width="3.57" height="3.57"/></g><g id="Rectangle_88" data-name="Rectangle 88"><rect class="cls-3" x="84.27" y="66.28" width="3.57" height="3.57"/></g><g id="Rectangle_89" data-name="Rectangle 89"><rect class="cls-3" x="92.55" y="57.64" width="3.57" height="3.57"/></g><g id="Rectangle_90" data-name="Rectangle 90"><rect class="cls-3" x="92.55" y="66.28" width="3.57" height="3.57"/></g><g id="Rectangle_91" data-name="Rectangle 91"><rect class="cls-3" x="100.65" y="57.64" width="3.57" height="3.57"/></g><g id="Rectangle_92" data-name="Rectangle 92"><rect class="cls-3" x="100.65" y="66.28" width="3.57" height="3.57"/></g><g id="Rectangle_93" data-name="Rectangle 93"><rect class="cls-3" x="108.92" y="57.64" width="3.57" height="3.57"/></g><g id="Rectangle_94" data-name="Rectangle 94"><rect class="cls-3" x="108.92" y="66.28" width="3.57" height="3.57"/></g><g id="Rectangle_95" data-name="Rectangle 95"><rect class="cls-3" x="117.87" y="57.64" width="3.57" height="3.57"/></g><g id="Rectangle_96" data-name="Rectangle 96"><rect class="cls-3" x="117.87" y="66.28" width="3.57" height="3.57"/></g><g id="Rectangle_97" data-name="Rectangle 97"><rect class="cls-3" x="126.15" y="57.64" width="3.57" height="3.57"/></g><g id="Rectangle_98" data-name="Rectangle 98"><rect class="cls-3" x="126.15" y="66.28" width="3.57" height="3.57"/></g><g id="Rectangle_99" data-name="Rectangle 99"><rect class="cls-3" x="134.61" y="57.64" width="3.57" height="3.57"/></g><g id="Rectangle_100" data-name="Rectangle 100"><rect class="cls-3" x="134.61" y="66.28" width="3.57" height="3.57"/></g><g id="Rectangle_101" data-name="Rectangle 101"><rect class="cls-3" x="142.88" y="57.64" width="3.57" height="3.57"/></g><g id="Rectangle_102" data-name="Rectangle 102"><rect class="cls-3" x="142.88" y="66.28" width="3.57" height="3.57"/></g><g id="Rectangle_103" data-name="Rectangle 103"><rect class="cls-3" x="151.83" y="57.64" width="3.57" height="3.57"/></g><g id="Rectangle_104" data-name="Rectangle 104"><rect class="cls-3" x="151.83" y="66.28" width="3.57" height="3.57"/></g><g id="Rectangle_105" data-name="Rectangle 105"><rect class="cls-3" x="160.11" y="57.64" width="3.57" height="3.57"/></g><g id="Rectangle_106" data-name="Rectangle 106"><rect class="cls-3" x="160.11" y="66.28" width="3.57" height="3.57"/></g></g></g><g id="Group_4" data-name="Group 4"><g id="Rectangle_107" data-name="Rectangle 107"><rect class="cls-2" x="28.4" y="299.4" width="139.97" height="17.5" rx="3.22"/></g><g id="Group_3" data-name="Group 3"><g id="Rectangle_108" data-name="Rectangle 108"><rect class="cls-3" x="32.73" y="301.94" width="3.57" height="3.57"/></g><g id="Rectangle_109" data-name="Rectangle 109"><rect class="cls-3" x="32.73" y="310.58" width="3.57" height="3.57"/></g><g id="Rectangle_110" data-name="Rectangle 110"><rect class="cls-3" x="41.01" y="301.94" width="3.57" height="3.57"/></g><g id="Rectangle_111" data-name="Rectangle 111"><rect class="cls-3" x="41.01" y="310.58" width="3.57" height="3.57"/></g><g id="Rectangle_112" data-name="Rectangle 112"><rect class="cls-3" x="49.95" y="301.94" width="3.57" height="3.57"/></g><g id="Rectangle_113" data-name="Rectangle 113"><rect class="cls-3" x="49.95" y="310.58" width="3.57" height="3.57"/></g><g id="Rectangle_114" data-name="Rectangle 114"><rect class="cls-3" x="58.23" y="301.94" width="3.57" height="3.57"/></g><g id="Rectangle_115" data-name="Rectangle 115"><rect class="cls-3" x="58.23" y="310.58" width="3.57" height="3.57"/></g><g id="Rectangle_116" data-name="Rectangle 116"><rect class="cls-3" x="67.05" y="301.94" width="3.57" height="3.57"/></g><g id="Rectangle_117" data-name="Rectangle 117"><rect class="cls-3" x="67.05" y="310.58" width="3.57" height="3.57"/></g><g id="Rectangle_118" data-name="Rectangle 118"><rect class="cls-3" x="75.33" y="301.94" width="3.57" height="3.57"/></g><g id="Rectangle_119" data-name="Rectangle 119"><rect class="cls-3" x="75.33" y="310.58" width="3.57" height="3.57"/></g><g id="Rectangle_120" data-name="Rectangle 120"><rect class="cls-3" x="84.27" y="301.94" width="3.57" height="3.57"/></g><g id="Rectangle_121" data-name="Rectangle 121"><rect class="cls-3" x="84.27" y="310.58" width="3.57" height="3.57"/></g><g id="Rectangle_122" data-name="Rectangle 122"><rect class="cls-3" x="92.55" y="301.94" width="3.57" height="3.57"/></g><g id="Rectangle_123" data-name="Rectangle 123"><rect class="cls-3" x="92.55" y="310.58" width="3.57" height="3.57"/></g><g id="Rectangle_124" data-name="Rectangle 124"><rect class="cls-3" x="100.65" y="301.94" width="3.57" height="3.57"/></g><g id="Rectangle_125" data-name="Rectangle 125"><rect class="cls-3" x="100.65" y="310.58" width="3.57" height="3.57"/></g><g id="Rectangle_126" data-name="Rectangle 126"><rect class="cls-3" x="108.92" y="301.94" width="3.57" height="3.57"/></g><g id="Rectangle_127" data-name="Rectangle 127"><rect class="cls-3" x="108.92" y="310.58" width="3.57" height="3.57"/></g><g id="Rectangle_128" data-name="Rectangle 128"><rect class="cls-3" x="117.87" y="301.94" width="3.57" height="3.57"/></g><g id="Rectangle_129" data-name="Rectangle 129"><rect class="cls-3" x="117.87" y="310.58" width="3.57" height="3.57"/></g><g id="Rectangle_130" data-name="Rectangle 130"><rect class="cls-3" x="126.15" y="301.94" width="3.57" height="3.57"/></g><g id="Rectangle_131" data-name="Rectangle 131"><rect class="cls-3" x="126.15" y="310.58" width="3.57" height="3.57"/></g><g id="Rectangle_132" data-name="Rectangle 132"><rect class="cls-3" x="134.61" y="301.94" width="3.57" height="3.57"/></g><g id="Rectangle_133" data-name="Rectangle 133"><rect class="cls-3" x="134.61" y="310.58" width="3.57" height="3.57"/></g><g id="Rectangle_134" data-name="Rectangle 134"><rect class="cls-3" x="142.88" y="301.94" width="3.57" height="3.57"/></g><g id="Rectangle_135" data-name="Rectangle 135"><rect class="cls-3" x="142.88" y="310.58" width="3.57" height="3.57"/></g><g id="Rectangle_136" data-name="Rectangle 136"><rect class="cls-3" x="151.83" y="301.94" width="3.57" height="3.57"/></g><g id="Rectangle_137" data-name="Rectangle 137"><rect class="cls-3" x="151.83" y="310.58" width="3.57" height="3.57"/></g><g id="Rectangle_138" data-name="Rectangle 138"><rect class="cls-3" x="160.11" y="301.94" width="3.57" height="3.57"/></g><g id="Rectangle_139" data-name="Rectangle 139"><rect class="cls-3" x="160.11" y="310.58" width="3.57" height="3.57"/></g></g></g><g id="ESP32" class="cls-4"><g class="cls-4"><path class="cls-5" d="M58.66,185.92l-1.75,1.75.94.94L59.51,187l1.24,1.25-1.65,1.65,1,1,1.74-1.75,1.25,1.25-3.21,3.21-5.66-5.65,3.21-3.22Z"/><path class="cls-5" d="M62.68,187.32a2.78,2.78,0,0,0,1.88-.72,1.06,1.06,0,0,0,.37-.76.72.72,0,0,0-.21-.5.62.62,0,0,0-.5-.18,3.07,3.07,0,0,0-1,.43l-.5.27a2.57,2.57,0,0,1-1.27.35,2,2,0,0,1-1.32-.68,2.59,2.59,0,0,1-.85-1.88,2.83,2.83,0,0,1,.91-2,5.55,5.55,0,0,1,2.21-1.29l.56,1.73a2.14,2.14,0,0,0-1.35.58,1.05,1.05,0,0,0-.31.66.58.58,0,0,0,.16.45.49.49,0,0,0,.33.17,1.3,1.3,0,0,0,.74-.23l.59-.32a3.09,3.09,0,0,1,1.59-.46,1.86,1.86,0,0,1,1.37.64,2.71,2.71,0,0,1,.89,2,3.1,3.1,0,0,1-1.09,2.25,4.36,4.36,0,0,1-1.3.92,5.7,5.7,0,0,1-1.31.41Z"/><path class="cls-5" d="M68.44,181.21l1.88,1.87-1.47,1.47-5.66-5.66,2.34-2.34a2.76,2.76,0,0,1,2-.92,2.47,2.47,0,0,1,1.9.85,2.56,2.56,0,0,1,.9,1.9,2.62,2.62,0,0,1-.91,1.9ZM67.26,180l.49-.49a1.38,1.38,0,0,0,.44-.8.93.93,0,0,0-.33-.7,1,1,0,0,0-.68-.34,1.2,1.2,0,0,0-.83.42l-.5.5Z"/><path class="cls-5" d="M73.14,176.39a1.3,1.3,0,0,0,.8.34,1.13,1.13,0,0,0,.8-.36,1,1,0,0,0,.33-.82,1,1,0,0,0-.3-.64.91.91,0,0,0-.72-.28,1.28,1.28,0,0,0-.7.38,1,1,0,0,0-.21.28l-1-1a1,1,0,0,0,.46-.75.73.73,0,0,0-.21-.58.9.9,0,0,0-.56-.26.87.87,0,0,0-.57.27.8.8,0,0,0-.26.55,1,1,0,0,0,.3.69l-1.36,1.37a2.85,2.85,0,0,1-.75-1.85,3.2,3.2,0,0,1,2.85-3,2.17,2.17,0,0,1,1.55.63,1.9,1.9,0,0,1,.53.87,1.44,1.44,0,0,1,0,.87,2,2,0,0,1,1.19-.16,2,2,0,0,1,1.07.6,2.39,2.39,0,0,1,.73,1.73,3.34,3.34,0,0,1-5.47,2.56Z"/><path class="cls-5" d="M83.19,170.21l-4.54,4.54-.07-2.94a12.87,12.87,0,0,0-.27-2.59,2.21,2.21,0,0,0-.58-1.19,1.11,1.11,0,0,0-.71-.37.78.78,0,0,0-.58.24.88.88,0,0,0-.27.72,2,2,0,0,0,.5.9L75.15,171a3.16,3.16,0,0,1-.94-2.2,3.44,3.44,0,0,1,3.17-3.22,2.66,2.66,0,0,1,1.94.84,3.1,3.1,0,0,1,.84,2.52l-.07,1.83L81.94,169Z"/></g></g></g></g><g id="Info"><g id="Main_Info" data-name="Main Info"><g id="Power"><g id="Info-2"><g id="Power_SPI_Flash" data-name="Power SPI Flash" class="cls-4"><g class="cls-4"><path class="cls-6" d="M318.41,260.45h-2.3v-2.3h2.3Zm0,2.51h-2.3v-2.31h2.3Zm0,2.5h-2.3v-2.3h2.3Zm0,2.5h-2.3v-2.3h2.3Zm0,2.5h-2.3v-2.3h2.3Zm0,2.5h-2.3v-2.3h2.3Zm0,2.5h-2.3v-2.3h2.3Zm2.5-15h-2.3v-2.3h2.3Zm0,7.51h-2.3v-2.3h2.3Zm2.5-7.51h-2.3v-2.3h2.3Zm0,7.51h-2.3v-2.3h2.3Zm2.5-7.51h-2.3v-2.3h2.3Zm0,7.51h-2.3v-2.3h2.3Zm2.5-5h-2.3v-2.31h2.3Zm0,2.5h-2.3v-2.3h2.3Z"/><path class="cls-6" d="M335.91,268h-2.3v-2.3h2.3Zm0,2.5h-2.3v-2.3h2.3Zm0,2.5h-2.3v-2.3h2.3Zm2.5-7.5h-2.3v-2.3h2.3Zm0,10h-2.3v-2.3h2.3Zm2.5-10h-2.3v-2.3h2.3Zm0,10h-2.3v-2.3h2.3Zm2.5-10h-2.3v-2.3h2.3Zm0,10h-2.3v-2.3h2.3Zm2.5-7.5h-2.3v-2.3h2.3Zm0,2.5h-2.3v-2.3h2.3Zm0,2.5h-2.3v-2.3h2.3Z"/><path class="cls-6" d="M353.41,265.46h-2.3v-2.3h2.3Zm0,2.5h-2.3v-2.3h2.3Zm0,2.5h-2.3v-2.3h2.3Zm0,2.5h-2.3v-2.3h2.3Zm2.5,2.5h-2.3v-2.3h2.3Zm2.5-2.5h-2.3v-2.3h2.3Zm2.5-5h-2.3v-2.3h2.3Zm0,2.5h-2.3v-2.3h2.3Zm2.5,2.5h-2.3v-2.3h2.3Zm2.5,2.5h-2.3v-2.3h2.3Zm2.5-10h-2.3v-2.3h2.3Zm0,2.5h-2.3v-2.3h2.3Zm0,2.5h-2.3v-2.3h2.3Zm0,2.5h-2.3v-2.3h2.3Z"/><path class="cls-6" d="M375.91,268h-2.3v-2.3h2.3Zm0,2.5h-2.3v-2.3h2.3Zm0,2.5h-2.3v-2.3h2.3Zm2.5-7.5h-2.3v-2.3h2.3Zm0,5h-2.3v-2.3h2.3Zm0,5h-2.3v-2.3h2.3Zm2.5-10h-2.3v-2.3h2.3Zm0,5h-2.3v-2.3h2.3Zm0,5h-2.3v-2.3h2.3Zm2.5-10h-2.3v-2.3h2.3Zm0,5h-2.3v-2.3h2.3Zm0,5h-2.3v-2.3h2.3Zm2.5-7.5h-2.3v-2.3h2.3Zm0,2.5h-2.3v-2.3h2.3Zm0,5h-2.3v-2.3h2.3Z"/><path class="cls-6" d="M393.41,265.46h-2.3v-2.3h2.3Zm0,2.5h-2.3v-2.3h2.3Zm0,2.5h-2.3v-2.3h2.3Zm0,2.5h-2.3v-2.3h2.3Zm0,2.5h-2.3v-2.3h2.3Zm2.5-7.5h-2.3v-2.3h2.3Zm2.5-2.5h-2.3v-2.3h2.3Zm2.5,0h-2.3v-2.3h2.3Z"/><path class="cls-6" d="M413.41,263h-2.3v-2.31h2.3Zm0,2.5h-2.3v-2.3h2.3Zm0,5h-2.3v-2.3h2.3Zm0,2.5h-2.3v-2.3h2.3Zm2.5-12.51h-2.3v-2.3h2.3Zm0,7.51h-2.3v-2.3h2.3Zm0,7.5h-2.3v-2.3h2.3Zm2.5-15h-2.3v-2.3h2.3Zm0,7.51h-2.3v-2.3h2.3Zm0,7.5h-2.3v-2.3h2.3Zm2.5-15h-2.3v-2.3h2.3Zm0,15h-2.3v-2.3h2.3Zm2.5-7.5h-2.3v-2.3h2.3Zm0,2.5h-2.3v-2.3h2.3Zm0,2.5h-2.3v-2.3h2.3Zm2.5-5h-2.3v-2.3h2.3Zm2.5,0h-2.3v-2.3h2.3Z"/><path class="cls-6" d="M440.91,263h-2.3v-2.31h2.3Zm0,2.5h-2.3v-2.3h2.3Zm0,10h-2.3v-2.3h2.3Zm2.5-15h-2.3v-2.3h2.3Zm0,7.51h-2.3v-2.3h2.3Zm0,7.5h-2.3v-2.3h2.3Zm2.5-15h-2.3v-2.3h2.3Zm0,7.51h-2.3v-2.3h2.3Zm0,7.5h-2.3v-2.3h2.3Zm2.5-15h-2.3v-2.3h2.3Zm0,7.51h-2.3v-2.3h2.3Zm0,7.5h-2.3v-2.3h2.3Zm2.5-15h-2.3v-2.3h2.3Zm0,10h-2.3v-2.3h2.3Zm0,2.5h-2.3v-2.3h2.3Z"/><path class="cls-6" d="M458.41,260.45h-2.3v-2.3h2.3Zm0,2.51h-2.3v-2.31h2.3Zm0,2.5h-2.3v-2.3h2.3Zm0,2.5h-2.3v-2.3h2.3Zm0,2.5h-2.3v-2.3h2.3Zm0,2.5h-2.3v-2.3h2.3Zm0,2.5h-2.3v-2.3h2.3Zm2.5-15h-2.3v-2.3h2.3Zm0,7.51h-2.3v-2.3h2.3Zm2.5-7.51h-2.3v-2.3h2.3Zm0,7.51h-2.3v-2.3h2.3Zm2.5-7.51h-2.3v-2.3h2.3Zm0,7.51h-2.3v-2.3h2.3Zm2.5-5h-2.3v-2.31h2.3Zm0,2.5h-2.3v-2.3h2.3Z"/><path class="cls-6" d="M475.91,260.45h-2.3v-2.3h2.3Zm0,15h-2.3v-2.3h2.3Zm2.5-15h-2.3v-2.3h2.3Zm0,2.51h-2.3v-2.31h2.3Zm0,2.5h-2.3v-2.3h2.3Zm0,2.5h-2.3v-2.3h2.3Zm0,2.5h-2.3v-2.3h2.3Zm0,2.5h-2.3v-2.3h2.3Zm0,2.5h-2.3v-2.3h2.3Zm2.5-15h-2.3v-2.3h2.3Zm0,15h-2.3v-2.3h2.3Z"/><path class="cls-6" d="M495.91,260.45h-2.3v-2.3h2.3Zm0,2.51h-2.3v-2.31h2.3Zm0,2.5h-2.3v-2.3h2.3Zm0,2.5h-2.3v-2.3h2.3Zm0,2.5h-2.3v-2.3h2.3Zm0,2.5h-2.3v-2.3h2.3Zm0,2.5h-2.3v-2.3h2.3Zm2.5-15h-2.3v-2.3h2.3Zm0,7.51h-2.3v-2.3h2.3Zm2.5-7.51h-2.3v-2.3h2.3Zm0,7.51h-2.3v-2.3h2.3Zm2.5-7.51h-2.3v-2.3h2.3Zm0,7.51h-2.3v-2.3h2.3Zm2.5-7.51h-2.3v-2.3h2.3Z"/><path class="cls-6" d="M510.91,258h-2.3v-2.3h2.3Zm0,2.5h-2.3v-2.3h2.3Zm0,2.51h-2.3v-2.31h2.3Zm0,2.5h-2.3v-2.3h2.3Zm0,2.5h-2.3v-2.3h2.3Zm0,2.5h-2.3v-2.3h2.3Zm0,2.5h-2.3v-2.3h2.3Zm2.5,2.5h-2.3v-2.3h2.3Zm2.5,0h-2.3v-2.3h2.3Z"/><path class="cls-6" d="M520.91,273h-2.3v-2.3h2.3Zm2.5-7.5h-2.3v-2.3h2.3Zm0,5h-2.3v-2.3h2.3Zm0,5h-2.3v-2.3h2.3Zm2.5-10h-2.3v-2.3h2.3Zm0,5h-2.3v-2.3h2.3Zm0,5h-2.3v-2.3h2.3Zm2.5-10h-2.3v-2.3h2.3Zm0,5h-2.3v-2.3h2.3Zm0,5h-2.3v-2.3h2.3Zm2.5-7.5h-2.3v-2.3h2.3Zm0,2.5h-2.3v-2.3h2.3Zm0,2.5h-2.3v-2.3h2.3Zm0,2.5h-2.3v-2.3h2.3Z"/><path class="cls-6" d="M538.41,268h-2.3v-2.3h2.3Zm0,7.5h-2.3v-2.3h2.3Zm2.5-10h-2.3v-2.3h2.3Zm0,5h-2.3v-2.3h2.3Zm0,5h-2.3v-2.3h2.3Zm2.5-10h-2.3v-2.3h2.3Zm0,5h-2.3v-2.3h2.3Zm0,5h-2.3v-2.3h2.3Zm2.5-10h-2.3v-2.3h2.3Zm0,7.5h-2.3v-2.3h2.3Z"/><path class="cls-6" d="M553.41,258h-2.3v-2.3h2.3Zm0,2.5h-2.3v-2.3h2.3Zm0,2.51h-2.3v-2.31h2.3Zm0,2.5h-2.3v-2.3h2.3Zm0,2.5h-2.3v-2.3h2.3Zm0,2.5h-2.3v-2.3h2.3Zm0,2.5h-2.3v-2.3h2.3Zm0,2.5h-2.3v-2.3h2.3Zm2.5-10h-2.3v-2.3h2.3Zm2.5,0h-2.3v-2.3h2.3Zm2.5,0h-2.3v-2.3h2.3Zm2.5,2.5h-2.3v-2.3h2.3Zm0,2.5h-2.3v-2.3h2.3Zm0,2.5h-2.3v-2.3h2.3Zm0,2.5h-2.3v-2.3h2.3Z"/></g></g><g id="Line_4" data-name="Line 4"><rect class="cls-7" x="313.51" y="285.21" width="274.72" height="1"/></g><g id="_-_Unregulated_3.3v_input_-_SPI_Flash_pins_with_autoflash_mode_-_2nd_SPI_and_UART" data-name=" - Unregulated 3.3v input - SPI Flash pins with autoflash mode - 2nd SPI and UART" class="cls-4"><g class="cls-4"><path class="cls-8" d="M316.2,300.64h-1.26v-1.26h1.26Zm1.38,0h-1.27v-1.26h1.27Zm1.37,0h-1.26v-1.26H319Zm1.38,0h-1.27v-1.26h1.27Z"/><path class="cls-8" d="M328.58,295.14h-1.27v-1.26h1.27Zm0,1.38h-1.27v-1.27h1.27Zm0,1.37h-1.27v-1.26h1.27Zm0,1.38h-1.27V298h1.27Zm0,1.37h-1.27v-1.26h1.27Zm0,1.38h-1.27v-1.27h1.27Zm1.37,1.37h-1.26v-1.26H330Zm1.38,0h-1.27v-1.26h1.27Zm1.37,0h-1.26v-1.26h1.26Zm1.38-8.25h-1.27v-1.26h1.27Zm0,1.38h-1.27v-1.27h1.27Zm0,1.37h-1.27v-1.26h1.27Zm0,1.38h-1.27V298h1.27Zm0,1.37h-1.27v-1.26h1.27Zm0,1.38h-1.27v-1.27h1.27Z"/><path class="cls-8" d="M338.2,297.89h-1.26v-1.26h1.26Zm0,1.38h-1.26V298h1.26Zm0,1.37h-1.26v-1.26h1.26Zm0,1.38h-1.26v-1.27h1.26Zm0,1.37h-1.26v-1.26h1.26Zm1.38-5.5h-1.27v-1.26h1.27Zm1.37,0h-1.26v-1.26H341Zm1.38,0h-1.27v-1.26h1.27Zm1.38,1.38h-1.27V298h1.27Zm0,1.37h-1.27v-1.26h1.27Zm0,1.38h-1.27v-1.27h1.27Zm0,1.37h-1.27v-1.26h1.27Z"/><path class="cls-8" d="M347.83,297.89h-1.27v-1.26h1.27Zm0,1.38h-1.27V298h1.27Zm0,1.37h-1.27v-1.26h1.27Zm0,1.38h-1.27v-1.27h1.27Zm0,1.37h-1.27v-1.26h1.27Zm1.37-4.12h-1.26V298h1.26Zm1.38-1.38h-1.27v-1.26h1.27Zm1.37,0h-1.26v-1.26H352Z"/><path class="cls-8" d="M354.7,299.27h-1.26V298h1.26Zm0,1.37h-1.26v-1.26h1.26Zm0,1.38h-1.26v-1.27h1.26Zm1.38-4.13h-1.27v-1.26h1.27Zm0,2.75h-1.27v-1.26h1.27Zm0,2.75h-1.27v-1.26h1.27Zm1.37-5.5h-1.26v-1.26h1.26Zm0,2.75h-1.26v-1.26h1.26Zm0,2.75h-1.26v-1.26h1.26Zm1.38-5.5h-1.27v-1.26h1.27Zm0,2.75h-1.27v-1.26h1.27Zm0,2.75h-1.27v-1.26h1.27Zm1.38-4.12h-1.27V298h1.27Zm0,1.37h-1.27v-1.26h1.27Zm0,2.75h-1.27v-1.26h1.27Z"/><path class="cls-8" d="M364.33,299.27h-1.27V298h1.27Zm0,1.37h-1.27v-1.26h1.27Zm0,1.38h-1.27v-1.27h1.27Zm0,4.12h-1.27v-1.26h1.27Zm1.37-8.25h-1.26v-1.26h1.26Zm0,5.5h-1.26v-1.26h1.26Zm0,2.75h-1.26v-1.26h1.26Zm1.38-8.25h-1.27v-1.26h1.27Zm0,5.5h-1.27v-1.26h1.27Zm0,2.75h-1.27v-1.26h1.27Zm1.37-8.25h-1.26v-1.26h1.26Zm0,5.5h-1.26v-1.26h1.26Zm0,2.75h-1.26v-1.26h1.26Zm1.38-8.25h-1.27v-1.26h1.27Zm0,1.38h-1.27V298h1.27Zm0,1.37h-1.27v-1.26h1.27Zm0,1.38h-1.27v-1.27h1.27Zm0,1.37h-1.27v-1.26h1.27Zm0,1.38h-1.27V303.5h1.27Z"/><path class="cls-8" d="M374,297.89h-1.26v-1.26H374Zm0,1.38h-1.26V298H374Zm0,1.37h-1.26v-1.26H374Zm0,1.38h-1.26v-1.27H374Zm1.38,1.37h-1.27v-1.26h1.27Zm1.37,0h-1.26v-1.26h1.26Zm1.38,0h-1.27v-1.26h1.27Zm1.38-5.5h-1.27v-1.26h1.27Zm0,1.38h-1.27V298h1.27Zm0,1.37h-1.27v-1.26h1.27Zm0,1.38h-1.27v-1.27h1.27Zm0,1.37h-1.27v-1.26h1.27Z"/><path class="cls-8" d="M383.58,293.77h-1.27V292.5h1.27Zm0,1.37h-1.27v-1.26h1.27Zm0,1.38h-1.27v-1.27h1.27Zm0,1.37h-1.27v-1.26h1.27Zm0,1.38h-1.27V298h1.27Zm0,1.37h-1.27v-1.26h1.27Zm0,1.38h-1.27v-1.27h1.27Zm1.37,1.37h-1.26v-1.26H385Zm1.38,0h-1.27v-1.26h1.27Z"/><path class="cls-8" d="M389.08,302h-1.27v-1.27h1.27Zm1.37-4.13h-1.26v-1.26h1.26Zm0,2.75h-1.26v-1.26h1.26Zm0,2.75h-1.26v-1.26h1.26Zm1.38-5.5h-1.27v-1.26h1.27Zm0,2.75h-1.27v-1.26h1.27Zm0,2.75h-1.27v-1.26h1.27Zm1.37-5.5h-1.26v-1.26h1.26Zm0,2.75h-1.26v-1.26h1.26Zm0,2.75h-1.26v-1.26h1.26Zm1.38-4.12h-1.27V298h1.27Zm0,1.37h-1.27v-1.26h1.27Zm0,1.38h-1.27v-1.27h1.27Zm0,1.37h-1.27v-1.26h1.27Z"/><path class="cls-8" d="M398.7,295.14h-1.26v-1.26h1.26Zm0,1.38h-1.26v-1.27h1.26Zm0,1.37h-1.26v-1.26h1.26Zm0,1.38h-1.26V298h1.26Zm0,1.37h-1.26v-1.26h1.26Zm0,1.38h-1.26v-1.27h1.26Zm1.38-4.13h-1.27v-1.26h1.27Zm0,5.5h-1.27v-1.26h1.27Zm1.37-5.5h-1.26v-1.26h1.26Zm0,5.5h-1.26v-1.26h1.26Zm1.38-5.5h-1.27v-1.26h1.27Zm0,5.5h-1.27v-1.26h1.27Z"/><path class="cls-8" d="M407,299.27h-1.26V298H407Zm0,1.37h-1.26v-1.26H407Zm0,1.38h-1.26v-1.27H407Zm1.38-4.13h-1.27v-1.26h1.27Zm0,2.75h-1.27v-1.26h1.27Zm0,2.75h-1.27v-1.26h1.27Zm1.37-5.5h-1.26v-1.26h1.26Zm0,2.75h-1.26v-1.26h1.26Zm0,2.75h-1.26v-1.26h1.26Zm1.38-5.5h-1.27v-1.26h1.27Zm0,2.75h-1.27v-1.26h1.27Zm0,2.75h-1.27v-1.26h1.27Zm1.38-4.12h-1.27V298h1.27Zm0,1.37h-1.27v-1.26h1.27Zm0,2.75h-1.27v-1.26h1.27Z"/><path class="cls-8" d="M416.58,299.27h-1.27V298h1.27Zm0,1.37h-1.27v-1.26h1.27Zm0,1.38h-1.27v-1.27h1.27Zm1.37-4.13h-1.26v-1.26H418Zm0,5.5h-1.26v-1.26H418Zm1.38-5.5h-1.27v-1.26h1.27Zm0,5.5h-1.27v-1.26h1.27Zm1.37-5.5h-1.26v-1.26h1.26Zm0,5.5h-1.26v-1.26h1.26Zm1.38-9.62h-1.27V292.5h1.27Zm0,1.37h-1.27v-1.26h1.27Zm0,1.38h-1.27v-1.27h1.27Zm0,1.37h-1.27v-1.26h1.27Zm0,1.38h-1.27V298h1.27Zm0,1.37h-1.27v-1.26h1.27Zm0,1.38h-1.27v-1.27h1.27Zm0,1.37h-1.27v-1.26h1.27Z"/><path class="cls-8" d="M430.33,295.14h-1.27v-1.26h1.27Zm0,8.25h-1.27v-1.26h1.27Zm1.37-8.25h-1.26v-1.26h1.26Zm0,4.13h-1.26V298h1.26Zm0,4.12h-1.26v-1.26h1.26Zm1.38-8.25h-1.27v-1.26h1.27Zm0,2.75h-1.27v-1.26h1.27Zm0,1.38h-1.27V298h1.27Zm0,4.12h-1.27v-1.26h1.27Zm1.37-8.25h-1.26v-1.26h1.26Zm0,1.38h-1.26v-1.27h1.26Zm0,2.75h-1.26V298h1.26Zm0,4.12h-1.26v-1.26h1.26Zm1.38-8.25h-1.27v-1.26h1.27Zm0,5.5h-1.27v-1.26h1.27Zm0,1.38h-1.27v-1.27h1.27Z"/><path class="cls-8" d="M441.33,302h-1.27v-1.27h1.27Zm0,1.37h-1.27v-1.26h1.27Z"/><path class="cls-8" d="M445.45,295.14h-1.26v-1.26h1.26Zm0,8.25h-1.26v-1.26h1.26Zm1.38-8.25h-1.27v-1.26h1.27Zm0,4.13h-1.27V298h1.27Zm0,4.12h-1.27v-1.26h1.27Zm1.37-8.25h-1.26v-1.26h1.26Zm0,2.75h-1.26v-1.26h1.26Zm0,1.38h-1.26V298h1.26Zm0,4.12h-1.26v-1.26h1.26Zm1.38-8.25h-1.27v-1.26h1.27Zm0,1.38h-1.27v-1.27h1.27Zm0,2.75h-1.27V298h1.27Zm0,4.12h-1.27v-1.26h1.27Zm1.38-8.25h-1.27v-1.26H451Zm0,5.5h-1.27v-1.26H451Zm0,1.38h-1.27v-1.27H451Z"/><path class="cls-8" d="M455.08,297.89h-1.27v-1.26h1.27Zm0,1.38h-1.27V298h1.27Zm0,1.37h-1.27v-1.26h1.27Zm1.37,1.38h-1.26v-1.27h1.26Zm1.38,1.37h-1.27v-1.26h1.27ZM459.2,302h-1.26v-1.27h1.26Zm1.38-4.13h-1.27v-1.26h1.27Zm0,1.38h-1.27V298h1.27Zm0,1.37h-1.27v-1.26h1.27Z"/><path class="cls-8" d="M468.83,293.77h-1.27V292.5h1.27Zm0,4.12h-1.27v-1.26h1.27Zm0,1.38h-1.27V298h1.27Zm0,1.37h-1.27v-1.26h1.27Zm0,1.38h-1.27v-1.27h1.27Zm0,1.37h-1.27v-1.26h1.27Z"/><path class="cls-8" d="M473,297.89h-1.26v-1.26H473Zm0,1.38h-1.26V298H473Zm0,1.37h-1.26v-1.26H473Zm0,1.38h-1.26v-1.27H473Zm0,1.37h-1.26v-1.26H473Zm1.38-5.5h-1.27v-1.26h1.27Zm1.37,0h-1.26v-1.26h1.26Zm1.38,0h-1.27v-1.26h1.27Zm1.38,1.38h-1.27V298h1.27Zm0,1.37h-1.27v-1.26h1.27Zm0,1.38h-1.27v-1.27h1.27Zm0,1.37h-1.27v-1.26h1.27Z"/><path class="cls-8" d="M482.58,297.89h-1.27v-1.26h1.27Zm0,1.38h-1.27V298h1.27Zm0,1.37h-1.27v-1.26h1.27Zm0,1.38h-1.27v-1.27h1.27Zm0,1.37h-1.27v-1.26h1.27Zm0,1.38h-1.27V303.5h1.27Zm0,1.37h-1.27v-1.26h1.27Zm1.37-8.25h-1.26v-1.26H484Zm0,5.5h-1.26v-1.26H484Zm1.38-5.5h-1.27v-1.26h1.27Zm0,5.5h-1.27v-1.26h1.27Zm1.37-5.5h-1.26v-1.26h1.26Zm0,5.5h-1.26v-1.26h1.26Zm1.38-4.12h-1.27V298h1.27Zm0,1.37h-1.27v-1.26h1.27Zm0,1.38h-1.27v-1.27h1.27Z"/><path class="cls-8" d="M492.2,297.89h-1.26v-1.26h1.26Zm0,1.38h-1.26V298h1.26Zm0,1.37h-1.26v-1.26h1.26Zm0,1.38h-1.26v-1.27h1.26Zm1.38,1.37h-1.27v-1.26h1.27Zm1.37,0h-1.26v-1.26H495Zm1.38,0h-1.27v-1.26h1.27Zm1.38-5.5h-1.27v-1.26h1.27Zm0,1.38h-1.27V298h1.27Zm0,1.37h-1.27v-1.26h1.27Zm0,1.38h-1.27v-1.27h1.27Zm0,1.37h-1.27v-1.26h1.27Z"/><path class="cls-8" d="M501.83,295.14h-1.27v-1.26h1.27Zm0,1.38h-1.27v-1.27h1.27Zm0,1.37h-1.27v-1.26h1.27Zm0,1.38h-1.27V298h1.27Zm0,1.37h-1.27v-1.26h1.27Zm0,1.38h-1.27v-1.27h1.27Zm1.37-4.13h-1.26v-1.26h1.26Zm0,5.5h-1.26v-1.26h1.26Zm1.38-5.5h-1.27v-1.26h1.27Zm0,5.5h-1.27v-1.26h1.27Zm1.37-5.5h-1.26v-1.26H506Zm0,5.5h-1.26v-1.26H506Z"/></g><g class="cls-4"><path class="cls-8" d="M316.2,316.64h-1.26v-1.26h1.26Zm1.38,0h-1.27v-1.26h1.27Zm1.37,0h-1.26v-1.26H319Zm1.38,0h-1.27v-1.26h1.27Z"/><path class="cls-8" d="M328.58,312.52h-1.27v-1.27h1.27Zm0,1.37h-1.27v-1.26h1.27Zm0,5.5h-1.27v-1.26h1.27Zm1.37-8.25h-1.26v-1.26H330Zm0,4.13h-1.26V314H330Zm0,4.12h-1.26v-1.26H330Zm1.38-8.25h-1.27v-1.26h1.27Zm0,4.13h-1.27V314h1.27Zm0,4.12h-1.27v-1.26h1.27Zm1.37-8.25h-1.26v-1.26h1.26Zm0,4.13h-1.26V314h1.26Zm0,4.12h-1.26v-1.26h1.26Zm1.38-8.25h-1.27v-1.26h1.27Zm0,5.5h-1.27v-1.26h1.27Zm0,1.38h-1.27v-1.27h1.27Z"/><path class="cls-8" d="M338.2,311.14h-1.26v-1.26h1.26Zm0,1.38h-1.26v-1.27h1.26Zm0,1.37h-1.26v-1.26h1.26Zm0,1.38h-1.26V314h1.26Zm0,1.37h-1.26v-1.26h1.26Zm0,1.38h-1.26v-1.27h1.26Zm0,1.37h-1.26v-1.26h1.26Zm1.38-8.25h-1.27v-1.26h1.27Zm0,4.13h-1.27V314h1.27Zm1.37-4.13h-1.26v-1.26H341Zm0,4.13h-1.26V314H341Zm1.38-4.13h-1.27v-1.26h1.27Zm0,4.13h-1.27V314h1.27Zm1.38-2.75h-1.27v-1.27h1.27Zm0,1.37h-1.27v-1.26h1.27Z"/><path class="cls-8" d="M347.83,311.14h-1.27v-1.26h1.27Zm0,8.25h-1.27v-1.26h1.27Zm1.37-8.25h-1.26v-1.26h1.26Zm0,1.38h-1.26v-1.27h1.26Zm0,1.37h-1.26v-1.26h1.26Zm0,1.38h-1.26V314h1.26Zm0,1.37h-1.26v-1.26h1.26Zm0,1.38h-1.26v-1.27h1.26Zm0,1.37h-1.26v-1.26h1.26Zm1.38-8.25h-1.27v-1.26h1.27Zm0,8.25h-1.27v-1.26h1.27Z"/><path class="cls-8" d="M358.83,311.14h-1.27v-1.26h1.27Zm0,1.38h-1.27v-1.27h1.27Zm0,1.37h-1.27v-1.26h1.27Zm0,1.38h-1.27V314h1.27Zm0,1.37h-1.27v-1.26h1.27Zm0,1.38h-1.27v-1.27h1.27Zm0,1.37h-1.27v-1.26h1.27Zm1.37-8.25h-1.26v-1.26h1.26Zm0,4.13h-1.26V314h1.26Zm1.38-4.13h-1.27v-1.26h1.27Zm0,4.13h-1.27V314h1.27Zm1.37-4.13h-1.26v-1.26H363Zm0,4.13h-1.26V314H363Zm1.38-4.13h-1.27v-1.26h1.27Z"/><path class="cls-8" d="M367.08,309.77h-1.27V308.5h1.27Zm0,1.37h-1.27v-1.26h1.27Zm0,1.38h-1.27v-1.27h1.27Zm0,1.37h-1.27v-1.26h1.27Zm0,1.38h-1.27V314h1.27Zm0,1.37h-1.27v-1.26h1.27Zm0,1.38h-1.27v-1.27h1.27Zm1.37,1.37h-1.26v-1.26h1.26Zm1.38,0h-1.27v-1.26h1.27Z"/><path class="cls-8" d="M372.58,318h-1.27v-1.27h1.27Zm1.37-4.13h-1.26v-1.26H374Zm0,2.75h-1.26v-1.26H374Zm0,2.75h-1.26v-1.26H374Zm1.38-5.5h-1.27v-1.26h1.27Zm0,2.75h-1.27v-1.26h1.27Zm0,2.75h-1.27v-1.26h1.27Zm1.37-5.5h-1.26v-1.26h1.26Zm0,2.75h-1.26v-1.26h1.26Zm0,2.75h-1.26v-1.26h1.26Zm1.38-4.12h-1.27V314h1.27Zm0,1.37h-1.27v-1.26h1.27Zm0,1.38h-1.27v-1.27h1.27Zm0,1.37h-1.27v-1.26h1.27Z"/><path class="cls-8" d="M382.2,315.27h-1.26V314h1.26Zm0,4.12h-1.26v-1.26h1.26Zm1.38-5.5h-1.27v-1.26h1.27Zm0,2.75h-1.27v-1.26h1.27Zm0,2.75h-1.27v-1.26h1.27Zm1.37-5.5h-1.26v-1.26H385Zm0,2.75h-1.26v-1.26H385Zm0,2.75h-1.26v-1.26H385Zm1.38-5.5h-1.27v-1.26h1.27Zm0,4.13h-1.27v-1.27h1.27Z"/><path class="cls-8" d="M390.45,309.77h-1.26V308.5h1.26Zm0,1.37h-1.26v-1.26h1.26Zm0,1.38h-1.26v-1.27h1.26Zm0,1.37h-1.26v-1.26h1.26Zm0,1.38h-1.26V314h1.26Zm0,1.37h-1.26v-1.26h1.26Zm0,1.38h-1.26v-1.27h1.26Zm0,1.37h-1.26v-1.26h1.26Zm1.38-5.5h-1.27v-1.26h1.27Zm1.37,0h-1.26v-1.26h1.26Zm1.38,0h-1.27v-1.26h1.27Zm1.38,1.38h-1.27V314H396Zm0,1.37h-1.27v-1.26H396Zm0,1.38h-1.27v-1.27H396Zm0,1.37h-1.27v-1.26H396Z"/><path class="cls-8" d="M404.2,313.89h-1.26v-1.26h1.26Zm0,1.38h-1.26V314h1.26Zm0,1.37h-1.26v-1.26h1.26Zm0,1.38h-1.26v-1.27h1.26Zm0,1.37h-1.26v-1.26h1.26Zm0,1.38h-1.26V319.5h1.26Zm0,1.37h-1.26v-1.26h1.26Zm1.38-8.25h-1.27v-1.26h1.27Zm0,5.5h-1.27v-1.26h1.27Zm1.37-5.5h-1.26v-1.26H407Zm0,5.5h-1.26v-1.26H407Zm1.38-5.5h-1.27v-1.26h1.27Zm0,5.5h-1.27v-1.26h1.27Zm1.38-4.12h-1.27V314h1.27Zm0,1.37h-1.27v-1.26h1.27Zm0,1.38h-1.27v-1.27h1.27Z"/><path class="cls-8" d="M413.83,309.77h-1.27V308.5h1.27Zm0,4.12h-1.27v-1.26h1.27Zm0,1.38h-1.27V314h1.27Zm0,1.37h-1.27v-1.26h1.27Zm0,1.38h-1.27v-1.27h1.27Zm0,1.37h-1.27v-1.26h1.27Z"/><path class="cls-8" d="M418,313.89h-1.26v-1.26H418Zm0,1.38h-1.26V314H418Zm0,1.37h-1.26v-1.26H418Zm0,1.38h-1.26v-1.27H418Zm0,1.37h-1.26v-1.26H418Zm1.38-5.5h-1.27v-1.26h1.27Zm1.37,0h-1.26v-1.26h1.26Zm1.38,0h-1.27v-1.26h1.27Zm1.38,1.38h-1.27V314h1.27Zm0,1.37h-1.27v-1.26h1.27Zm0,1.38h-1.27v-1.27h1.27Zm0,1.37h-1.27v-1.26h1.27Z"/><path class="cls-8" d="M427.58,315.27h-1.27V314h1.27Zm0,4.12h-1.27v-1.26h1.27Zm1.37-5.5h-1.26v-1.26H429Zm0,2.75h-1.26v-1.26H429Zm0,2.75h-1.26v-1.26H429Zm1.38-5.5h-1.27v-1.26h1.27Zm0,2.75h-1.27v-1.26h1.27Zm0,2.75h-1.27v-1.26h1.27Zm1.37-5.5h-1.26v-1.26h1.26Zm0,4.13h-1.26v-1.27h1.26Z"/><path class="cls-8" d="M440,313.89h-1.26v-1.26H440Zm0,1.38h-1.26V314H440Zm0,1.37h-1.26v-1.26H440Zm0,1.38h-1.26v-1.27H440Zm1.38,1.37h-1.27v-1.26h1.27ZM442.7,318h-1.26v-1.27h1.26Zm1.38-2.75h-1.27V314h1.27Zm0,1.37h-1.27v-1.26h1.27Zm1.38,1.38h-1.27v-1.27h1.27Zm1.37,1.37h-1.27v-1.26h1.27Zm1.38-5.5h-1.27v-1.26h1.27Zm0,1.38h-1.27V314h1.27Zm0,1.37h-1.27v-1.26h1.27Zm0,1.38h-1.27v-1.27h1.27Z"/><path class="cls-8" d="M452.33,309.77h-1.27V308.5h1.27Zm0,4.12h-1.27v-1.26h1.27Zm0,1.38h-1.27V314h1.27Zm0,1.37h-1.27v-1.26h1.27Zm0,1.38h-1.27v-1.27h1.27Zm0,1.37h-1.27v-1.26h1.27Z"/><path class="cls-8" d="M456.45,311.14h-1.26v-1.26h1.26Zm0,1.38h-1.26v-1.27h1.26Zm0,1.37h-1.26v-1.26h1.26Zm0,1.38h-1.26V314h1.26Zm0,1.37h-1.26v-1.26h1.26Zm0,1.38h-1.26v-1.27h1.26Zm1.38-4.13h-1.27v-1.26h1.27Zm0,5.5h-1.27v-1.26h1.27Zm1.37-5.5h-1.26v-1.26h1.26Zm0,5.5h-1.26v-1.26h1.26Zm1.38-5.5h-1.27v-1.26h1.27Zm0,5.5h-1.27v-1.26h1.27Z"/><path class="cls-8" d="M464.7,309.77h-1.26V308.5h1.26Zm0,1.37h-1.26v-1.26h1.26Zm0,1.38h-1.26v-1.27h1.26Zm0,1.37h-1.26v-1.26h1.26Zm0,1.38h-1.26V314h1.26Zm0,1.37h-1.26v-1.26h1.26Zm0,1.38h-1.26v-1.27h1.26Zm0,1.37h-1.26v-1.26h1.26Zm1.38-5.5h-1.27v-1.26h1.27Zm1.37,0h-1.26v-1.26h1.26Zm1.38,0h-1.27v-1.26h1.27Zm1.38,1.38h-1.27V314h1.27Zm0,1.37h-1.27v-1.26h1.27Zm0,1.38h-1.27v-1.27h1.27Zm0,1.37h-1.27v-1.26h1.27Z"/><path class="cls-8" d="M478.45,318h-1.26v-1.27h1.26Zm1.38-4.13h-1.27v-1.26h1.27Zm0,2.75h-1.27v-1.26h1.27Zm0,2.75h-1.27v-1.26h1.27Zm1.37-5.5h-1.26v-1.26h1.26Zm0,2.75h-1.26v-1.26h1.26Zm0,2.75h-1.26v-1.26h1.26Zm1.38-5.5h-1.27v-1.26h1.27Zm0,2.75h-1.27v-1.26h1.27Zm0,2.75h-1.27v-1.26h1.27Zm1.38-4.12h-1.27V314H484Zm0,1.37h-1.27v-1.26H484Zm0,1.38h-1.27v-1.27H484Zm0,1.37h-1.27v-1.26H484Z"/><path class="cls-8" d="M488.08,313.89h-1.27v-1.26h1.27Zm0,1.38h-1.27V314h1.27Zm0,1.37h-1.27v-1.26h1.27Zm0,1.38h-1.27v-1.27h1.27Zm1.37,1.37h-1.26v-1.26h1.26Zm1.38,0h-1.27v-1.26h1.27Zm1.37,0h-1.26v-1.26h1.26Zm1.38-5.5h-1.27v-1.26h1.27Zm0,1.38h-1.27V314h1.27Zm0,1.37h-1.27v-1.26h1.27Zm0,1.38h-1.27v-1.27h1.27Zm0,1.37h-1.27v-1.26h1.27Z"/><path class="cls-8" d="M497.7,311.14h-1.26v-1.26h1.26Zm0,1.38h-1.26v-1.27h1.26Zm0,1.37h-1.26v-1.26h1.26Zm0,1.38h-1.26V314h1.26Zm0,1.37h-1.26v-1.26h1.26Zm0,1.38h-1.26v-1.27h1.26Zm1.38-4.13h-1.27v-1.26h1.27Zm0,5.5h-1.27v-1.26h1.27Zm1.37-5.5h-1.26v-1.26h1.26Zm0,5.5h-1.26v-1.26h1.26Zm1.38-5.5h-1.27v-1.26h1.27Zm0,5.5h-1.27v-1.26h1.27Z"/><path class="cls-8" d="M506,315.27h-1.26V314H506Zm0,1.37h-1.26v-1.26H506Zm0,1.38h-1.26v-1.27H506Zm1.38-4.13h-1.27v-1.26h1.27Zm0,5.5h-1.27v-1.26h1.27Zm1.37-5.5h-1.26v-1.26h1.26Zm0,5.5h-1.26v-1.26h1.26Zm1.38-5.5h-1.27v-1.26h1.27Zm0,5.5h-1.27v-1.26h1.27Zm1.38-4.12h-1.27V314h1.27Zm0,1.37h-1.27v-1.26h1.27Zm0,1.38h-1.27v-1.27h1.27Z"/><path class="cls-8" d="M514.2,313.89h-1.26v-1.26h1.26Zm1.38,0h-1.27v-1.26h1.27Zm1.37-2.75h-1.26v-1.26H517Zm0,1.38h-1.26v-1.27H517Zm0,1.37h-1.26v-1.26H517Zm0,1.38h-1.26V314H517Zm0,1.37h-1.26v-1.26H517Zm0,1.38h-1.26v-1.27H517Zm0,1.37h-1.26v-1.26H517Zm1.38-9.62h-1.27V308.5h1.27Zm0,4.12h-1.27v-1.26h1.27Zm1.37-4.12h-1.26V308.5h1.26Zm0,4.12h-1.26v-1.26h1.26Zm1.38-4.12h-1.27V308.5h1.27Zm1.38,0h-1.27V308.5h1.27Zm0,1.37h-1.27v-1.26h1.27Zm0,1.38h-1.27v-1.27h1.27Zm0,1.37h-1.27v-1.26h1.27Zm0,1.38h-1.27V314h1.27Zm0,1.37h-1.27v-1.26h1.27Zm0,1.38h-1.27v-1.27h1.27Zm1.37,1.37h-1.26v-1.26h1.26Zm1.38,0h-1.27v-1.26h1.27Z"/><path class="cls-8" d="M528,318h-1.26v-1.27H528Zm1.38-4.13h-1.27v-1.26h1.27Zm0,2.75h-1.27v-1.26h1.27Zm0,2.75h-1.27v-1.26h1.27Zm1.37-5.5h-1.26v-1.26h1.26Zm0,2.75h-1.26v-1.26h1.26Zm0,2.75h-1.26v-1.26h1.26Zm1.38-5.5h-1.27v-1.26h1.27Zm0,2.75h-1.27v-1.26h1.27Zm0,2.75h-1.27v-1.26h1.27Zm1.38-4.12h-1.27V314h1.27Zm0,1.37h-1.27v-1.26h1.27Zm0,1.38h-1.27v-1.27h1.27Zm0,1.37h-1.27v-1.26h1.27Z"/><path class="cls-8" d="M537.58,315.27h-1.27V314h1.27Zm0,4.12h-1.27v-1.26h1.27Zm1.37-5.5h-1.26v-1.26H539Zm0,2.75h-1.26v-1.26H539Zm0,2.75h-1.26v-1.26H539Zm1.38-5.5h-1.27v-1.26h1.27Zm0,2.75h-1.27v-1.26h1.27Zm0,2.75h-1.27v-1.26h1.27Zm1.37-5.5h-1.26v-1.26h1.26Zm0,4.13h-1.26v-1.27h1.26Z"/><path class="cls-8" d="M545.83,309.77h-1.27V308.5h1.27Zm0,1.37h-1.27v-1.26h1.27Zm0,1.38h-1.27v-1.27h1.27Zm0,1.37h-1.27v-1.26h1.27Zm0,1.38h-1.27V314h1.27Zm0,1.37h-1.27v-1.26h1.27Zm0,1.38h-1.27v-1.27h1.27Zm0,1.37h-1.27v-1.26h1.27Zm1.37-5.5h-1.26v-1.26h1.26Zm1.38,0h-1.27v-1.26h1.27Zm1.37,0h-1.26v-1.26H550Zm1.38,1.38h-1.27V314h1.27Zm0,1.37h-1.27v-1.26h1.27Zm0,1.38h-1.27v-1.27h1.27Zm0,1.37h-1.27v-1.26h1.27Z"/><path class="cls-8" d="M559.58,313.89h-1.27v-1.26h1.27Zm0,1.38h-1.27V314h1.27Zm0,1.37h-1.27v-1.26h1.27Zm0,1.38h-1.27v-1.27h1.27Zm0,1.37h-1.27v-1.26h1.27Zm1.37-5.5h-1.26v-1.26H561Zm1.38,0h-1.27v-1.26h1.27Zm1.37,0h-1.26v-1.26h1.26Zm0,1.38h-1.26V314h1.26Zm0,1.37h-1.26v-1.26h1.26Zm0,1.38h-1.26v-1.27h1.26Zm0,1.37h-1.26v-1.26h1.26Zm1.38-5.5h-1.27v-1.26h1.27Zm1.38,0h-1.27v-1.26h1.27Zm1.37,1.38h-1.26V314h1.26Zm0,1.37h-1.26v-1.26h1.26Zm0,1.38h-1.26v-1.27h1.26Zm0,1.37h-1.26v-1.26h1.26Z"/><path class="cls-8" d="M572,315.27h-1.26V314H572Zm0,1.37h-1.26v-1.26H572Zm0,1.38h-1.26v-1.27H572Zm1.38-4.13h-1.27v-1.26h1.27Zm0,5.5h-1.27v-1.26h1.27Zm1.37-5.5h-1.26v-1.26h1.26Zm0,5.5h-1.26v-1.26h1.26Zm1.38-5.5h-1.27v-1.26h1.27Zm0,5.5h-1.27v-1.26h1.27Zm1.38-4.12h-1.27V314h1.27Zm0,1.37h-1.27v-1.26h1.27Zm0,1.38h-1.27v-1.27h1.27Z"/><path class="cls-8" d="M581.58,315.27h-1.27V314h1.27Zm0,1.37h-1.27v-1.26h1.27Zm0,1.38h-1.27v-1.27h1.27Zm1.37-4.13h-1.26v-1.26H583Zm0,5.5h-1.26v-1.26H583Zm1.38-5.5h-1.27v-1.26h1.27Zm0,5.5h-1.27v-1.26h1.27Zm1.37-5.5h-1.26v-1.26h1.26Zm0,5.5h-1.26v-1.26h1.26Zm1.38-9.62h-1.27V308.5h1.27Zm0,1.37h-1.27v-1.26h1.27Zm0,1.38h-1.27v-1.27h1.27Zm0,1.37h-1.27v-1.26h1.27Zm0,1.38h-1.27V314h1.27Zm0,1.37h-1.27v-1.26h1.27Zm0,1.38h-1.27v-1.27h1.27Zm0,1.37h-1.27v-1.26h1.27Z"/><path class="cls-8" d="M591.2,315.27h-1.26V314h1.26Zm0,1.37h-1.26v-1.26h1.26Zm0,1.38h-1.26v-1.27h1.26Zm1.38-4.13h-1.27v-1.26h1.27Zm0,2.75h-1.27v-1.26h1.27Zm0,2.75h-1.27v-1.26h1.27Zm1.37-5.5h-1.26v-1.26H594Zm0,2.75h-1.26v-1.26H594Zm0,2.75h-1.26v-1.26H594Zm1.38-5.5h-1.27v-1.26h1.27Zm0,2.75h-1.27v-1.26h1.27Zm0,2.75h-1.27v-1.26h1.27Zm1.38-4.12h-1.27V314h1.27Zm0,1.37h-1.27v-1.26h1.27Zm0,2.75h-1.27v-1.26h1.27Z"/></g><g class="cls-4"><path class="cls-8" d="M316.2,332.64h-1.26v-1.26h1.26Zm1.38,0h-1.27v-1.26h1.27Zm1.37,0h-1.26v-1.26H319Zm1.38,0h-1.27v-1.26h1.27Z"/><path class="cls-8" d="M328.58,327.14h-1.27v-1.26h1.27Zm0,6.88h-1.27v-1.27h1.27Zm0,1.37h-1.27v-1.26h1.27Zm1.37-8.25h-1.26v-1.26H330Zm0,5.5h-1.26v-1.26H330Zm0,2.75h-1.26v-1.26H330Zm1.38-8.25h-1.27v-1.26h1.27Zm0,4.13h-1.27V330h1.27Zm0,4.12h-1.27v-1.26h1.27Zm1.37-8.25h-1.26v-1.26h1.26Zm0,4.13h-1.26V330h1.26Zm0,4.12h-1.26v-1.26h1.26Zm1.38-6.87h-1.27v-1.27h1.27Zm0,1.37h-1.27v-1.26h1.27Zm0,5.5h-1.27v-1.26h1.27Z"/><path class="cls-8" d="M338.2,329.89h-1.26v-1.26h1.26Zm0,1.38h-1.26V330h1.26Zm0,1.37h-1.26v-1.26h1.26Zm0,1.38h-1.26v-1.27h1.26Zm0,1.37h-1.26v-1.26h1.26Zm1.38-5.5h-1.27v-1.26h1.27Zm1.37,0h-1.26v-1.26H341Zm1.38,0h-1.27v-1.26h1.27Zm1.38,1.38h-1.27V330h1.27Zm0,1.37h-1.27v-1.26h1.27Zm0,1.38h-1.27v-1.27h1.27Zm0,1.37h-1.27v-1.26h1.27Z"/><path class="cls-8" d="M347.83,331.27h-1.27V330h1.27Zm0,1.37h-1.27v-1.26h1.27Zm0,1.38h-1.27v-1.27h1.27Zm1.37-4.13h-1.26v-1.26h1.26Zm0,5.5h-1.26v-1.26h1.26Zm1.38-5.5h-1.27v-1.26h1.27Zm0,5.5h-1.27v-1.26h1.27Zm1.37-5.5h-1.26v-1.26H352Zm0,5.5h-1.26v-1.26H352Zm1.38-9.62h-1.27V324.5h1.27Zm0,1.37h-1.27v-1.26h1.27Zm0,1.38h-1.27v-1.27h1.27Zm0,1.37h-1.27v-1.26h1.27Zm0,1.38h-1.27V330h1.27Zm0,1.37h-1.27v-1.26h1.27Zm0,1.38h-1.27v-1.27h1.27Zm0,1.37h-1.27v-1.26h1.27Z"/><path class="cls-8" d="M361.58,328.52h-1.27v-1.27h1.27Zm0,1.37h-1.27v-1.26h1.27Zm0,5.5h-1.27v-1.26h1.27Zm1.37-8.25h-1.26v-1.26H363Zm0,4.13h-1.26V330H363Zm0,4.12h-1.26v-1.26H363Zm1.38-8.25h-1.27v-1.26h1.27Zm0,4.13h-1.27V330h1.27Zm0,4.12h-1.27v-1.26h1.27Zm1.37-8.25h-1.26v-1.26h1.26Zm0,4.13h-1.26V330h1.26Zm0,4.12h-1.26v-1.26h1.26Zm1.38-8.25h-1.27v-1.26h1.27Zm0,5.5h-1.27v-1.26h1.27Zm0,1.38h-1.27v-1.27h1.27Z"/><path class="cls-8" d="M371.2,327.14h-1.26v-1.26h1.26Zm0,1.38h-1.26v-1.27h1.26Zm0,1.37h-1.26v-1.26h1.26Zm0,1.38h-1.26V330h1.26Zm0,1.37h-1.26v-1.26h1.26Zm0,1.38h-1.26v-1.27h1.26Zm0,1.37h-1.26v-1.26h1.26Zm1.38-8.25h-1.27v-1.26h1.27Zm0,4.13h-1.27V330h1.27Zm1.37-4.13h-1.26v-1.26H374Zm0,4.13h-1.26V330H374Zm1.38-4.13h-1.27v-1.26h1.27Zm0,4.13h-1.27V330h1.27Zm1.38-2.75h-1.27v-1.27h1.27Zm0,1.37h-1.27v-1.26h1.27Z"/><path class="cls-8" d="M380.83,327.14h-1.27v-1.26h1.27Zm0,8.25h-1.27v-1.26h1.27Zm1.37-8.25h-1.26v-1.26h1.26Zm0,1.38h-1.26v-1.27h1.26Zm0,1.37h-1.26v-1.26h1.26Zm0,1.38h-1.26V330h1.26Zm0,1.37h-1.26v-1.26h1.26Zm0,1.38h-1.26v-1.27h1.26Zm0,1.37h-1.26v-1.26h1.26Zm1.38-8.25h-1.27v-1.26h1.27Zm0,8.25h-1.27v-1.26h1.27Z"/><path class="cls-8" d="M391.83,334h-1.27v-1.27h1.27Zm1.37-4.13h-1.26v-1.26h1.26Zm0,2.75h-1.26v-1.26h1.26Zm0,2.75h-1.26v-1.26h1.26Zm1.38-5.5h-1.27v-1.26h1.27Zm0,2.75h-1.27v-1.26h1.27Zm0,2.75h-1.27v-1.26h1.27Zm1.37-5.5h-1.26v-1.26H396Zm0,2.75h-1.26v-1.26H396Zm0,2.75h-1.26v-1.26H396Zm1.38-4.12h-1.27V330h1.27Zm0,1.37h-1.27v-1.26h1.27Zm0,1.38h-1.27v-1.27h1.27Zm0,1.37h-1.27v-1.26h1.27Z"/><path class="cls-8" d="M401.45,329.89h-1.26v-1.26h1.26Zm0,1.38h-1.26V330h1.26Zm0,1.37h-1.26v-1.26h1.26Zm0,1.38h-1.26v-1.27h1.26Zm0,1.37h-1.26v-1.26h1.26Zm1.38-5.5h-1.27v-1.26h1.27Zm1.37,0h-1.26v-1.26h1.26Zm1.38,0h-1.27v-1.26h1.27Zm1.38,1.38h-1.27V330H407Zm0,1.37h-1.27v-1.26H407Zm0,1.38h-1.27v-1.27H407Zm0,1.37h-1.27v-1.26H407Z"/><path class="cls-8" d="M411.08,331.27h-1.27V330h1.27Zm0,1.37h-1.27v-1.26h1.27Zm0,1.38h-1.27v-1.27h1.27Zm1.37-4.13h-1.26v-1.26h1.26Zm0,5.5h-1.26v-1.26h1.26Zm1.38-5.5h-1.27v-1.26h1.27Zm0,5.5h-1.27v-1.26h1.27Zm1.37-5.5h-1.26v-1.26h1.26Zm0,5.5h-1.26v-1.26h1.26Zm1.38-9.62h-1.27V324.5h1.27Zm0,1.37h-1.27v-1.26h1.27Zm0,1.38h-1.27v-1.27h1.27Zm0,1.37h-1.27v-1.26h1.27Zm0,1.38h-1.27V330h1.27Zm0,1.37h-1.27v-1.26h1.27Zm0,1.38h-1.27v-1.27h1.27Zm0,1.37h-1.27v-1.26h1.27Z"/><path class="cls-8" d="M424.83,327.14h-1.27v-1.26h1.27Zm0,1.38h-1.27v-1.27h1.27Zm0,1.37h-1.27v-1.26h1.27Zm0,1.38h-1.27V330h1.27Zm0,1.37h-1.27v-1.26h1.27Zm0,1.38h-1.27v-1.27h1.27Zm1.37,1.37h-1.26v-1.26h1.26Zm1.38,0h-1.27v-1.26h1.27Zm1.37,0h-1.26v-1.26H429Zm1.38-8.25h-1.27v-1.26h1.27Zm0,1.38h-1.27v-1.27h1.27Zm0,1.37h-1.27v-1.26h1.27Zm0,1.38h-1.27V330h1.27Zm0,1.37h-1.27v-1.26h1.27Zm0,1.38h-1.27v-1.27h1.27Z"/><path class="cls-8" d="M434.45,328.52h-1.26v-1.27h1.26Zm0,1.37h-1.26v-1.26h1.26Zm0,1.38h-1.26V330h1.26Zm0,1.37h-1.26v-1.26h1.26Zm0,1.38h-1.26v-1.27h1.26Zm0,1.37h-1.26v-1.26h1.26Zm1.38-8.25h-1.27v-1.26h1.27Zm0,5.5h-1.27v-1.26h1.27Zm1.37-5.5h-1.26v-1.26h1.26Zm0,5.5h-1.26v-1.26h1.26Zm1.38-5.5h-1.27v-1.26h1.27Zm0,5.5h-1.27v-1.26h1.27Zm1.38-4.12h-1.27v-1.27H440Zm0,1.37h-1.27v-1.26H440Zm0,1.38h-1.27V330H440Zm0,1.37h-1.27v-1.26H440Zm0,1.38h-1.27v-1.27H440Zm0,1.37h-1.27v-1.26H440Z"/><path class="cls-8" d="M444.08,327.14h-1.27v-1.26h1.27Zm0,1.38h-1.27v-1.27h1.27Zm0,1.37h-1.27v-1.26h1.27Zm0,1.38h-1.27V330h1.27Zm0,1.37h-1.27v-1.26h1.27Zm0,1.38h-1.27v-1.27h1.27Zm0,1.37h-1.27v-1.26h1.27Zm1.37-8.25h-1.26v-1.26h1.26Zm0,4.13h-1.26V330h1.26Zm1.38-4.13h-1.27v-1.26h1.27Zm0,4.13h-1.27V330h1.27Zm0,1.37h-1.27v-1.26h1.27Zm1.37-5.5h-1.26v-1.26h1.26Zm0,4.13h-1.26V330h1.26Zm0,2.75h-1.26v-1.27h1.26Zm1.38-5.5h-1.27v-1.27h1.27Zm0,1.37h-1.27v-1.26h1.27Zm0,5.5h-1.27v-1.26h1.27Z"/><path class="cls-8" d="M452.33,327.14h-1.27v-1.26h1.27Zm1.37,0h-1.26v-1.26h1.26Zm1.38,0h-1.27v-1.26h1.27Zm0,1.38h-1.27v-1.27h1.27Zm0,1.37h-1.27v-1.26h1.27Zm0,1.38h-1.27V330h1.27Zm0,1.37h-1.27v-1.26h1.27Zm0,1.38h-1.27v-1.27h1.27Zm0,1.37h-1.27v-1.26h1.27Zm1.37-8.25h-1.26v-1.26h1.26Zm1.38,0h-1.27v-1.26h1.27Z"/></g></g></g><g id="Vector"><g id="Rectangle_156" data-name="Rectangle 156"><path class="cls-9" d="M156.17,322.65a1.5,1.5,0,1,1,0-3H166.9a5.21,5.21,0,0,0,1-.1,1.5,1.5,0,0,1,.61,2.93,7.48,7.48,0,0,1-1.57.17Zm-12,0h-12a1.5,1.5,0,1,1,0-3h12a1.5,1.5,0,0,1,0,3Zm-24,0h-12a1.5,1.5,0,0,1,0-3h12a1.5,1.5,0,1,1,0,3Zm-24,0h-12a1.5,1.5,0,0,1,0-3h12a1.5,1.5,0,1,1,0,3Zm-24,0h-12a1.5,1.5,0,0,1,0-3h12a1.5,1.5,0,1,1,0,3Zm-24,0h-12a1.5,1.5,0,0,1,0-3h12a1.5,1.5,0,1,1,0,3Zm-23-2.9a1.48,1.48,0,0,1-1.27-.71,7.56,7.56,0,0,1-1.14-4v-8.61a1.5,1.5,0,0,1,3,0V315a4.54,4.54,0,0,0,.69,2.43,1.5,1.5,0,0,1-.49,2.06A1.42,1.42,0,0,1,25.19,319.75ZM173,312.87a1.5,1.5,0,0,1-1.5-1.5v-9.89a4.62,4.62,0,0,0-.28-1.56,1.5,1.5,0,0,1,2.83-1,7.82,7.82,0,0,1,.45,2.58v9.89A1.51,1.51,0,0,1,173,312.87ZM27.92,297.39a1.5,1.5,0,0,1-.61-2.87,7.43,7.43,0,0,1,3.09-.66h12a1.5,1.5,0,0,1,0,3h-12a4.63,4.63,0,0,0-1.88.4A1.41,1.41,0,0,1,27.92,297.39Zm134.48-.53h-12a1.5,1.5,0,1,1,0-3h12a1.5,1.5,0,0,1,0,3Zm-24,0h-12a1.5,1.5,0,1,1,0-3h12a1.5,1.5,0,0,1,0,3Zm-24,0h-12a1.5,1.5,0,1,1,0-3h12a1.5,1.5,0,0,1,0,3Zm-24,0h-12a1.5,1.5,0,1,1,0-3h12a1.5,1.5,0,0,1,0,3Zm-24,0h-12a1.5,1.5,0,1,1,0-3h12a1.5,1.5,0,0,1,0,3Z"/></g><g id="Line_8" data-name="Line 8"><path class="cls-9" d="M181.48,309.24a1.5,1.5,0,1,1,0-3h12a1.5,1.5,0,0,1,0,3h-12Zm24,0a1.5,1.5,0,1,1,0-3h12a1.5,1.5,0,0,1,0,3h-12Zm24,0a1.5,1.5,0,1,1,0-3l12,0h0a1.5,1.5,0,0,1,0,3l-12,0Zm24,0a1.5,1.5,0,1,1,0-3l12,0h0a1.5,1.5,0,0,1,0,3l-12,0Zm24,0a1.5,1.5,0,0,1,0-3l12,0h0a1.5,1.5,0,0,1,0,3l-12,0Zm24,0a1.5,1.5,0,0,1,0-3h1.62a1.5,1.5,0,0,1,0,3h-1.62Z"/></g></g></g><g id="Data"><g id="Info-3"><g id="Data_Lines_-_Busses" data-name="Data Lines - Busses" class="cls-4"><g class="cls-4"><path class="cls-6" d="M318.41,4.8h-2.3V2.5h2.3Zm0,2.5h-2.3V5h2.3Zm0,2.5h-2.3V7.5h2.3Zm0,2.5h-2.3V10h2.3Zm0,2.5h-2.3V12.5h2.3Zm0,2.5h-2.3V15h2.3Zm0,2.5h-2.3V17.5h2.3Zm2.5-15h-2.3V2.5h2.3Zm0,15h-2.3V17.5h2.3Zm2.5-15h-2.3V2.5h2.3Zm0,15h-2.3V17.5h2.3Zm2.5-12.5h-2.3V5h2.3Zm0,10h-2.3V15h2.3Zm2.5-7.5h-2.3V7.5h2.3Zm0,2.5h-2.3V10h2.3Zm0,2.5h-2.3V12.5h2.3Z"/><path class="cls-6" d="M335.91,17.3h-2.3V15h2.3Zm2.5-7.5h-2.3V7.5h2.3Zm0,5h-2.3V12.5h2.3Zm0,5h-2.3V17.5h2.3Zm2.5-10h-2.3V7.5h2.3Zm0,5h-2.3V12.5h2.3Zm0,5h-2.3V17.5h2.3Zm2.5-10h-2.3V7.5h2.3Zm0,5h-2.3V12.5h2.3Zm0,5h-2.3V17.5h2.3Zm2.5-7.5h-2.3V10h2.3Zm0,2.5h-2.3V12.5h2.3Zm0,2.5h-2.3V15h2.3Zm0,2.5h-2.3V17.5h2.3Z"/><path class="cls-6" d="M353.41,4.8h-2.3V2.5h2.3Zm0,2.5h-2.3V5h2.3Zm0,2.5h-2.3V7.5h2.3Zm0,2.5h-2.3V10h2.3Zm0,2.5h-2.3V12.5h2.3Zm0,2.5h-2.3V15h2.3Zm2.5-7.5h-2.3V7.5h2.3Zm0,10h-2.3V17.5h2.3Zm2.5-10h-2.3V7.5h2.3Zm0,10h-2.3V17.5h2.3Zm2.5-10h-2.3V7.5h2.3Zm0,10h-2.3V17.5h2.3Z"/><path class="cls-6" d="M365.91,17.3h-2.3V15h2.3Zm2.5-7.5h-2.3V7.5h2.3Zm0,5h-2.3V12.5h2.3Zm0,5h-2.3V17.5h2.3Zm2.5-10h-2.3V7.5h2.3Zm0,5h-2.3V12.5h2.3Zm0,5h-2.3V17.5h2.3Zm2.5-10h-2.3V7.5h2.3Zm0,5h-2.3V12.5h2.3Zm0,5h-2.3V17.5h2.3Zm2.5-7.5h-2.3V10h2.3Zm0,2.5h-2.3V12.5h2.3Zm0,2.5h-2.3V15h2.3Zm0,2.5h-2.3V17.5h2.3Z"/><path class="cls-6" d="M390.91,4.8h-2.3V2.5h2.3Zm0,2.5h-2.3V5h2.3Zm0,2.5h-2.3V7.5h2.3Zm0,2.5h-2.3V10h2.3Zm0,2.5h-2.3V12.5h2.3Zm0,2.5h-2.3V15h2.3Zm0,2.5h-2.3V17.5h2.3Zm2.5,0h-2.3V17.5h2.3Zm2.5,0h-2.3V17.5h2.3Zm2.5,0h-2.3V17.5h2.3Zm2.5,0h-2.3V17.5h2.3Z"/><path class="cls-6" d="M405.91,2.3h-2.3V0h2.3Zm0,7.5h-2.3V7.5h2.3Zm0,2.5h-2.3V10h2.3Zm0,2.5h-2.3V12.5h2.3Zm0,2.5h-2.3V15h2.3Zm0,2.5h-2.3V17.5h2.3Z"/><path class="cls-6" d="M413.41,9.8h-2.3V7.5h2.3Zm0,2.5h-2.3V10h2.3Zm0,2.5h-2.3V12.5h2.3Zm0,2.5h-2.3V15h2.3Zm0,2.5h-2.3V17.5h2.3Zm2.5-10h-2.3V7.5h2.3Zm2.5,0h-2.3V7.5h2.3Zm2.5,0h-2.3V7.5h2.3Zm2.5,2.5h-2.3V10h2.3Zm0,2.5h-2.3V12.5h2.3Zm0,2.5h-2.3V15h2.3Zm0,2.5h-2.3V17.5h2.3Z"/><path class="cls-6" d="M430.91,12.3h-2.3V10h2.3Zm0,2.5h-2.3V12.5h2.3Zm0,2.5h-2.3V15h2.3Zm2.5-7.5h-2.3V7.5h2.3Zm0,5h-2.3V12.5h2.3Zm0,5h-2.3V17.5h2.3Zm2.5-10h-2.3V7.5h2.3Zm0,5h-2.3V12.5h2.3Zm0,5h-2.3V17.5h2.3Zm2.5-10h-2.3V7.5h2.3Zm0,5h-2.3V12.5h2.3Zm0,5h-2.3V17.5h2.3Zm2.5-7.5h-2.3V10h2.3Zm0,2.5h-2.3V12.5h2.3Zm0,5h-2.3V17.5h2.3Z"/><path class="cls-6" d="M448.41,12.3h-2.3V10h2.3Zm0,7.5h-2.3V17.5h2.3Zm2.5-10h-2.3V7.5h2.3Zm0,5h-2.3V12.5h2.3Zm0,5h-2.3V17.5h2.3Zm2.5-10h-2.3V7.5h2.3Zm0,5h-2.3V12.5h2.3Zm0,5h-2.3V17.5h2.3Zm2.5-10h-2.3V7.5h2.3Zm0,7.5h-2.3V15h2.3Z"/><path class="cls-6" d="M470.91,14.8h-2.3V12.5h2.3Zm2.5,0h-2.3V12.5h2.3Zm2.5,0h-2.3V12.5h2.3Zm2.5,0h-2.3V12.5h2.3Z"/><path class="cls-6" d="M493.41,4.8h-2.3V2.5h2.3Zm0,2.5h-2.3V5h2.3Zm0,2.5h-2.3V7.5h2.3Zm0,2.5h-2.3V10h2.3Zm0,2.5h-2.3V12.5h2.3Zm0,2.5h-2.3V15h2.3Zm0,2.5h-2.3V17.5h2.3Zm2.5-15h-2.3V2.5h2.3Zm0,7.5h-2.3V10h2.3Zm0,7.5h-2.3V17.5h2.3Zm2.5-15h-2.3V2.5h2.3Zm0,7.5h-2.3V10h2.3Zm0,7.5h-2.3V17.5h2.3Zm2.5-15h-2.3V2.5h2.3Zm0,7.5h-2.3V10h2.3Zm0,7.5h-2.3V17.5h2.3Zm2.5-12.5h-2.3V5h2.3Zm0,2.5h-2.3V7.5h2.3Zm0,5h-2.3V12.5h2.3Zm0,2.5h-2.3V15h2.3Z"/><path class="cls-6" d="M510.91,9.8h-2.3V7.5h2.3Zm0,2.5h-2.3V10h2.3Zm0,2.5h-2.3V12.5h2.3Zm0,2.5h-2.3V15h2.3Zm2.5,2.5h-2.3V17.5h2.3Zm2.5,0h-2.3V17.5h2.3Zm2.5,0h-2.3V17.5h2.3Zm2.5-10h-2.3V7.5h2.3Zm0,2.5h-2.3V10h2.3Zm0,2.5h-2.3V12.5h2.3Zm0,2.5h-2.3V15h2.3Zm0,2.5h-2.3V17.5h2.3Z"/><path class="cls-6" d="M528.41,12.3h-2.3V10h2.3Zm0,7.5h-2.3V17.5h2.3Zm2.5-10h-2.3V7.5h2.3Zm0,5h-2.3V12.5h2.3Zm0,5h-2.3V17.5h2.3Zm2.5-10h-2.3V7.5h2.3Zm0,5h-2.3V12.5h2.3Zm0,5h-2.3V17.5h2.3Zm2.5-10h-2.3V7.5h2.3Zm0,7.5h-2.3V15h2.3Z"/><path class="cls-6" d="M543.41,12.3h-2.3V10h2.3Zm0,7.5h-2.3V17.5h2.3Zm2.5-10h-2.3V7.5h2.3Zm0,5h-2.3V12.5h2.3Zm0,5h-2.3V17.5h2.3Zm2.5-10h-2.3V7.5h2.3Zm0,5h-2.3V12.5h2.3Zm0,5h-2.3V17.5h2.3Zm2.5-10h-2.3V7.5h2.3Zm0,7.5h-2.3V15h2.3Z"/><path class="cls-6" d="M558.41,12.3h-2.3V10h2.3Zm0,2.5h-2.3V12.5h2.3Zm0,2.5h-2.3V15h2.3Zm2.5-7.5h-2.3V7.5h2.3Zm0,5h-2.3V12.5h2.3Zm0,5h-2.3V17.5h2.3Zm2.5-10h-2.3V7.5h2.3Zm0,5h-2.3V12.5h2.3Zm0,5h-2.3V17.5h2.3Zm2.5-10h-2.3V7.5h2.3Zm0,5h-2.3V12.5h2.3Zm0,5h-2.3V17.5h2.3Zm2.5-7.5h-2.3V10h2.3Zm0,2.5h-2.3V12.5h2.3Zm0,5h-2.3V17.5h2.3Z"/><path class="cls-6" d="M575.91,12.3h-2.3V10h2.3Zm0,7.5h-2.3V17.5h2.3Zm2.5-10h-2.3V7.5h2.3Zm0,5h-2.3V12.5h2.3Zm0,5h-2.3V17.5h2.3Zm2.5-10h-2.3V7.5h2.3Zm0,5h-2.3V12.5h2.3Zm0,5h-2.3V17.5h2.3Zm2.5-10h-2.3V7.5h2.3Zm0,7.5h-2.3V15h2.3Z"/></g></g><g id="Path_1" data-name="Path 1"><rect class="cls-7" x="313.51" y="30.67" width="300.9" height="1"/></g><g id="_-_All_GPIO_pins_-_Both_SPI_UART_interfaces_-_Both_I2C_and_I2S_interfaces_-_Both_DAC_pins" data-name=" - All GPIO pins - Both SPI UART interfaces - Both I2C and I2S interfaces - Both DAC pins" class="cls-4"><g class="cls-4"><path class="cls-8" d="M316.2,48.14h-1.26V46.87h1.26Zm1.38,0h-1.27V46.87h1.27Zm1.37,0h-1.26V46.87H319Zm1.38,0h-1.27V46.87h1.27Z"/><path class="cls-8" d="M328.58,44h-1.27V42.75h1.27Zm0,1.38h-1.27V44.12h1.27Zm0,1.37h-1.27V45.5h1.27Zm0,1.38h-1.27V46.87h1.27Zm0,1.37h-1.27V48.25h1.27Zm0,1.38h-1.27V49.62h1.27ZM330,42.64h-1.26V41.37H330Zm0,5.5h-1.26V46.87H330Zm1.38-5.5h-1.27V41.37h1.27Zm0,5.5h-1.27V46.87h1.27Zm1.37-5.5h-1.26V41.37h1.26Zm0,5.5h-1.26V46.87h1.26ZM334.08,44h-1.27V42.75h1.27Zm0,1.38h-1.27V44.12h1.27Zm0,1.37h-1.27V45.5h1.27Zm0,1.38h-1.27V46.87h1.27Zm0,1.37h-1.27V48.25h1.27Zm0,1.38h-1.27V49.62h1.27Z"/><path class="cls-8" d="M338.2,41.26h-1.26V40h1.26Zm0,1.38h-1.26V41.37h1.26Zm0,1.37h-1.26V42.75h1.26Zm0,1.38h-1.26V44.12h1.26Zm0,1.37h-1.26V45.5h1.26Zm0,1.38h-1.26V46.87h1.26Zm0,1.37h-1.26V48.25h1.26Zm1.38,1.38h-1.27V49.62h1.27Zm1.37,0h-1.26V49.62H341Z"/><path class="cls-8" d="M343.7,41.26h-1.26V40h1.26Zm0,1.38h-1.26V41.37h1.26Zm0,1.37h-1.26V42.75h1.26Zm0,1.38h-1.26V44.12h1.26Zm0,1.37h-1.26V45.5h1.26Zm0,1.38h-1.26V46.87h1.26Zm0,1.37h-1.26V48.25h1.26Zm1.38,1.38h-1.27V49.62h1.27Zm1.37,0h-1.26V49.62h1.26Z"/><path class="cls-8" d="M353.33,44h-1.27V42.75h1.27Zm0,1.38h-1.27V44.12h1.27Zm0,1.37h-1.27V45.5h1.27Zm0,1.38h-1.27V46.87h1.27Zm0,1.37h-1.27V48.25h1.27Zm1.37-6.87h-1.26V41.37h1.26Zm0,8.25h-1.26V49.62h1.26Zm1.38-8.25h-1.27V41.37h1.27Zm0,8.25h-1.27V49.62h1.27Zm1.37-8.25h-1.26V41.37h1.26Zm0,5.5h-1.26V46.87h1.26Zm0,2.75h-1.26V49.62h1.26Zm1.38-8.25h-1.27V41.37h1.27Zm0,5.5h-1.27V46.87h1.27Zm0,1.37h-1.27V48.25h1.27Z"/><path class="cls-8" d="M363,42.64h-1.26V41.37H363ZM363,44h-1.26V42.75H363Zm0,1.38h-1.26V44.12H363Zm0,1.37h-1.26V45.5H363Zm0,1.38h-1.26V46.87H363Zm0,1.37h-1.26V48.25H363Zm0,1.38h-1.26V49.62H363Zm1.38-8.25h-1.27V41.37h1.27Zm0,4.12h-1.27V45.5h1.27Zm1.37-4.12h-1.26V41.37h1.26Zm0,4.12h-1.26V45.5h1.26Zm1.38-4.12h-1.27V41.37h1.27Zm0,4.12h-1.27V45.5h1.27ZM368.46,44h-1.27V42.75h1.27Zm0,1.38h-1.27V44.12h1.27Z"/><path class="cls-8" d="M372.58,42.64h-1.27V41.37h1.27Zm0,8.25h-1.27V49.62h1.27ZM374,42.64h-1.26V41.37H374ZM374,44h-1.26V42.75H374Zm0,1.38h-1.26V44.12H374Zm0,1.37h-1.26V45.5H374Zm0,1.38h-1.26V46.87H374Zm0,1.37h-1.26V48.25H374Zm0,1.38h-1.26V49.62H374Zm1.38-8.25h-1.27V41.37h1.27Zm0,8.25h-1.27V49.62h1.27Z"/><path class="cls-8" d="M379.45,44h-1.26V42.75h1.26Zm0,1.38h-1.26V44.12h1.26Zm0,1.37h-1.26V45.5h1.26Zm0,1.38h-1.26V46.87h1.26Zm0,1.37h-1.26V48.25h1.26Zm1.38-6.87h-1.27V41.37h1.27Zm0,8.25h-1.27V49.62h1.27Zm1.37-8.25h-1.26V41.37h1.26Zm0,8.25h-1.26V49.62h1.26Zm1.38-8.25h-1.27V41.37h1.27Zm0,8.25h-1.27V49.62h1.27ZM385,44h-1.27V42.75H385Zm0,1.38h-1.27V44.12H385Zm0,1.37h-1.27V45.5H385Zm0,1.38h-1.27V46.87H385Zm0,1.37h-1.27V48.25H385Z"/><path class="cls-8" d="M393.2,45.39h-1.26V44.12h1.26Zm0,1.37h-1.26V45.5h1.26Zm0,1.38h-1.26V46.87h1.26Zm0,1.37h-1.26V48.25h1.26Zm0,1.38h-1.26V49.62h1.26Zm0,1.37h-1.26V51h1.26Zm0,1.38h-1.26V52.37h1.26Zm1.38-8.25h-1.27V44.12h1.27Zm0,5.5h-1.27V49.62h1.27Zm1.37-5.5h-1.26V44.12H396Zm0,5.5h-1.26V49.62H396Zm1.38-5.5h-1.27V44.12h1.27Zm0,5.5h-1.27V49.62h1.27Zm1.38-4.13h-1.27V45.5h1.27Zm0,1.38h-1.27V46.87h1.27Zm0,1.37h-1.27V48.25h1.27Z"/><path class="cls-8" d="M402.83,41.26h-1.27V40h1.27Zm0,4.13h-1.27V44.12h1.27Zm0,1.37h-1.27V45.5h1.27Zm0,1.38h-1.27V46.87h1.27Zm0,1.37h-1.27V48.25h1.27Zm0,1.38h-1.27V49.62h1.27Z"/><path class="cls-8" d="M407,45.39h-1.26V44.12H407Zm0,1.37h-1.26V45.5H407Zm0,1.38h-1.26V46.87H407Zm0,1.37h-1.26V48.25H407Zm0,1.38h-1.26V49.62H407Zm1.38-5.5h-1.27V44.12h1.27Zm1.37,0h-1.26V44.12h1.26Zm1.38,0h-1.27V44.12h1.27Zm1.38,1.37h-1.27V45.5h1.27Zm0,1.38h-1.27V46.87h1.27Zm0,1.37h-1.27V48.25h1.27Zm0,1.38h-1.27V49.62h1.27Z"/><path class="cls-8" d="M416.58,46.76h-1.27V45.5h1.27Zm0,4.13h-1.27V49.62h1.27Zm1.37-5.5h-1.26V44.12H418Zm0,2.75h-1.26V46.87H418Zm0,2.75h-1.26V49.62H418Zm1.38-5.5h-1.27V44.12h1.27Zm0,2.75h-1.27V46.87h1.27Zm0,2.75h-1.27V49.62h1.27Zm1.37-5.5h-1.26V44.12h1.26Zm0,4.12h-1.26V48.25h1.26Z"/></g><g class="cls-4"><path class="cls-8" d="M316.2,64.14h-1.26V62.87h1.26Zm1.38,0h-1.27V62.87h1.27Zm1.37,0h-1.26V62.87H319Zm1.38,0h-1.27V62.87h1.27Z"/><path class="cls-8" d="M328.58,58.64h-1.27V57.37h1.27Zm0,1.37h-1.27V58.75h1.27Zm0,1.38h-1.27V60.12h1.27Zm0,1.37h-1.27V61.5h1.27Zm0,1.38h-1.27V62.87h1.27Zm0,1.37h-1.27V64.25h1.27Zm0,1.38h-1.27V65.62h1.27ZM330,58.64h-1.26V57.37H330Zm0,4.12h-1.26V61.5H330Zm0,4.13h-1.26V65.62H330Zm1.38-8.25h-1.27V57.37h1.27Zm0,4.12h-1.27V61.5h1.27Zm0,4.13h-1.27V65.62h1.27Zm1.37-8.25h-1.26V57.37h1.26Zm0,4.12h-1.26V61.5h1.26Zm0,4.13h-1.26V65.62h1.26ZM334.08,60h-1.27V58.75h1.27Zm0,1.38h-1.27V60.12h1.27Zm0,2.75h-1.27V62.87h1.27Zm0,1.37h-1.27V64.25h1.27Z"/><path class="cls-8" d="M338.2,62.76h-1.26V61.5h1.26Zm0,1.38h-1.26V62.87h1.26Zm0,1.37h-1.26V64.25h1.26Zm1.38-4.12h-1.27V60.12h1.27Zm0,5.5h-1.27V65.62h1.27Zm1.37-5.5h-1.26V60.12H341Zm0,5.5h-1.26V65.62H341Zm1.38-5.5h-1.27V60.12h1.27Zm0,5.5h-1.27V65.62h1.27Zm1.38-4.13h-1.27V61.5h1.27Zm0,1.38h-1.27V62.87h1.27Zm0,1.37h-1.27V64.25h1.27Z"/><path class="cls-8" d="M347.83,58.64h-1.27V57.37h1.27Zm0,1.37h-1.27V58.75h1.27Zm0,1.38h-1.27V60.12h1.27Zm0,1.37h-1.27V61.5h1.27Zm0,1.38h-1.27V62.87h1.27Zm0,1.37h-1.27V64.25h1.27Zm1.37-4.12h-1.26V60.12h1.26Zm0,5.5h-1.26V65.62h1.26Zm1.38-5.5h-1.27V60.12h1.27Zm0,5.5h-1.27V65.62h1.27Zm1.37-5.5h-1.26V60.12H352Zm0,5.5h-1.26V65.62H352Z"/><path class="cls-8" d="M356.08,57.26h-1.27V56h1.27Zm0,1.38h-1.27V57.37h1.27Zm0,1.37h-1.27V58.75h1.27Zm0,1.38h-1.27V60.12h1.27Zm0,1.37h-1.27V61.5h1.27Zm0,1.38h-1.27V62.87h1.27Zm0,1.37h-1.27V64.25h1.27Zm0,1.38h-1.27V65.62h1.27Zm1.37-5.5h-1.26V60.12h1.26Zm1.38,0h-1.27V60.12h1.27Zm1.37,0h-1.26V60.12h1.26Zm1.38,1.37h-1.27V61.5h1.27Zm0,1.38h-1.27V62.87h1.27Zm0,1.37h-1.27V64.25h1.27Zm0,1.38h-1.27V65.62h1.27Z"/><path class="cls-8" d="M369.83,60h-1.27V58.75h1.27Zm0,1.38h-1.27V60.12h1.27Zm0,5.5h-1.27V65.62h1.27Zm1.37-8.25h-1.26V57.37h1.26Zm0,4.12h-1.26V61.5h1.26Zm0,4.13h-1.26V65.62h1.26Zm1.38-8.25h-1.27V57.37h1.27Zm0,4.12h-1.27V61.5h1.27Zm0,4.13h-1.27V65.62h1.27ZM374,58.64h-1.26V57.37H374Zm0,4.12h-1.26V61.5H374Zm0,4.13h-1.26V65.62H374Zm1.38-8.25h-1.27V57.37h1.27Zm0,5.5h-1.27V62.87h1.27Zm0,1.37h-1.27V64.25h1.27Z"/><path class="cls-8" d="M379.45,58.64h-1.26V57.37h1.26Zm0,1.37h-1.26V58.75h1.26Zm0,1.38h-1.26V60.12h1.26Zm0,1.37h-1.26V61.5h1.26Zm0,1.38h-1.26V62.87h1.26Zm0,1.37h-1.26V64.25h1.26Zm0,1.38h-1.26V65.62h1.26Zm1.38-8.25h-1.27V57.37h1.27Zm0,4.12h-1.27V61.5h1.27Zm1.37-4.12h-1.26V57.37h1.26Zm0,4.12h-1.26V61.5h1.26Zm1.38-4.12h-1.27V57.37h1.27Zm0,4.12h-1.27V61.5h1.27ZM385,60h-1.27V58.75H385Zm0,1.38h-1.27V60.12H385Z"/><path class="cls-8" d="M389.08,58.64h-1.27V57.37h1.27Zm0,8.25h-1.27V65.62h1.27Zm1.37-8.25h-1.26V57.37h1.26Zm0,1.37h-1.26V58.75h1.26Zm0,1.38h-1.26V60.12h1.26Zm0,1.37h-1.26V61.5h1.26Zm0,1.38h-1.26V62.87h1.26Zm0,1.37h-1.26V64.25h1.26Zm0,1.38h-1.26V65.62h1.26Zm1.38-8.25h-1.27V57.37h1.27Zm0,8.25h-1.27V65.62h1.27Z"/><path class="cls-8" d="M400.08,60h-1.27V58.75h1.27Zm0,1.38h-1.27V60.12h1.27Zm0,2.75h-1.27V62.87h1.27Zm0,1.37h-1.27V64.25h1.27Zm1.37-6.87h-1.26V57.37h1.26Zm0,4.12h-1.26V61.5h1.26Zm0,4.13h-1.26V65.62h1.26Zm1.38-8.25h-1.27V57.37h1.27Zm0,4.12h-1.27V61.5h1.27Zm0,4.13h-1.27V65.62h1.27Zm1.37-8.25h-1.26V57.37h1.26Zm0,8.25h-1.26V65.62h1.26Zm1.38-4.13h-1.27V61.5h1.27Zm0,1.38h-1.27V62.87h1.27Zm0,1.37h-1.27V64.25h1.27ZM407,62.76h-1.27V61.5H407Zm1.37,0h-1.26V61.5h1.26Z"/><path class="cls-8" d="M415.2,58.64h-1.26V57.37h1.26Zm0,1.37h-1.26V58.75h1.26Zm0,1.38h-1.26V60.12h1.26Zm0,1.37h-1.26V61.5h1.26Zm0,1.38h-1.26V62.87h1.26Zm0,1.37h-1.26V64.25h1.26Zm1.38,1.38h-1.27V65.62h1.27Zm1.37,0h-1.26V65.62H418Zm1.38,0h-1.27V65.62h1.27Zm1.38-8.25h-1.27V57.37h1.27Zm0,1.37h-1.27V58.75h1.27Zm0,1.38h-1.27V60.12h1.27Zm0,1.37h-1.27V61.5h1.27Zm0,1.38h-1.27V62.87h1.27Zm0,1.37h-1.27V64.25h1.27Z"/><path class="cls-8" d="M424.83,60h-1.27V58.75h1.27Zm0,1.38h-1.27V60.12h1.27Zm0,1.37h-1.27V61.5h1.27Zm0,1.38h-1.27V62.87h1.27Zm0,1.37h-1.27V64.25h1.27Zm0,1.38h-1.27V65.62h1.27Zm1.37-8.25h-1.26V57.37h1.26Zm0,5.5h-1.26V62.87h1.26Zm1.38-5.5h-1.27V57.37h1.27Zm0,5.5h-1.27V62.87h1.27Zm1.37-5.5h-1.26V57.37H429Zm0,5.5h-1.26V62.87H429ZM430.33,60h-1.27V58.75h1.27Zm0,1.38h-1.27V60.12h1.27Zm0,1.37h-1.27V61.5h1.27Zm0,1.38h-1.27V62.87h1.27Zm0,1.37h-1.27V64.25h1.27Zm0,1.38h-1.27V65.62h1.27Z"/><path class="cls-8" d="M434.45,58.64h-1.26V57.37h1.26Zm0,1.37h-1.26V58.75h1.26Zm0,1.38h-1.26V60.12h1.26Zm0,1.37h-1.26V61.5h1.26Zm0,1.38h-1.26V62.87h1.26Zm0,1.37h-1.26V64.25h1.26Zm0,1.38h-1.26V65.62h1.26Zm1.38-8.25h-1.27V57.37h1.27Zm0,4.12h-1.27V61.5h1.27Zm1.37-4.12h-1.26V57.37h1.26Zm0,4.12h-1.26V61.5h1.26Zm0,1.38h-1.26V62.87h1.26Zm1.38-5.5h-1.27V57.37h1.27Zm0,4.12h-1.27V61.5h1.27Zm0,2.75h-1.27V64.25h1.27ZM440,60h-1.27V58.75H440Zm0,1.38h-1.27V60.12H440Zm0,5.5h-1.27V65.62H440Z"/><path class="cls-8" d="M442.7,58.64h-1.26V57.37h1.26Zm1.38,0h-1.27V57.37h1.27Zm1.37,0h-1.26V57.37h1.26Zm0,1.37h-1.26V58.75h1.26Zm0,1.38h-1.26V60.12h1.26Zm0,1.37h-1.26V61.5h1.26Zm0,1.38h-1.26V62.87h1.26Zm0,1.37h-1.26V64.25h1.26Zm0,1.38h-1.26V65.62h1.26Zm1.38-8.25h-1.27V57.37h1.27Zm1.37,0h-1.26V57.37h1.26Z"/><path class="cls-8" d="M455.08,57.26h-1.27V56h1.27Zm0,4.13h-1.27V60.12h1.27Zm0,1.37h-1.27V61.5h1.27Zm0,1.38h-1.27V62.87h1.27Zm0,1.37h-1.27V64.25h1.27Zm0,1.38h-1.27V65.62h1.27Z"/><path class="cls-8" d="M459.2,61.39h-1.26V60.12h1.26Zm0,1.37h-1.26V61.5h1.26Zm0,1.38h-1.26V62.87h1.26Zm0,1.37h-1.26V64.25h1.26Zm0,1.38h-1.26V65.62h1.26Zm1.38-5.5h-1.27V60.12h1.27Zm1.37,0h-1.26V60.12H462Zm1.38,0h-1.27V60.12h1.27Zm1.38,1.37h-1.27V61.5h1.27Zm0,1.38h-1.27V62.87h1.27Zm0,1.37h-1.27V64.25h1.27Zm0,1.38h-1.27V65.62h1.27Z"/><path class="cls-8" d="M468.83,58.64h-1.27V57.37h1.27Zm0,1.37h-1.27V58.75h1.27Zm0,1.38h-1.27V60.12h1.27Zm0,1.37h-1.27V61.5h1.27Zm0,1.38h-1.27V62.87h1.27Zm0,1.37h-1.27V64.25h1.27Zm1.37-4.12h-1.26V60.12h1.26Zm0,5.5h-1.26V65.62h1.26Zm1.38-5.5h-1.27V60.12h1.27Zm0,5.5h-1.27V65.62h1.27Zm1.37-5.5h-1.26V60.12H473Zm0,5.5h-1.26V65.62H473Z"/><path class="cls-8" d="M477.08,62.76h-1.27V61.5h1.27Zm0,1.38h-1.27V62.87h1.27Zm0,1.37h-1.27V64.25h1.27Zm1.37-4.12h-1.26V60.12h1.26Zm0,2.75h-1.26V62.87h1.26Zm0,2.75h-1.26V65.62h1.26Zm1.38-5.5h-1.27V60.12h1.27Zm0,2.75h-1.27V62.87h1.27Zm0,2.75h-1.27V65.62h1.27Zm1.37-5.5h-1.26V60.12h1.26Zm0,2.75h-1.26V62.87h1.26Zm0,2.75h-1.26V65.62h1.26Zm1.38-4.13h-1.27V61.5h1.27Zm0,1.38h-1.27V62.87h1.27Zm0,2.75h-1.27V65.62h1.27Z"/><path class="cls-8" d="M486.7,61.39h-1.26V60.12h1.26Zm0,1.37h-1.26V61.5h1.26Zm0,1.38h-1.26V62.87h1.26Zm0,1.37h-1.26V64.25h1.26Zm0,1.38h-1.26V65.62h1.26Zm1.38-4.13h-1.27V61.5h1.27Zm1.37-1.37h-1.26V60.12h1.26Zm1.38,0h-1.27V60.12h1.27Z"/><path class="cls-8" d="M492.2,61.39h-1.26V60.12h1.26Zm1.38,0h-1.27V60.12h1.27ZM495,58.64h-1.26V57.37H495ZM495,60h-1.26V58.75H495Zm0,1.38h-1.26V60.12H495Zm0,1.37h-1.26V61.5H495Zm0,1.38h-1.26V62.87H495Zm0,1.37h-1.26V64.25H495Zm0,1.38h-1.26V65.62H495Zm1.38-9.63h-1.27V56h1.27Zm0,4.13h-1.27V60.12h1.27Zm1.37-4.13h-1.26V56h1.26Zm0,4.13h-1.26V60.12h1.26Zm1.38-4.13h-1.27V56h1.27Z"/><path class="cls-8" d="M500.45,65.51h-1.26V64.25h1.26Zm1.38-4.12h-1.27V60.12h1.27Zm0,2.75h-1.27V62.87h1.27Zm0,2.75h-1.27V65.62h1.27Zm1.37-5.5h-1.26V60.12h1.26Zm0,2.75h-1.26V62.87h1.26Zm0,2.75h-1.26V65.62h1.26Zm1.38-5.5h-1.27V60.12h1.27Zm0,2.75h-1.27V62.87h1.27Zm0,2.75h-1.27V65.62h1.27ZM506,62.76h-1.27V61.5H506Zm0,1.38h-1.27V62.87H506Zm0,1.37h-1.27V64.25H506Zm0,1.38h-1.27V65.62H506Z"/><path class="cls-8" d="M510.08,62.76h-1.27V61.5h1.27Zm0,1.38h-1.27V62.87h1.27Zm0,1.37h-1.27V64.25h1.27Zm1.37-4.12h-1.26V60.12h1.26Zm0,5.5h-1.26V65.62h1.26Zm1.38-5.5h-1.27V60.12h1.27Zm0,5.5h-1.27V65.62h1.27Zm1.37-5.5h-1.26V60.12h1.26Zm0,5.5h-1.26V65.62h1.26Zm1.38-5.5h-1.27V60.12h1.27Zm0,5.5h-1.27V65.62h1.27Z"/><path class="cls-8" d="M519.7,62.76h-1.26V61.5h1.26Zm0,1.38h-1.26V62.87h1.26Zm0,1.37h-1.26V64.25h1.26Zm1.38-4.12h-1.27V60.12h1.27Zm0,2.75h-1.27V62.87h1.27Zm0,2.75h-1.27V65.62h1.27Zm1.37-5.5h-1.26V60.12h1.26Zm0,2.75h-1.26V62.87h1.26Zm0,2.75h-1.26V65.62h1.26Zm1.38-5.5h-1.27V60.12h1.27Zm0,2.75h-1.27V62.87h1.27Zm0,2.75h-1.27V65.62h1.27Zm1.38-4.13h-1.27V61.5h1.27Zm0,1.38h-1.27V62.87h1.27Zm0,2.75h-1.27V65.62h1.27Z"/><path class="cls-8" d="M529.33,62.76h-1.27V61.5h1.27Zm0,4.13h-1.27V65.62h1.27Zm1.37-5.5h-1.26V60.12h1.26Zm0,2.75h-1.26V62.87h1.26Zm0,2.75h-1.26V65.62h1.26Zm1.38-5.5h-1.27V60.12h1.27Zm0,2.75h-1.27V62.87h1.27Zm0,2.75h-1.27V65.62h1.27Zm1.37-5.5h-1.26V60.12h1.26Zm0,4.12h-1.26V64.25h1.26Z"/></g><g class="cls-4"><path class="cls-8" d="M316.2,80.14h-1.26V78.87h1.26Zm1.38,0h-1.27V78.87h1.27Zm1.37,0h-1.26V78.87H319Zm1.38,0h-1.27V78.87h1.27Z"/><path class="cls-8" d="M328.58,74.64h-1.27V73.37h1.27Zm0,1.37h-1.27V74.75h1.27Zm0,1.38h-1.27V76.12h1.27Zm0,1.37h-1.27V77.5h1.27Zm0,1.38h-1.27V78.87h1.27Zm0,1.37h-1.27V80.25h1.27Zm0,1.38h-1.27V81.62h1.27ZM330,74.64h-1.26V73.37H330Zm0,4.12h-1.26V77.5H330Zm0,4.13h-1.26V81.62H330Zm1.38-8.25h-1.27V73.37h1.27Zm0,4.12h-1.27V77.5h1.27Zm0,4.13h-1.27V81.62h1.27Zm1.37-8.25h-1.26V73.37h1.26Zm0,4.12h-1.26V77.5h1.26Zm0,4.13h-1.26V81.62h1.26ZM334.08,76h-1.27V74.75h1.27Zm0,1.38h-1.27V76.12h1.27Zm0,2.75h-1.27V78.87h1.27Zm0,1.37h-1.27V80.25h1.27Z"/><path class="cls-8" d="M338.2,78.76h-1.26V77.5h1.26Zm0,1.38h-1.26V78.87h1.26Zm0,1.37h-1.26V80.25h1.26Zm1.38-4.12h-1.27V76.12h1.27Zm0,5.5h-1.27V81.62h1.27Zm1.37-5.5h-1.26V76.12H341Zm0,5.5h-1.26V81.62H341Zm1.38-5.5h-1.27V76.12h1.27Zm0,5.5h-1.27V81.62h1.27Zm1.38-4.13h-1.27V77.5h1.27Zm0,1.38h-1.27V78.87h1.27Zm0,1.37h-1.27V80.25h1.27Z"/><path class="cls-8" d="M347.83,74.64h-1.27V73.37h1.27Zm0,1.37h-1.27V74.75h1.27Zm0,1.38h-1.27V76.12h1.27Zm0,1.37h-1.27V77.5h1.27Zm0,1.38h-1.27V78.87h1.27Zm0,1.37h-1.27V80.25h1.27Zm1.37-4.12h-1.26V76.12h1.26Zm0,5.5h-1.26V81.62h1.26Zm1.38-5.5h-1.27V76.12h1.27Zm0,5.5h-1.27V81.62h1.27Zm1.37-5.5h-1.26V76.12H352Zm0,5.5h-1.26V81.62H352Z"/><path class="cls-8" d="M356.08,73.26h-1.27V72h1.27Zm0,1.38h-1.27V73.37h1.27Zm0,1.37h-1.27V74.75h1.27Zm0,1.38h-1.27V76.12h1.27Zm0,1.37h-1.27V77.5h1.27Zm0,1.38h-1.27V78.87h1.27Zm0,1.37h-1.27V80.25h1.27Zm0,1.38h-1.27V81.62h1.27Zm1.37-5.5h-1.26V76.12h1.26Zm1.38,0h-1.27V76.12h1.27Zm1.37,0h-1.26V76.12h1.26Zm1.38,1.37h-1.27V77.5h1.27Zm0,1.38h-1.27V78.87h1.27Zm0,1.37h-1.27V80.25h1.27Zm0,1.38h-1.27V81.62h1.27Z"/><path class="cls-8" d="M369.83,74.64h-1.27V73.37h1.27Zm0,8.25h-1.27V81.62h1.27Zm1.37-8.25h-1.26V73.37h1.26Zm0,1.37h-1.26V74.75h1.26Zm0,1.38h-1.26V76.12h1.26Zm0,1.37h-1.26V77.5h1.26Zm0,1.38h-1.26V78.87h1.26Zm0,1.37h-1.26V80.25h1.26Zm0,1.38h-1.26V81.62h1.26Zm1.38-8.25h-1.27V73.37h1.27Zm0,8.25h-1.27V81.62h1.27Z"/><path class="cls-8" d="M376.7,74.64h-1.26V73.37h1.26Zm0,6.87h-1.26V80.25h1.26Zm0,1.38h-1.26V81.62h1.26Zm1.38-8.25h-1.27V73.37h1.27Zm0,5.5h-1.27V78.87h1.27Zm0,2.75h-1.27V81.62h1.27Zm1.37-8.25h-1.26V73.37h1.26Zm0,4.12h-1.26V77.5h1.26Zm0,4.13h-1.26V81.62h1.26Zm1.38-8.25h-1.27V73.37h1.27Zm0,4.12h-1.27V77.5h1.27Zm0,4.13h-1.27V81.62h1.27ZM382.21,76h-1.27V74.75h1.27Zm0,1.38h-1.27V76.12h1.27Zm0,5.5h-1.27V81.62h1.27Z"/><path class="cls-8" d="M386.33,76h-1.27V74.75h1.27Zm0,1.38h-1.27V76.12h1.27Zm0,1.37h-1.27V77.5h1.27Zm0,1.38h-1.27V78.87h1.27Zm0,1.37h-1.27V80.25h1.27Zm1.37-6.87h-1.26V73.37h1.26Zm0,8.25h-1.26V81.62h1.26Zm1.38-8.25h-1.27V73.37h1.27Zm0,8.25h-1.27V81.62h1.27Zm1.37-8.25h-1.26V73.37h1.26Zm0,8.25h-1.26V81.62h1.26Zm1.38-8.25h-1.27V73.37h1.27Zm0,1.37h-1.27V74.75h1.27Zm0,6.88h-1.27V81.62h1.27Z"/><path class="cls-8" d="M400.08,81.51h-1.27V80.25h1.27Zm1.37-4.12h-1.26V76.12h1.26Zm0,2.75h-1.26V78.87h1.26Zm0,2.75h-1.26V81.62h1.26Zm1.38-5.5h-1.27V76.12h1.27Zm0,2.75h-1.27V78.87h1.27Zm0,2.75h-1.27V81.62h1.27Zm1.37-5.5h-1.26V76.12h1.26Zm0,2.75h-1.26V78.87h1.26Zm0,2.75h-1.26V81.62h1.26Zm1.38-4.13h-1.27V77.5h1.27Zm0,1.38h-1.27V78.87h1.27Zm0,1.37h-1.27V80.25h1.27Zm0,1.38h-1.27V81.62h1.27Z"/><path class="cls-8" d="M409.7,77.39h-1.26V76.12h1.26Zm0,1.37h-1.26V77.5h1.26Zm0,1.38h-1.26V78.87h1.26Zm0,1.37h-1.26V80.25h1.26Zm0,1.38h-1.26V81.62h1.26Zm1.38-5.5h-1.27V76.12h1.27Zm1.37,0h-1.26V76.12h1.26Zm1.38,0h-1.27V76.12h1.27Zm1.38,1.37h-1.27V77.5h1.27Zm0,1.38h-1.27V78.87h1.27Zm0,1.37h-1.27V80.25h1.27Zm0,1.38h-1.27V81.62h1.27Z"/><path class="cls-8" d="M419.33,78.76h-1.27V77.5h1.27Zm0,1.38h-1.27V78.87h1.27Zm0,1.37h-1.27V80.25h1.27Zm1.37-4.12h-1.26V76.12h1.26Zm0,5.5h-1.26V81.62h1.26Zm1.38-5.5h-1.27V76.12h1.27Zm0,5.5h-1.27V81.62h1.27Zm1.37-5.5h-1.26V76.12h1.26Zm0,5.5h-1.26V81.62h1.26Zm1.38-9.63h-1.27V72h1.27Zm0,1.38h-1.27V73.37h1.27Zm0,1.37h-1.27V74.75h1.27Zm0,1.38h-1.27V76.12h1.27Zm0,1.37h-1.27V77.5h1.27Zm0,1.38h-1.27V78.87h1.27Zm0,1.37h-1.27V80.25h1.27Zm0,1.38h-1.27V81.62h1.27Z"/><path class="cls-8" d="M433.08,74.64h-1.27V73.37h1.27Zm0,8.25h-1.27V81.62h1.27Zm1.37-8.25h-1.26V73.37h1.26Zm0,1.37h-1.26V74.75h1.26Zm0,1.38h-1.26V76.12h1.26Zm0,1.37h-1.26V77.5h1.26Zm0,1.38h-1.26V78.87h1.26Zm0,1.37h-1.26V80.25h1.26Zm0,1.38h-1.26V81.62h1.26Zm1.38-8.25h-1.27V73.37h1.27Zm0,8.25h-1.27V81.62h1.27Z"/><path class="cls-8" d="M440,74.64h-1.26V73.37H440Zm0,6.87h-1.26V80.25H440Zm0,1.38h-1.26V81.62H440Zm1.38-8.25h-1.27V73.37h1.27Zm0,5.5h-1.27V78.87h1.27Zm0,2.75h-1.27V81.62h1.27Zm1.37-8.25h-1.26V73.37h1.26Zm0,4.12h-1.26V77.5h1.26Zm0,4.13h-1.26V81.62h1.26Zm1.38-8.25h-1.27V73.37h1.27Zm0,4.12h-1.27V77.5h1.27Zm0,4.13h-1.27V81.62h1.27ZM445.46,76h-1.27V74.75h1.27Zm0,1.38h-1.27V76.12h1.27Zm0,5.5h-1.27V81.62h1.27Z"/><path class="cls-8" d="M449.58,76h-1.27V74.75h1.27Zm0,1.38h-1.27V76.12h1.27Zm0,5.5h-1.27V81.62h1.27ZM451,74.64h-1.26V73.37H451Zm0,4.12h-1.26V77.5H451Zm0,4.13h-1.26V81.62H451Zm1.38-8.25h-1.27V73.37h1.27Zm0,4.12h-1.27V77.5h1.27Zm0,4.13h-1.27V81.62h1.27Zm1.37-8.25h-1.26V73.37h1.26Zm0,4.12h-1.26V77.5h1.26Zm0,4.13h-1.26V81.62h1.26Zm1.38-8.25h-1.27V73.37h1.27Zm0,5.5h-1.27V78.87h1.27Zm0,1.37h-1.27V80.25h1.27Z"/><path class="cls-8" d="M463.33,73.26h-1.27V72h1.27Zm0,4.13h-1.27V76.12h1.27Zm0,1.37h-1.27V77.5h1.27Zm0,1.38h-1.27V78.87h1.27Zm0,1.37h-1.27V80.25h1.27Zm0,1.38h-1.27V81.62h1.27Z"/><path class="cls-8" d="M467.45,77.39h-1.26V76.12h1.26Zm0,1.37h-1.26V77.5h1.26Zm0,1.38h-1.26V78.87h1.26Zm0,1.37h-1.26V80.25h1.26Zm0,1.38h-1.26V81.62h1.26Zm1.38-5.5h-1.27V76.12h1.27Zm1.37,0h-1.26V76.12h1.26Zm1.38,0h-1.27V76.12h1.27ZM473,78.76h-1.27V77.5H473Zm0,1.38h-1.27V78.87H473Zm0,1.37h-1.27V80.25H473Zm0,1.38h-1.27V81.62H473Z"/><path class="cls-8" d="M477.08,74.64h-1.27V73.37h1.27Zm0,1.37h-1.27V74.75h1.27Zm0,1.38h-1.27V76.12h1.27Zm0,1.37h-1.27V77.5h1.27Zm0,1.38h-1.27V78.87h1.27Zm0,1.37h-1.27V80.25h1.27Zm1.37-4.12h-1.26V76.12h1.26Zm0,5.5h-1.26V81.62h1.26Zm1.38-5.5h-1.27V76.12h1.27Zm0,5.5h-1.27V81.62h1.27Zm1.37-5.5h-1.26V76.12h1.26Zm0,5.5h-1.26V81.62h1.26Z"/><path class="cls-8" d="M485.33,78.76h-1.27V77.5h1.27Zm0,1.38h-1.27V78.87h1.27Zm0,1.37h-1.27V80.25h1.27Zm1.37-4.12h-1.26V76.12h1.26Zm0,2.75h-1.26V78.87h1.26Zm0,2.75h-1.26V81.62h1.26Zm1.38-5.5h-1.27V76.12h1.27Zm0,2.75h-1.27V78.87h1.27Zm0,2.75h-1.27V81.62h1.27Zm1.37-5.5h-1.26V76.12h1.26Zm0,2.75h-1.26V78.87h1.26Zm0,2.75h-1.26V81.62h1.26Zm1.38-4.13h-1.27V77.5h1.27Zm0,1.38h-1.27V78.87h1.27Zm0,2.75h-1.27V81.62h1.27Z"/><path class="cls-8" d="M495,77.39h-1.26V76.12H495Zm0,1.37h-1.26V77.5H495Zm0,1.38h-1.26V78.87H495Zm0,1.37h-1.26V80.25H495Zm0,1.38h-1.26V81.62H495Zm1.38-4.13h-1.27V77.5h1.27Zm1.37-1.37h-1.26V76.12h1.26Zm1.38,0h-1.27V76.12h1.27Z"/><path class="cls-8" d="M500.45,77.39h-1.26V76.12h1.26Zm1.38,0h-1.27V76.12h1.27Zm1.37-2.75h-1.26V73.37h1.26Zm0,1.37h-1.26V74.75h1.26Zm0,1.38h-1.26V76.12h1.26Zm0,1.37h-1.26V77.5h1.26Zm0,1.38h-1.26V78.87h1.26Zm0,1.37h-1.26V80.25h1.26Zm0,1.38h-1.26V81.62h1.26Zm1.38-9.63h-1.27V72h1.27Zm0,4.13h-1.27V76.12h1.27ZM506,73.26h-1.26V72H506Zm0,4.13h-1.26V76.12H506Zm1.38-4.13h-1.27V72h1.27Z"/><path class="cls-8" d="M508.7,81.51h-1.26V80.25h1.26Zm1.38-4.12h-1.27V76.12h1.27Zm0,2.75h-1.27V78.87h1.27Zm0,2.75h-1.27V81.62h1.27Zm1.37-5.5h-1.26V76.12h1.26Zm0,2.75h-1.26V78.87h1.26Zm0,2.75h-1.26V81.62h1.26Zm1.38-5.5h-1.27V76.12h1.27Zm0,2.75h-1.27V78.87h1.27Zm0,2.75h-1.27V81.62h1.27Zm1.38-4.13h-1.27V77.5h1.27Zm0,1.38h-1.27V78.87h1.27Zm0,1.37h-1.27V80.25h1.27Zm0,1.38h-1.27V81.62h1.27Z"/><path class="cls-8" d="M518.33,78.76h-1.27V77.5h1.27Zm0,1.38h-1.27V78.87h1.27Zm0,1.37h-1.27V80.25h1.27Zm1.37-4.12h-1.26V76.12h1.26Zm0,5.5h-1.26V81.62h1.26Zm1.38-5.5h-1.27V76.12h1.27Zm0,5.5h-1.27V81.62h1.27Zm1.37-5.5h-1.26V76.12h1.26Zm0,5.5h-1.26V81.62h1.26Zm1.38-5.5h-1.27V76.12h1.27Zm0,5.5h-1.27V81.62h1.27Z"/><path class="cls-8" d="M528,78.76h-1.26V77.5H528Zm0,1.38h-1.26V78.87H528Zm0,1.37h-1.26V80.25H528Zm1.38-4.12h-1.27V76.12h1.27Zm0,2.75h-1.27V78.87h1.27Zm0,2.75h-1.27V81.62h1.27Zm1.37-5.5h-1.26V76.12h1.26Zm0,2.75h-1.26V78.87h1.26Zm0,2.75h-1.26V81.62h1.26Zm1.38-5.5h-1.27V76.12h1.27Zm0,2.75h-1.27V78.87h1.27Zm0,2.75h-1.27V81.62h1.27Zm1.38-4.13h-1.27V77.5h1.27Zm0,1.38h-1.27V78.87h1.27Zm0,2.75h-1.27V81.62h1.27Z"/><path class="cls-8" d="M537.58,78.76h-1.27V77.5h1.27Zm0,4.13h-1.27V81.62h1.27Zm1.37-5.5h-1.26V76.12H539Zm0,2.75h-1.26V78.87H539Zm0,2.75h-1.26V81.62H539Zm1.38-5.5h-1.27V76.12h1.27Zm0,2.75h-1.27V78.87h1.27Zm0,2.75h-1.27V81.62h1.27Zm1.37-5.5h-1.26V76.12h1.26Zm0,4.12h-1.26V80.25h1.26Z"/></g><g class="cls-4"><path class="cls-8" d="M316.2,96.14h-1.26V94.87h1.26Zm1.38,0h-1.27V94.87h1.27Zm1.37,0h-1.26V94.87H319Zm1.38,0h-1.27V94.87h1.27Z"/><path class="cls-8" d="M328.58,90.64h-1.27V89.37h1.27Zm0,1.37h-1.27V90.75h1.27Zm0,1.38h-1.27V92.12h1.27Zm0,1.37h-1.27V93.5h1.27Zm0,1.38h-1.27V94.87h1.27Zm0,1.37h-1.27V96.25h1.27Zm0,1.38h-1.27V97.62h1.27ZM330,90.64h-1.26V89.37H330Zm0,4.12h-1.26V93.5H330Zm0,4.13h-1.26V97.62H330Zm1.38-8.25h-1.27V89.37h1.27Zm0,4.12h-1.27V93.5h1.27Zm0,4.13h-1.27V97.62h1.27Zm1.37-8.25h-1.26V89.37h1.26Zm0,4.12h-1.26V93.5h1.26Zm0,4.13h-1.26V97.62h1.26ZM334.08,92h-1.27V90.75h1.27Zm0,1.38h-1.27V92.12h1.27Zm0,2.75h-1.27V94.87h1.27Zm0,1.37h-1.27V96.25h1.27Z"/><path class="cls-8" d="M338.2,94.76h-1.26V93.5h1.26Zm0,1.38h-1.26V94.87h1.26Zm0,1.37h-1.26V96.25h1.26Zm1.38-4.12h-1.27V92.12h1.27Zm0,5.5h-1.27V97.62h1.27Zm1.37-5.5h-1.26V92.12H341Zm0,5.5h-1.26V97.62H341Zm1.38-5.5h-1.27V92.12h1.27Zm0,5.5h-1.27V97.62h1.27Zm1.38-4.13h-1.27V93.5h1.27Zm0,1.38h-1.27V94.87h1.27Zm0,1.37h-1.27V96.25h1.27Z"/><path class="cls-8" d="M347.83,90.64h-1.27V89.37h1.27Zm0,1.37h-1.27V90.75h1.27Zm0,1.38h-1.27V92.12h1.27Zm0,1.37h-1.27V93.5h1.27Zm0,1.38h-1.27V94.87h1.27Zm0,1.37h-1.27V96.25h1.27Zm1.37-4.12h-1.26V92.12h1.26Zm0,5.5h-1.26V97.62h1.26Zm1.38-5.5h-1.27V92.12h1.27Zm0,5.5h-1.27V97.62h1.27Zm1.37-5.5h-1.26V92.12H352Zm0,5.5h-1.26V97.62H352Z"/><path class="cls-8" d="M356.08,89.26h-1.27V88h1.27Zm0,1.38h-1.27V89.37h1.27Zm0,1.37h-1.27V90.75h1.27Zm0,1.38h-1.27V92.12h1.27Zm0,1.37h-1.27V93.5h1.27Zm0,1.38h-1.27V94.87h1.27Zm0,1.37h-1.27V96.25h1.27Zm0,1.38h-1.27V97.62h1.27Zm1.37-5.5h-1.26V92.12h1.26Zm1.38,0h-1.27V92.12h1.27Zm1.37,0h-1.26V92.12h1.26Zm1.38,1.37h-1.27V93.5h1.27Zm0,1.38h-1.27V94.87h1.27Zm0,1.37h-1.27V96.25h1.27Zm0,1.38h-1.27V97.62h1.27Z"/><path class="cls-8" d="M369.83,90.64h-1.27V89.37h1.27Zm0,1.37h-1.27V90.75h1.27Zm0,1.38h-1.27V92.12h1.27Zm0,1.37h-1.27V93.5h1.27Zm0,1.38h-1.27V94.87h1.27Zm0,1.37h-1.27V96.25h1.27Zm0,1.38h-1.27V97.62h1.27Zm1.37-8.25h-1.26V89.37h1.26Zm0,8.25h-1.26V97.62h1.26Zm1.38-8.25h-1.27V89.37h1.27Zm0,8.25h-1.27V97.62h1.27ZM374,92h-1.26V90.75H374Zm0,5.5h-1.26V96.25H374Zm1.38-4.12h-1.27V92.12h1.27Zm0,1.37h-1.27V93.5h1.27Zm0,1.38h-1.27V94.87h1.27Z"/><path class="cls-8" d="M379.45,92h-1.26V90.75h1.26Zm0,1.38h-1.26V92.12h1.26Zm0,1.37h-1.26V93.5h1.26Zm0,1.38h-1.26V94.87h1.26Zm0,1.37h-1.26V96.25h1.26Zm0,1.38h-1.26V97.62h1.26Zm1.38-8.25h-1.27V89.37h1.27Zm0,5.5h-1.27V94.87h1.27Zm1.37-5.5h-1.26V89.37h1.26Zm0,5.5h-1.26V94.87h1.26Zm1.38-5.5h-1.27V89.37h1.27Zm0,5.5h-1.27V94.87h1.27ZM385,92h-1.27V90.75H385Zm0,1.38h-1.27V92.12H385Zm0,1.37h-1.27V93.5H385Zm0,1.38h-1.27V94.87H385Zm0,1.37h-1.27V96.25H385Zm0,1.38h-1.27V97.62H385Z"/><path class="cls-8" d="M389.08,92h-1.27V90.75h1.27Zm0,1.38h-1.27V92.12h1.27Zm0,1.37h-1.27V93.5h1.27Zm0,1.38h-1.27V94.87h1.27Zm0,1.37h-1.27V96.25h1.27Zm1.37-6.87h-1.26V89.37h1.26Zm0,8.25h-1.26V97.62h1.26Zm1.38-8.25h-1.27V89.37h1.27Zm0,8.25h-1.27V97.62h1.27Zm1.37-8.25h-1.26V89.37h1.26Zm0,8.25h-1.26V97.62h1.26Zm1.38-8.25h-1.27V89.37h1.27Zm0,1.37h-1.27V90.75h1.27Zm0,6.88h-1.27V97.62h1.27Z"/><path class="cls-8" d="M402.83,93.39h-1.27V92.12h1.27Zm0,1.37h-1.27V93.5h1.27Zm0,1.38h-1.27V94.87h1.27Zm0,1.37h-1.27V96.25h1.27Zm0,1.38h-1.27V97.62h1.27Zm0,1.37h-1.27V99h1.27Zm0,1.38h-1.27v-1.27h1.27Zm1.37-8.25h-1.26V92.12h1.26Zm0,5.5h-1.26V97.62h1.26Zm1.38-5.5h-1.27V92.12h1.27Zm0,5.5h-1.27V97.62h1.27Zm1.37-5.5h-1.26V92.12H407Zm0,5.5h-1.26V97.62H407Zm1.38-4.13h-1.27V93.5h1.27Zm0,1.38h-1.27V94.87h1.27Zm0,1.37h-1.27V96.25h1.27Z"/><path class="cls-8" d="M412.45,89.26h-1.26V88h1.26Zm0,4.13h-1.26V92.12h1.26Zm0,1.37h-1.26V93.5h1.26Zm0,1.38h-1.26V94.87h1.26Zm0,1.37h-1.26V96.25h1.26Zm0,1.38h-1.26V97.62h1.26Z"/><path class="cls-8" d="M416.58,93.39h-1.27V92.12h1.27Zm0,1.37h-1.27V93.5h1.27Zm0,1.38h-1.27V94.87h1.27Zm0,1.37h-1.27V96.25h1.27Zm0,1.38h-1.27V97.62h1.27Zm1.37-5.5h-1.26V92.12H418Zm1.38,0h-1.27V92.12h1.27Zm1.37,0h-1.26V92.12h1.26Zm1.38,1.37h-1.27V93.5h1.27Zm0,1.38h-1.27V94.87h1.27Zm0,1.37h-1.27V96.25h1.27Zm0,1.38h-1.27V97.62h1.27Z"/><path class="cls-8" d="M426.2,94.76h-1.26V93.5h1.26Zm0,4.13h-1.26V97.62h1.26Zm1.38-5.5h-1.27V92.12h1.27Zm0,2.75h-1.27V94.87h1.27Zm0,2.75h-1.27V97.62h1.27Zm1.37-5.5h-1.26V92.12H429Zm0,2.75h-1.26V94.87H429Zm0,2.75h-1.26V97.62H429Zm1.38-5.5h-1.27V92.12h1.27Zm0,4.12h-1.27V96.25h1.27Z"/></g></g></g><g id="Vector-2"><g id="Rectangle_141" data-name="Rectangle 141"><path class="cls-10" d="M166.9,78H156.17a1.5,1.5,0,0,1,0-3H166.9a4,4,0,0,0,.95-.09,1.5,1.5,0,1,1,.62,2.93A7.47,7.47,0,0,1,166.9,78Zm-22.73,0h-12a1.5,1.5,0,0,1,0-3h12a1.5,1.5,0,0,1,0,3Zm-24,0h-12a1.5,1.5,0,0,1,0-3h12a1.5,1.5,0,0,1,0,3Zm-24,0h-12a1.5,1.5,0,0,1,0-3h12a1.5,1.5,0,0,1,0,3Zm-24,0h-12a1.5,1.5,0,0,1,0-3h12a1.5,1.5,0,0,1,0,3Zm-24,0h-12a1.5,1.5,0,0,1,0-3h12a1.5,1.5,0,0,1,0,3Zm-23-2.89a1.48,1.48,0,0,1-1.27-.71,7.57,7.57,0,0,1-1.14-4v-8.6a1.5,1.5,0,1,1,3,0v8.6a4.55,4.55,0,0,0,.69,2.44A1.5,1.5,0,0,1,26,74.92,1.42,1.42,0,0,1,25.19,75.15ZM173,68.26a1.5,1.5,0,0,1-1.5-1.5V56.88a4.68,4.68,0,0,0-.28-1.57,1.5,1.5,0,0,1,2.83-1,7.82,7.82,0,0,1,.45,2.58v9.88A1.5,1.5,0,0,1,173,68.26ZM27.92,52.79a1.52,1.52,0,0,1-1.38-.89,1.5,1.5,0,0,1,.77-2,7.43,7.43,0,0,1,3.09-.66h12a1.5,1.5,0,0,1,0,3h-12a4.63,4.63,0,0,0-1.88.4A1.58,1.58,0,0,1,27.92,52.79Zm134.48-.53h-12a1.5,1.5,0,0,1,0-3h12a1.5,1.5,0,0,1,0,3Zm-24,0h-12a1.5,1.5,0,0,1,0-3h12a1.5,1.5,0,0,1,0,3Zm-24,0h-12a1.5,1.5,0,0,1,0-3h12a1.5,1.5,0,0,1,0,3Zm-24,0h-12a1.5,1.5,0,0,1,0-3h12a1.5,1.5,0,0,1,0,3Zm-24,0h-12a1.5,1.5,0,0,1,0-3h12a1.5,1.5,0,0,1,0,3Z"/></g><g id="Line_6" data-name="Line 6"><path class="cls-10" d="M181.48,64.64a1.5,1.5,0,0,1,0-3h12a1.5,1.5,0,0,1,0,3h-12Zm24,0a1.5,1.5,0,0,1,0-3h12a1.5,1.5,0,0,1,0,3h-12Zm24,0a1.5,1.5,0,1,1,0-3h12a1.5,1.5,0,0,1,0,3h-12Zm24,0a1.5,1.5,0,1,1,0-3h12a1.5,1.5,0,0,1,0,3h-12Zm24,0a1.5,1.5,0,1,1,0-3h12a1.5,1.5,0,0,1,0,3h-12Zm24,0A1.52,1.52,0,0,1,300,63a1.5,1.5,0,0,1,1.5-1.5h1.62a1.5,1.5,0,1,1,0,3h-1.62Z"/></g></g></g></g></g></g></g></g></svg>