<svg xmlns="http://www.w3.org/2000/svg" viewBox="0 0 614.41 339.51"><defs><style>.cls-1{fill:#18191c;}.cls-2{fill:#353535;}.cls-3{fill:#707070;}.cls-4,.cls-5,.cls-6,.cls-8{isolation:isolate;}.cls-5{font-size:12px;fill:#5b5b5b;font-family:FuturaPT-Bold, Futura PT;font-weight:700;}.cls-6{font-size:20px;fill:#d8d8d8;}.cls-6,.cls-8{font-family:Unibody8Pro-Regular, "Unibody 8 Pro";}.cls-10,.cls-12,.cls-13,.cls-14,.cls-7,.cls-9{fill:none;}.cls-12,.cls-7{stroke:#e8e8e8;}.cls-10,.cls-14,.cls-7{stroke-miterlimit:10;}.cls-8{font-size:11px;fill:#fff;}.cls-10,.cls-9{stroke:#ff781d;}.cls-10,.cls-13,.cls-14,.cls-9{stroke-linecap:round;stroke-width:3px;stroke-dasharray:12;}.cls-13,.cls-9{stroke-linejoin:round;}.cls-11{letter-spacing:-0.13em;}.cls-13,.cls-14{stroke:#3a8def;}</style></defs><g id="Layer_2" data-name="Layer 2"><g id="Layer_1-2" data-name="Layer 1"><g id="Second_Page" data-name="Second Page"><g id="Content"><g id="ESP"><path id="Rectangle_72" data-name="Rectangle 72" class="cls-1" d="M15.6,40.06H181.18a15.6,15.6,0,0,1,15.6,15.6V323a15.61,15.61,0,0,1-15.61,15.61H15.61A15.61,15.61,0,0,1,0,323V55.66a15.6,15.6,0,0,1,15.6-15.6Z"/><rect id="Rectangle_73" data-name="Rectangle 73" class="cls-2" x="62.99" y="153.92" width="70.81" height="70.81" transform="translate(-105.06 125.03) rotate(-45)"/><g id="Group_2" data-name="Group 2"><rect id="Rectangle_74" data-name="Rectangle 74" class="cls-2" x="28.4" y="55.1" width="139.97" height="17.5" rx="3.22"/><g id="Group_1" data-name="Group 1"><rect id="Rectangle_75" data-name="Rectangle 75" class="cls-3" x="32.73" y="57.64" width="3.57" height="3.57"/><rect id="Rectangle_76" data-name="Rectangle 76" class="cls-3" x="32.73" y="66.28" width="3.57" height="3.57"/><rect id="Rectangle_77" data-name="Rectangle 77" class="cls-3" x="41.01" y="57.64" width="3.57" height="3.57"/><rect id="Rectangle_78" data-name="Rectangle 78" class="cls-3" x="41.01" y="66.28" width="3.57" height="3.57"/><rect id="Rectangle_79" data-name="Rectangle 79" class="cls-3" x="49.95" y="57.64" width="3.57" height="3.57"/><rect id="Rectangle_80" data-name="Rectangle 80" class="cls-3" x="49.95" y="66.28" width="3.57" height="3.57"/><rect id="Rectangle_81" data-name="Rectangle 81" class="cls-3" x="58.23" y="57.64" width="3.57" height="3.57"/><rect id="Rectangle_82" data-name="Rectangle 82" class="cls-3" x="58.23" y="66.28" width="3.57" height="3.57"/><rect id="Rectangle_83" data-name="Rectangle 83" class="cls-3" x="67.05" y="57.64" width="3.57" height="3.57"/><rect id="Rectangle_84" data-name="Rectangle 84" class="cls-3" x="67.05" y="66.28" width="3.57" height="3.57"/><rect id="Rectangle_85" data-name="Rectangle 85" class="cls-3" x="75.33" y="57.64" width="3.57" height="3.57"/><rect id="Rectangle_86" data-name="Rectangle 86" class="cls-3" x="75.33" y="66.28" width="3.57" height="3.57"/><rect id="Rectangle_87" data-name="Rectangle 87" class="cls-3" x="84.27" y="57.64" width="3.57" height="3.57"/><rect id="Rectangle_88" data-name="Rectangle 88" class="cls-3" x="84.27" y="66.28" width="3.57" height="3.57"/><rect id="Rectangle_89" data-name="Rectangle 89" class="cls-3" x="92.55" y="57.64" width="3.57" height="3.57"/><rect id="Rectangle_90" data-name="Rectangle 90" class="cls-3" x="92.55" y="66.28" width="3.57" height="3.57"/><rect id="Rectangle_91" data-name="Rectangle 91" class="cls-3" x="100.65" y="57.64" width="3.57" height="3.57"/><rect id="Rectangle_92" data-name="Rectangle 92" class="cls-3" x="100.65" y="66.28" width="3.57" height="3.57"/><rect id="Rectangle_93" data-name="Rectangle 93" class="cls-3" x="108.92" y="57.64" width="3.57" height="3.57"/><rect id="Rectangle_94" data-name="Rectangle 94" class="cls-3" x="108.92" y="66.28" width="3.57" height="3.57"/><rect id="Rectangle_95" data-name="Rectangle 95" class="cls-3" x="117.87" y="57.64" width="3.57" height="3.57"/><rect id="Rectangle_96" data-name="Rectangle 96" class="cls-3" x="117.87" y="66.28" width="3.57" height="3.57"/><rect id="Rectangle_97" data-name="Rectangle 97" class="cls-3" x="126.15" y="57.64" width="3.57" height="3.57"/><rect id="Rectangle_98" data-name="Rectangle 98" class="cls-3" x="126.15" y="66.28" width="3.57" height="3.57"/><rect id="Rectangle_99" data-name="Rectangle 99" class="cls-3" x="134.61" y="57.64" width="3.57" height="3.57"/><rect id="Rectangle_100" data-name="Rectangle 100" class="cls-3" x="134.61" y="66.28" width="3.57" height="3.57"/><rect id="Rectangle_101" data-name="Rectangle 101" class="cls-3" x="142.88" y="57.64" width="3.57" height="3.57"/><rect id="Rectangle_102" data-name="Rectangle 102" class="cls-3" x="142.88" y="66.28" width="3.57" height="3.57"/><rect id="Rectangle_103" data-name="Rectangle 103" class="cls-3" x="151.83" y="57.64" width="3.57" height="3.57"/><rect id="Rectangle_104" data-name="Rectangle 104" class="cls-3" x="151.83" y="66.28" width="3.57" height="3.57"/><rect id="Rectangle_105" data-name="Rectangle 105" class="cls-3" x="160.11" y="57.64" width="3.57" height="3.57"/><rect id="Rectangle_106" data-name="Rectangle 106" class="cls-3" x="160.11" y="66.28" width="3.57" height="3.57"/></g></g><g id="Group_4" data-name="Group 4"><rect id="Rectangle_107" data-name="Rectangle 107" class="cls-2" x="28.4" y="299.39" width="139.97" height="17.5" rx="3.22"/><g id="Group_3" data-name="Group 3"><rect id="Rectangle_108" data-name="Rectangle 108" class="cls-3" x="32.73" y="301.93" width="3.57" height="3.57"/><rect id="Rectangle_109" data-name="Rectangle 109" class="cls-3" x="32.73" y="310.58" width="3.57" height="3.57"/><rect id="Rectangle_110" data-name="Rectangle 110" class="cls-3" x="41.01" y="301.93" width="3.57" height="3.57"/><rect id="Rectangle_111" data-name="Rectangle 111" class="cls-3" x="41.01" y="310.58" width="3.57" height="3.57"/><rect id="Rectangle_112" data-name="Rectangle 112" class="cls-3" x="49.95" y="301.93" width="3.57" height="3.57"/><rect id="Rectangle_113" data-name="Rectangle 113" class="cls-3" x="49.95" y="310.58" width="3.57" height="3.57"/><rect id="Rectangle_114" data-name="Rectangle 114" class="cls-3" x="58.23" y="301.93" width="3.57" height="3.57"/><rect id="Rectangle_115" data-name="Rectangle 115" class="cls-3" x="58.23" y="310.58" width="3.57" height="3.57"/><rect id="Rectangle_116" data-name="Rectangle 116" class="cls-3" x="67.05" y="301.93" width="3.57" height="3.57"/><rect id="Rectangle_117" data-name="Rectangle 117" class="cls-3" x="67.05" y="310.58" width="3.57" height="3.57"/><rect id="Rectangle_118" data-name="Rectangle 118" class="cls-3" x="75.33" y="301.93" width="3.57" height="3.57"/><rect id="Rectangle_119" data-name="Rectangle 119" class="cls-3" x="75.33" y="310.58" width="3.57" height="3.57"/><rect id="Rectangle_120" data-name="Rectangle 120" class="cls-3" x="84.27" y="301.93" width="3.57" height="3.57"/><rect id="Rectangle_121" data-name="Rectangle 121" class="cls-3" x="84.27" y="310.58" width="3.57" height="3.57"/><rect id="Rectangle_122" data-name="Rectangle 122" class="cls-3" x="92.55" y="301.93" width="3.57" height="3.57"/><rect id="Rectangle_123" data-name="Rectangle 123" class="cls-3" x="92.55" y="310.58" width="3.57" height="3.57"/><rect id="Rectangle_124" data-name="Rectangle 124" class="cls-3" x="100.65" y="301.93" width="3.57" height="3.57"/><rect id="Rectangle_125" data-name="Rectangle 125" class="cls-3" x="100.65" y="310.58" width="3.57" height="3.57"/><rect id="Rectangle_126" data-name="Rectangle 126" class="cls-3" x="108.92" y="301.93" width="3.57" height="3.57"/><rect id="Rectangle_127" data-name="Rectangle 127" class="cls-3" x="108.92" y="310.58" width="3.57" height="3.57"/><rect id="Rectangle_128" data-name="Rectangle 128" class="cls-3" x="117.87" y="301.93" width="3.57" height="3.57"/><rect id="Rectangle_129" data-name="Rectangle 129" class="cls-3" x="117.87" y="310.58" width="3.57" height="3.57"/><rect id="Rectangle_130" data-name="Rectangle 130" class="cls-3" x="126.15" y="301.93" width="3.57" height="3.57"/><rect id="Rectangle_131" data-name="Rectangle 131" class="cls-3" x="126.15" y="310.58" width="3.57" height="3.57"/><rect id="Rectangle_132" data-name="Rectangle 132" class="cls-3" x="134.61" y="301.93" width="3.57" height="3.57"/><rect id="Rectangle_133" data-name="Rectangle 133" class="cls-3" x="134.61" y="310.58" width="3.57" height="3.57"/><rect id="Rectangle_134" data-name="Rectangle 134" class="cls-3" x="142.88" y="301.93" width="3.57" height="3.57"/><rect id="Rectangle_135" data-name="Rectangle 135" class="cls-3" x="142.88" y="310.58" width="3.57" height="3.57"/><rect id="Rectangle_136" data-name="Rectangle 136" class="cls-3" x="151.83" y="301.93" width="3.57" height="3.57"/><rect id="Rectangle_137" data-name="Rectangle 137" class="cls-3" x="151.83" y="310.58" width="3.57" height="3.57"/><rect id="Rectangle_138" data-name="Rectangle 138" class="cls-3" x="160.11" y="301.93" width="3.57" height="3.57"/><rect id="Rectangle_139" data-name="Rectangle 139" class="cls-3" x="160.11" y="310.58" width="3.57" height="3.57"/></g></g><g id="ESP32" class="cls-4"><text class="cls-5" transform="translate(59.26 194.13) rotate(-45)">ESP32</text></g></g></g><g id="Info"><g id="Main_Info" data-name="Main Info"><g id="Power"><g id="Info-2"><g id="Power_SPI_Flash" data-name="Power SPI Flash" class="cls-4"><text class="cls-6" transform="translate(313.51 275.55)">Power &amp; SPI Flash</text></g><line id="Line_4" data-name="Line 4" class="cls-7" x1="313.51" y1="285.7" x2="588.23" y2="285.7"/><g id="_-_Unregulated_3.3v_input_-_SPI_Flash_pins_with_autoflash_mode_-_2nd_SPI_and_UART" data-name=" - Unregulated 3.3v input - SPI Flash pins with autoflash mode - 2nd SPI and UART" class="cls-4"><text class="cls-8" transform="translate(313.51 303.44)">- Unregulated 3.3v input</text><text class="cls-8" transform="translate(313.51 319.44)">- SPI Flash pins with autoflash mode</text><text class="cls-8" transform="translate(313.51 335.44)">- 2nd SPI and UART</text></g></g><g id="Vector"><rect id="Rectangle_156" data-name="Rectangle 156" class="cls-9" x="24.28" y="295.36" width="148.74" height="25.78" rx="6.12"/><line id="Line_8" data-name="Line 8" class="cls-10" x1="181.48" y1="307.74" x2="303.1" y2="307.59"/></g></g><g id="Data"><g id="Info-3"><g id="Data_Lines_-_Busses" data-name="Data Lines - Busses" class="cls-4"><text class="cls-6" transform="translate(313.51 19.9)">Da<tspan class="cls-11" x="35" y="0">t</tspan><tspan x="47.5" y="0">a Lines - Busses</tspan></text></g><path id="Path_1" data-name="Path 1" class="cls-12" d="M313.51,31.17h300.9"/><g id="_-_All_GPIO_pins_-_Both_SPI_UART_interfaces_-_Both_I2C_and_I2S_interfaces_-_Both_DAC_pins" data-name=" - All GPIO pins - Both SPI UART interfaces - Both I2C and I2S interfaces - Both DAC pins" class="cls-4"><text class="cls-8" transform="translate(313.51 50.94)">- All GPIO pins</text><text class="cls-8" transform="translate(313.51 66.94)">- Both SPI &amp; UART interfaces</text><text class="cls-8" transform="translate(313.51 82.94)">- Both I2C and I2S interfaces </text><text class="cls-8" transform="translate(313.51 98.94)">- Both DAC pins</text></g></g><g id="Vector-2"><rect id="Rectangle_141" data-name="Rectangle 141" class="cls-13" x="24.28" y="50.76" width="148.74" height="25.78" rx="6.12"/><line id="Line_6" data-name="Line 6" class="cls-14" x1="181.48" y1="63.14" x2="303.1" y2="62.99"/></g></g></g></g></g></g></g></svg>