<svg xmlns="http://www.w3.org/2000/svg" viewBox="0 0 292.34 596.69"><defs><style>.cls-1{isolation:isolate;}.cls-2{fill:#ff781d;}.cls-3{fill:#3a8def;}.cls-4{fill:#18191c;}.cls-5{fill:#353535;}.cls-6{fill:#707070;}.cls-7{fill:#5b5b5b;}</style></defs><g id="Layer_2" data-name="Layer 2"><g id="Layer_1-2" data-name="Layer 1"><g id="Group_39" data-name="Group 39"><g id="Info"><g id="Power"><g id="Power_SPI_Flash" data-name="Power SPI Flash" class="cls-1"><g class="cls-1"><path class="cls-2" d="M10.13,517H7.72V514.6h2.41Zm0,2.62H7.72v-2.41h2.41Zm0,2.63H7.72v-2.42h2.41Zm0,2.62H7.72v-2.41h2.41Zm0,2.63H7.72V525.1h2.41Zm0,2.62H7.72v-2.41h2.41Zm0,2.63H7.72v-2.42h2.41ZM12.76,517H10.34V514.6h2.42Zm0,7.87H10.34v-2.41h2.42ZM15.38,517H13V514.6h2.41Zm0,7.87H13v-2.41h2.41ZM18,517H15.59V514.6H18Zm0,7.87H15.59v-2.41H18Zm2.62-5.25H18.22v-2.41h2.41Zm0,2.63H18.22v-2.42h2.41Z"/><path class="cls-2" d="M28.51,524.89H26.09v-2.41h2.42Zm0,2.63H26.09V525.1h2.42Zm0,2.62H26.09v-2.41h2.42Zm2.62-7.87H28.72v-2.42h2.41Zm0,10.5H28.72v-2.42h2.41Zm2.63-10.5H31.34v-2.42h2.42Zm0,10.5H31.34v-2.42h2.42Zm2.62-10.5H34v-2.42h2.41Zm0,10.5H34v-2.42h2.41ZM39,524.89H36.59v-2.41H39Zm0,2.63H36.59V525.1H39Zm0,2.62H36.59v-2.41H39Z"/><path class="cls-2" d="M46.88,522.27H44.47v-2.42h2.41Zm0,2.62H44.47v-2.41h2.41Zm0,2.63H44.47V525.1h2.41Zm0,2.62H44.47v-2.41h2.41Zm2.63,2.63H47.09v-2.42h2.42Zm2.62-2.63H49.72v-2.41h2.41Zm2.63-5.25H52.34v-2.41h2.42Zm0,2.63H52.34V525.1h2.42Zm2.62,2.62H55v-2.41h2.41ZM60,532.77H57.59v-2.42H60Zm2.62-10.5H60.22v-2.42h2.41Zm0,2.62H60.22v-2.41h2.41Zm0,2.63H60.22V525.1h2.41Zm0,2.62H60.22v-2.41h2.41Z"/><path class="cls-2" d="M70.51,524.89H68.09v-2.41h2.42Zm0,2.63H68.09V525.1h2.42Zm0,2.62H68.09v-2.41h2.42Zm2.62-7.87H70.72v-2.42h2.41Zm0,5.25H70.72V525.1h2.41Zm0,5.25H70.72v-2.42h2.41Zm2.63-10.5H73.34v-2.42h2.42Zm0,5.25H73.34V525.1h2.42Zm0,5.25H73.34v-2.42h2.42Zm2.62-10.5H76v-2.42h2.41Zm0,5.25H76V525.1h2.41Zm0,5.25H76v-2.42h2.41ZM81,524.89H78.59v-2.41H81Zm0,2.63H78.59V525.1H81Zm0,5.25H78.59v-2.42H81Z"/><path class="cls-2" d="M88.88,522.27H86.47v-2.42h2.41Zm0,2.62H86.47v-2.41h2.41Zm0,2.63H86.47V525.1h2.41Zm0,2.62H86.47v-2.41h2.41Zm0,2.63H86.47v-2.42h2.41Zm2.63-7.88H89.09v-2.41h2.42Zm2.62-2.62H91.72v-2.42h2.41Zm2.63,0H94.34v-2.42h2.42Z"/><path class="cls-2" d="M109.88,519.64h-2.41v-2.41h2.41Zm0,2.63h-2.41v-2.42h2.41Zm0,5.25h-2.41V525.1h2.41Zm0,2.62h-2.41v-2.41h2.41ZM112.51,517h-2.42V514.6h2.42Zm0,7.87h-2.42v-2.41h2.42Zm0,7.88h-2.42v-2.42h2.42ZM115.13,517h-2.41V514.6h2.41Zm0,7.87h-2.41v-2.41h2.41Zm0,7.88h-2.41v-2.42h2.41ZM117.76,517h-2.42V514.6h2.42Zm0,15.75h-2.42v-2.42h2.42Zm2.62-7.88H118v-2.41h2.41Zm0,2.63H118V525.1h2.41Zm0,2.62H118v-2.41h2.41Zm2.63-5.25h-2.42v-2.41H123Zm2.62,0h-2.41v-2.41h2.41Z"/><path class="cls-2" d="M138.76,519.64h-2.42v-2.41h2.42Zm0,2.63h-2.42v-2.42h2.42Zm0,10.5h-2.42v-2.42h2.42ZM141.38,517H139V514.6h2.41Zm0,7.87H139v-2.41h2.41Zm0,7.88H139v-2.42h2.41ZM144,517h-2.42V514.6H144Zm0,7.87h-2.42v-2.41H144Zm0,7.88h-2.42v-2.42H144ZM146.63,517h-2.41V514.6h2.41Zm0,7.87h-2.41v-2.41h2.41Zm0,7.88h-2.41v-2.42h2.41ZM149.26,517h-2.42V514.6h2.42Zm0,10.5h-2.42V525.1h2.42Zm0,2.62h-2.42v-2.41h2.42Z"/><path class="cls-2" d="M157.13,517h-2.41V514.6h2.41Zm0,2.62h-2.41v-2.41h2.41Zm0,2.63h-2.41v-2.42h2.41Zm0,2.62h-2.41v-2.41h2.41Zm0,2.63h-2.41V525.1h2.41Zm0,2.62h-2.41v-2.41h2.41Zm0,2.63h-2.41v-2.42h2.41ZM159.76,517h-2.42V514.6h2.42Zm0,7.87h-2.42v-2.41h2.42Zm2.62-7.87H160V514.6h2.41Zm0,7.87H160v-2.41h2.41ZM165,517h-2.42V514.6H165Zm0,7.87h-2.42v-2.41H165Zm2.62-5.25h-2.41v-2.41h2.41Zm0,2.63h-2.41v-2.42h2.41Z"/><path class="cls-2" d="M175.51,517h-2.42V514.6h2.42Zm0,15.75h-2.42v-2.42h2.42ZM178.13,517h-2.41V514.6h2.41Zm0,2.62h-2.41v-2.41h2.41Zm0,2.63h-2.41v-2.42h2.41Zm0,2.62h-2.41v-2.41h2.41Zm0,2.63h-2.41V525.1h2.41Zm0,2.62h-2.41v-2.41h2.41Zm0,2.63h-2.41v-2.42h2.41ZM180.76,517h-2.42V514.6h2.42Zm0,15.75h-2.42v-2.42h2.42Z"/><path class="cls-2" d="M196.51,517h-2.42V514.6h2.42Zm0,2.62h-2.42v-2.41h2.42Zm0,2.63h-2.42v-2.42h2.42Zm0,2.62h-2.42v-2.41h2.42Zm0,2.63h-2.42V525.1h2.42Zm0,2.62h-2.42v-2.41h2.42Zm0,2.63h-2.42v-2.42h2.42ZM199.13,517h-2.41V514.6h2.41Zm0,7.87h-2.41v-2.41h2.41Zm2.63-7.87h-2.42V514.6h2.42Zm0,7.87h-2.42v-2.41h2.42Zm2.62-7.87H202V514.6h2.41Zm0,7.87H202v-2.41h2.41ZM207,517h-2.42V514.6H207Z"/><path class="cls-2" d="M212.26,514.4h-2.42V512h2.42Zm0,2.62h-2.42V514.6h2.42Zm0,2.62h-2.42v-2.41h2.42Zm0,2.63h-2.42v-2.42h2.42Zm0,2.62h-2.42v-2.41h2.42Zm0,2.63h-2.42V525.1h2.42Zm0,2.62h-2.42v-2.41h2.42Zm2.62,2.63h-2.41v-2.42h2.41Zm2.63,0h-2.42v-2.42h2.42Z"/><path class="cls-2" d="M222.76,530.14h-2.42v-2.41h2.42Zm2.62-7.87H223v-2.42h2.41Zm0,5.25H223V525.1h2.41Zm0,5.25H223v-2.42h2.41Zm2.63-10.5h-2.42v-2.42H228Zm0,5.25h-2.42V525.1H228Zm0,5.25h-2.42v-2.42H228Zm2.62-10.5h-2.41v-2.42h2.41Zm0,5.25h-2.41V525.1h2.41Zm0,5.25h-2.41v-2.42h2.41Zm2.63-7.88h-2.42v-2.41h2.42Zm0,2.63h-2.42V525.1h2.42Zm0,2.62h-2.42v-2.41h2.42Zm0,2.63h-2.42v-2.42h2.42Z"/><path class="cls-2" d="M241.13,524.89h-2.41v-2.41h2.41Zm0,7.88h-2.41v-2.42h2.41Zm2.63-10.5h-2.42v-2.42h2.42Zm0,5.25h-2.42V525.1h2.42Zm0,5.25h-2.42v-2.42h2.42Zm2.62-10.5H244v-2.42h2.41Zm0,5.25H244V525.1h2.41Zm0,5.25H244v-2.42h2.41Zm2.63-10.5h-2.42v-2.42H249Zm0,7.87h-2.42v-2.41H249Z"/><path class="cls-2" d="M256.88,514.4h-2.41V512h2.41Zm0,2.62h-2.41V514.6h2.41Zm0,2.62h-2.41v-2.41h2.41Zm0,2.63h-2.41v-2.42h2.41Zm0,2.62h-2.41v-2.41h2.41Zm0,2.63h-2.41V525.1h2.41Zm0,2.62h-2.41v-2.41h2.41Zm0,2.63h-2.41v-2.42h2.41Zm2.63-10.5h-2.42v-2.42h2.42Zm2.62,0h-2.41v-2.42h2.41Zm2.63,0h-2.42v-2.42h2.42Zm2.62,2.62H265v-2.41h2.41Zm0,2.63H265V525.1h2.41Zm0,2.62H265v-2.41h2.41Zm0,2.63H265v-2.42h2.41Z"/></g></g><g id="Line_4" data-name="Line 4"><rect class="cls-2" x="4.99" y="544.49" width="266.35" height="1"/></g><g id="_-_Unregulated_3.3v_input_-_SPI_Flash_pins_with_autoflash_mode_-_2nd_SPI_and_UART" data-name=" - Unregulated 3.3v input - SPI Flash pins with autoflash mode - 2nd SPI and UART" class="cls-1"><g class="cls-1"><path class="cls-2" d="M7.69,563.94H6.42v-1.27H7.69Zm1.37,0H7.79v-1.27H9.06Zm1.38,0H9.17v-1.27h1.27Zm1.37,0H10.55v-1.27h1.26Z"/><path class="cls-2" d="M20.06,558.44H18.79v-1.27h1.27Zm0,1.37H18.79v-1.26h1.27Zm0,1.38H18.79v-1.27h1.27Zm0,1.37H18.79V561.3h1.27Zm0,1.38H18.79v-1.27h1.27Zm0,1.37H18.79v-1.26h1.27Zm1.38,1.38H20.17v-1.27h1.27Zm1.37,0H21.55v-1.27h1.26Zm1.38,0H22.92v-1.27h1.27Zm1.37-8.25H24.3v-1.27h1.26Zm0,1.37H24.3v-1.26h1.26Zm0,1.38H24.3v-1.27h1.26Zm0,1.37H24.3V561.3h1.26Zm0,1.38H24.3v-1.27h1.26Zm0,1.37H24.3v-1.26h1.26Z"/><path class="cls-2" d="M29.69,561.19H28.42v-1.27h1.27Zm0,1.37H28.42V561.3h1.27Zm0,1.38H28.42v-1.27h1.27Zm0,1.37H28.42v-1.26h1.27Zm0,1.38H28.42v-1.27h1.27Zm1.37-5.5H29.79v-1.27h1.27Zm1.38,0H31.17v-1.27h1.27Zm1.37,0H32.55v-1.27h1.26Zm1.38,1.37H33.92V561.3h1.27Zm0,1.38H33.92v-1.27h1.27Zm0,1.37H33.92v-1.26h1.27Zm0,1.38H33.92v-1.27h1.27Z"/><path class="cls-2" d="M39.31,561.19H38v-1.27h1.27Zm0,1.37H38V561.3h1.27Zm0,1.38H38v-1.27h1.27Zm0,1.37H38v-1.26h1.27Zm0,1.38H38v-1.27h1.27Zm1.38-4.13H39.42V561.3h1.27Zm1.37-1.37H40.8v-1.27h1.26Zm1.38,0H42.17v-1.27h1.27Z"/><path class="cls-2" d="M46.19,562.56H44.92V561.3h1.27Zm0,1.38H44.92v-1.27h1.27Zm0,1.37H44.92v-1.26h1.27Zm1.37-4.12H46.29v-1.27h1.27Zm0,2.75H46.29v-1.27h1.27Zm0,2.75H46.29v-1.27h1.27Zm1.38-5.5H47.67v-1.27h1.27Zm0,2.75H47.67v-1.27h1.27Zm0,2.75H47.67v-1.27h1.27Zm1.37-5.5H49.05v-1.27h1.26Zm0,2.75H49.05v-1.27h1.26Zm0,2.75H49.05v-1.27h1.26Zm1.38-4.13H50.42V561.3h1.27Zm0,1.38H50.42v-1.27h1.27Zm0,2.75H50.42v-1.27h1.27Z"/><path class="cls-2" d="M55.81,562.56H54.54V561.3h1.27Zm0,1.38H54.54v-1.27h1.27Zm0,1.37H54.54v-1.26h1.27Zm0,4.13H54.54v-1.27h1.27Zm1.38-8.25H55.92v-1.27h1.27Zm0,5.5H55.92v-1.27h1.27Zm0,2.75H55.92v-1.27h1.27Zm1.37-8.25H57.3v-1.27h1.26Zm0,5.5H57.3v-1.27h1.26Zm0,2.75H57.3v-1.27h1.26Zm1.38-8.25H58.67v-1.27h1.27Zm0,5.5H58.67v-1.27h1.27Zm0,2.75H58.67v-1.27h1.27Zm1.37-8.25H60.05v-1.27h1.26Zm0,1.37H60.05V561.3h1.26Zm0,1.38H60.05v-1.27h1.26Zm0,1.37H60.05v-1.26h1.26Zm0,1.38H60.05v-1.27h1.26Zm0,1.37H60.05V566.8h1.26Z"/><path class="cls-2" d="M65.44,561.19H64.17v-1.27h1.27Zm0,1.37H64.17V561.3h1.27Zm0,1.38H64.17v-1.27h1.27Zm0,1.37H64.17v-1.26h1.27Zm1.37,1.38H65.54v-1.27h1.27Zm1.38,0H66.92v-1.27h1.27Zm1.37,0H68.3v-1.27h1.26Zm1.38-5.5H69.67v-1.27h1.27Zm0,1.37H69.67V561.3h1.27Zm0,1.38H69.67v-1.27h1.27Zm0,1.37H69.67v-1.26h1.27Zm0,1.38H69.67v-1.27h1.27Z"/><path class="cls-2" d="M75.06,557.06H73.79V555.8h1.27Zm0,1.38H73.79v-1.27h1.27Zm0,1.37H73.79v-1.26h1.27Zm0,1.38H73.79v-1.27h1.27Zm0,1.37H73.79V561.3h1.27Zm0,1.38H73.79v-1.27h1.27Zm0,1.37H73.79v-1.26h1.27Zm1.38,1.38H75.17v-1.27h1.27Zm1.37,0H76.55v-1.27h1.26Z"/><path class="cls-2" d="M80.56,565.31H79.29v-1.26h1.27Zm1.38-4.12H80.67v-1.27h1.27Zm0,2.75H80.67v-1.27h1.27Zm0,2.75H80.67v-1.27h1.27Zm1.37-5.5H82.05v-1.27h1.26Zm0,2.75H82.05v-1.27h1.26Zm0,2.75H82.05v-1.27h1.26Zm1.38-5.5H83.42v-1.27h1.27Zm0,2.75H83.42v-1.27h1.27Zm0,2.75H83.42v-1.27h1.27Zm1.37-4.13H84.8V561.3h1.26Zm0,1.38H84.8v-1.27h1.26Zm0,1.37H84.8v-1.26h1.26Zm0,1.38H84.8v-1.27h1.26Z"/><path class="cls-2" d="M90.19,558.44H88.92v-1.27h1.27Zm0,1.37H88.92v-1.26h1.27Zm0,1.38H88.92v-1.27h1.27Zm0,1.37H88.92V561.3h1.27Zm0,1.38H88.92v-1.27h1.27Zm0,1.37H88.92v-1.26h1.27Zm1.37-4.12H90.29v-1.27h1.27Zm0,5.5H90.29v-1.27h1.27Zm1.38-5.5H91.67v-1.27h1.27Zm0,5.5H91.67v-1.27h1.27Zm1.37-5.5H93.05v-1.27h1.26Zm0,5.5H93.05v-1.27h1.26Z"/><path class="cls-2" d="M98.44,562.56H97.17V561.3h1.27Zm0,1.38H97.17v-1.27h1.27Zm0,1.37H97.17v-1.26h1.27Zm1.37-4.12H98.54v-1.27h1.27Zm0,2.75H98.54v-1.27h1.27Zm0,2.75H98.54v-1.27h1.27Zm1.38-5.5H99.92v-1.27h1.27Zm0,2.75H99.92v-1.27h1.27Zm0,2.75H99.92v-1.27h1.27Zm1.37-5.5H101.3v-1.27h1.26Zm0,2.75H101.3v-1.27h1.26Zm0,2.75H101.3v-1.27h1.26Zm1.38-4.13h-1.27V561.3h1.27Zm0,1.38h-1.27v-1.27h1.27Zm0,2.75h-1.27v-1.27h1.27Z"/><path class="cls-2" d="M108.06,562.56h-1.27V561.3h1.27Zm0,1.38h-1.27v-1.27h1.27Zm0,1.37h-1.27v-1.26h1.27Zm1.38-4.12h-1.27v-1.27h1.27Zm0,5.5h-1.27v-1.27h1.27Zm1.37-5.5h-1.26v-1.27h1.26Zm0,5.5h-1.26v-1.27h1.26Zm1.38-5.5h-1.27v-1.27h1.27Zm0,5.5h-1.27v-1.27h1.27Zm1.37-9.63H112.3V555.8h1.26Zm0,1.38H112.3v-1.27h1.26Zm0,1.37H112.3v-1.26h1.26Zm0,1.38H112.3v-1.27h1.26Zm0,1.37H112.3V561.3h1.26Zm0,1.38H112.3v-1.27h1.26Zm0,1.37H112.3v-1.26h1.26Zm0,1.38H112.3v-1.27h1.26Z"/><path class="cls-2" d="M121.81,558.44h-1.27v-1.27h1.27Zm0,8.25h-1.27v-1.27h1.27Zm1.38-8.25h-1.27v-1.27h1.27Zm0,4.12h-1.27V561.3h1.27Zm0,4.13h-1.27v-1.27h1.27Zm1.37-8.25H123.3v-1.27h1.26Zm0,2.75H123.3v-1.27h1.26Zm0,1.37H123.3V561.3h1.26Zm0,4.13H123.3v-1.27h1.26Zm1.38-8.25h-1.27v-1.27h1.27Zm0,1.37h-1.27v-1.26h1.27Zm0,2.75h-1.27V561.3h1.27Zm0,4.13h-1.27v-1.27h1.27Zm1.37-8.25h-1.26v-1.27h1.26Zm0,5.5h-1.26v-1.27h1.26Zm0,1.37h-1.26v-1.26h1.26Z"/><path class="cls-2" d="M132.81,565.31h-1.27v-1.26h1.27Zm0,1.38h-1.27v-1.27h1.27Z"/><path class="cls-2" d="M136.94,558.44h-1.27v-1.27h1.27Zm0,8.25h-1.27v-1.27h1.27Zm1.37-8.25H137v-1.27h1.27Zm0,4.12H137V561.3h1.27Zm0,4.13H137v-1.27h1.27Zm1.38-8.25h-1.27v-1.27h1.27Zm0,2.75h-1.27v-1.27h1.27Zm0,1.37h-1.27V561.3h1.27Zm0,4.13h-1.27v-1.27h1.27Zm1.37-8.25H139.8v-1.27h1.26Zm0,1.37H139.8v-1.26h1.26Zm0,2.75H139.8V561.3h1.26Zm0,4.13H139.8v-1.27h1.26Zm1.38-8.25h-1.27v-1.27h1.27Zm0,5.5h-1.27v-1.27h1.27Zm0,1.37h-1.27v-1.26h1.27Z"/><path class="cls-2" d="M146.56,561.19h-1.27v-1.27h1.27Zm0,1.37h-1.27V561.3h1.27Zm0,1.38h-1.27v-1.27h1.27Zm1.38,1.37h-1.27v-1.26h1.27Zm1.37,1.38h-1.26v-1.27h1.26Zm1.38-1.38h-1.27v-1.26h1.27Zm1.37-4.12H150.8v-1.27h1.26Zm0,1.37H150.8V561.3h1.26Zm0,1.38H150.8v-1.27h1.26Z"/><path class="cls-2" d="M160.31,557.06h-1.26V555.8h1.26Zm0,4.13h-1.26v-1.27h1.26Zm0,1.37h-1.26V561.3h1.26Zm0,1.38h-1.26v-1.27h1.26Zm0,1.37h-1.26v-1.26h1.26Zm0,1.38h-1.26v-1.27h1.26Z"/><path class="cls-2" d="M164.44,561.19h-1.27v-1.27h1.27Zm0,1.37h-1.27V561.3h1.27Zm0,1.38h-1.27v-1.27h1.27Zm0,1.37h-1.27v-1.26h1.27Zm0,1.38h-1.27v-1.27h1.27Zm1.37-5.5h-1.26v-1.27h1.26Zm1.38,0h-1.27v-1.27h1.27Zm1.37,0H167.3v-1.27h1.26Zm1.38,1.37h-1.27V561.3h1.27Zm0,1.38h-1.27v-1.27h1.27Zm0,1.37h-1.27v-1.26h1.27Zm0,1.38h-1.27v-1.27h1.27Z"/><path class="cls-2" d="M174.06,561.19H172.8v-1.27h1.26Zm0,1.37H172.8V561.3h1.26Zm0,1.38H172.8v-1.27h1.26Zm0,1.37H172.8v-1.26h1.26Zm0,1.38H172.8v-1.27h1.26Zm0,1.37H172.8V566.8h1.26Zm0,1.38H172.8v-1.27h1.26Zm1.38-8.25h-1.27v-1.27h1.27Zm0,5.5h-1.27v-1.27h1.27Zm1.37-5.5h-1.26v-1.27h1.26Zm0,5.5h-1.26v-1.27h1.26Zm1.38-5.5h-1.27v-1.27h1.27Zm0,5.5h-1.27v-1.27h1.27Zm1.37-4.13H178.3V561.3h1.26Zm0,1.38H178.3v-1.27h1.26Zm0,1.37H178.3v-1.26h1.26Z"/><path class="cls-2" d="M183.69,561.19h-1.27v-1.27h1.27Zm0,1.37h-1.27V561.3h1.27Zm0,1.38h-1.27v-1.27h1.27Zm0,1.37h-1.27v-1.26h1.27Zm1.37,1.38H183.8v-1.27h1.26Zm1.38,0h-1.27v-1.27h1.27Zm1.37,0h-1.26v-1.27h1.26Zm1.38-5.5h-1.27v-1.27h1.27Zm0,1.37h-1.27V561.3h1.27Zm0,1.38h-1.27v-1.27h1.27Zm0,1.37h-1.27v-1.26h1.27Zm0,1.38h-1.27v-1.27h1.27Z"/><path class="cls-2" d="M193.31,558.44h-1.26v-1.27h1.26Zm0,1.37h-1.26v-1.26h1.26Zm0,1.38h-1.26v-1.27h1.26Zm0,1.37h-1.26V561.3h1.26Zm0,1.38h-1.26v-1.27h1.26Zm0,1.37h-1.26v-1.26h1.26Zm1.38-4.12h-1.27v-1.27h1.27Zm0,5.5h-1.27v-1.27h1.27Zm1.37-5.5H194.8v-1.27h1.26Zm0,5.5H194.8v-1.27h1.26Zm1.38-5.5h-1.27v-1.27h1.27Zm0,5.5h-1.27v-1.27h1.27Z"/></g><g class="cls-1"><path class="cls-2" d="M7.69,578.94H6.42v-1.27H7.69Zm1.37,0H7.79v-1.27H9.06Zm1.38,0H9.17v-1.27h1.27Zm1.37,0H10.55v-1.27h1.26Z"/><path class="cls-2" d="M20.06,574.81H18.79v-1.26h1.27Zm0,1.38H18.79v-1.27h1.27Zm0,5.5H18.79v-1.27h1.27Zm1.38-8.25H20.17v-1.27h1.27Zm0,4.12H20.17V576.3h1.27Zm0,4.13H20.17v-1.27h1.27Zm1.37-8.25H21.55v-1.27h1.26Zm0,4.12H21.55V576.3h1.26Zm0,4.13H21.55v-1.27h1.26Zm1.38-8.25H22.92v-1.27h1.27Zm0,4.12H22.92V576.3h1.27Zm0,4.13H22.92v-1.27h1.27Zm1.37-8.25H24.3v-1.27h1.26Zm0,5.5H24.3v-1.27h1.26Zm0,1.37H24.3v-1.26h1.26Z"/><path class="cls-2" d="M29.69,573.44H28.42v-1.27h1.27Zm0,1.37H28.42v-1.26h1.27Zm0,1.38H28.42v-1.27h1.27Zm0,1.37H28.42V576.3h1.27Zm0,1.38H28.42v-1.27h1.27Zm0,1.37H28.42v-1.26h1.27Zm0,1.38H28.42v-1.27h1.27Zm1.37-8.25H29.79v-1.27h1.27Zm0,4.12H29.79V576.3h1.27Zm1.38-4.12H31.17v-1.27h1.27Zm0,4.12H31.17V576.3h1.27Zm1.37-4.12H32.55v-1.27h1.26Zm0,4.12H32.55V576.3h1.26Zm1.38-2.75H33.92v-1.26h1.27Zm0,1.38H33.92v-1.27h1.27Z"/><path class="cls-2" d="M39.31,573.44H38v-1.27h1.27Zm0,8.25H38v-1.27h1.27Zm1.38-8.25H39.42v-1.27h1.27Zm0,1.37H39.42v-1.26h1.27Zm0,1.38H39.42v-1.27h1.27Zm0,1.37H39.42V576.3h1.27Zm0,1.38H39.42v-1.27h1.27Zm0,1.37H39.42v-1.26h1.27Zm0,1.38H39.42v-1.27h1.27Zm1.37-8.25H40.8v-1.27h1.26Zm0,8.25H40.8v-1.27h1.26Z"/><path class="cls-2" d="M50.31,573.44H49v-1.27h1.27Zm0,1.37H49v-1.26h1.27Zm0,1.38H49v-1.27h1.27Zm0,1.37H49V576.3h1.27Zm0,1.38H49v-1.27h1.27Zm0,1.37H49v-1.26h1.27Zm0,1.38H49v-1.27h1.27Zm1.38-8.25H50.42v-1.27h1.27Zm0,4.12H50.42V576.3h1.27Zm1.37-4.12H51.8v-1.27h1.26Zm0,4.12H51.8V576.3h1.26Zm1.38-4.12H53.17v-1.27h1.27Zm0,4.12H53.17V576.3h1.27Zm1.37-4.12H54.55v-1.27h1.26Z"/><path class="cls-2" d="M58.56,572.06H57.29V570.8h1.27Zm0,1.38H57.29v-1.27h1.27Zm0,1.37H57.29v-1.26h1.27Zm0,1.38H57.29v-1.27h1.27Zm0,1.37H57.29V576.3h1.27Zm0,1.38H57.29v-1.27h1.27Zm0,1.37H57.29v-1.26h1.27Zm1.38,1.38H58.67v-1.27h1.27Zm1.37,0H60.05v-1.27h1.26Z"/><path class="cls-2" d="M64.06,580.31H62.79v-1.26h1.27Zm1.38-4.12H64.17v-1.27h1.27Zm0,2.75H64.17v-1.27h1.27Zm0,2.75H64.17v-1.27h1.27Zm1.37-5.5H65.55v-1.27h1.26Zm0,2.75H65.55v-1.27h1.26Zm0,2.75H65.55v-1.27h1.26Zm1.38-5.5H66.92v-1.27h1.27Zm0,2.75H66.92v-1.27h1.27Zm0,2.75H66.92v-1.27h1.27Zm1.37-4.13H68.3V576.3h1.26Zm0,1.38H68.3v-1.27h1.26Zm0,1.37H68.3v-1.26h1.26Zm0,1.38H68.3v-1.27h1.26Z"/><path class="cls-2" d="M73.69,577.56H72.42V576.3h1.27Zm0,4.13H72.42v-1.27h1.27Zm1.37-5.5H73.79v-1.27h1.27Zm0,2.75H73.79v-1.27h1.27Zm0,2.75H73.79v-1.27h1.27Zm1.38-5.5H75.17v-1.27h1.27Zm0,2.75H75.17v-1.27h1.27Zm0,2.75H75.17v-1.27h1.27Zm1.37-5.5H76.55v-1.27h1.26Zm0,4.12H76.55v-1.26h1.26Z"/><path class="cls-2" d="M81.94,572.06H80.67V570.8h1.27Zm0,1.38H80.67v-1.27h1.27Zm0,1.37H80.67v-1.26h1.27Zm0,1.38H80.67v-1.27h1.27Zm0,1.37H80.67V576.3h1.27Zm0,1.38H80.67v-1.27h1.27Zm0,1.37H80.67v-1.26h1.27Zm0,1.38H80.67v-1.27h1.27Zm1.37-5.5H82v-1.27h1.27Zm1.38,0H83.42v-1.27h1.27Zm1.37,0H84.8v-1.27h1.26Zm1.38,1.37H86.17V576.3h1.27Zm0,1.38H86.17v-1.27h1.27Zm0,1.37H86.17v-1.26h1.27Zm0,1.38H86.17v-1.27h1.27Z"/><path class="cls-2" d="M95.69,576.19H94.42v-1.27h1.27Zm0,1.37H94.42V576.3h1.27Zm0,1.38H94.42v-1.27h1.27Zm0,1.37H94.42v-1.26h1.27Zm0,1.38H94.42v-1.27h1.27Zm0,1.37H94.42V581.8h1.27Zm0,1.38H94.42v-1.27h1.27Zm1.37-8.25H95.79v-1.27h1.27Zm0,5.5H95.79v-1.27h1.27Zm1.38-5.5H97.17v-1.27h1.27Zm0,5.5H97.17v-1.27h1.27Zm1.37-5.5H98.55v-1.27h1.26Zm0,5.5H98.55v-1.27h1.26Zm1.38-4.13H99.92V576.3h1.27Zm0,1.38H99.92v-1.27h1.27Zm0,1.37H99.92v-1.26h1.27Z"/><path class="cls-2" d="M105.31,572.06H104V570.8h1.27Zm0,4.13H104v-1.27h1.27Zm0,1.37H104V576.3h1.27Zm0,1.38H104v-1.27h1.27Zm0,1.37H104v-1.26h1.27Zm0,1.38H104v-1.27h1.27Z"/><path class="cls-2" d="M109.44,576.19h-1.27v-1.27h1.27Zm0,1.37h-1.27V576.3h1.27Zm0,1.38h-1.27v-1.27h1.27Zm0,1.37h-1.27v-1.26h1.27Zm0,1.38h-1.27v-1.27h1.27Zm1.37-5.5h-1.27v-1.27h1.27Zm1.38,0h-1.27v-1.27h1.27Zm1.37,0H112.3v-1.27h1.26Zm1.38,1.37h-1.27V576.3h1.27Zm0,1.38h-1.27v-1.27h1.27Zm0,1.37h-1.27v-1.26h1.27Zm0,1.38h-1.27v-1.27h1.27Z"/><path class="cls-2" d="M119.06,577.56h-1.27V576.3h1.27Zm0,4.13h-1.27v-1.27h1.27Zm1.38-5.5h-1.27v-1.27h1.27Zm0,2.75h-1.27v-1.27h1.27Zm0,2.75h-1.27v-1.27h1.27Zm1.37-5.5h-1.26v-1.27h1.26Zm0,2.75h-1.26v-1.27h1.26Zm0,2.75h-1.26v-1.27h1.26Zm1.38-5.5h-1.27v-1.27h1.27Zm0,4.12h-1.27v-1.26h1.27Z"/><path class="cls-2" d="M131.44,576.19h-1.27v-1.27h1.27Zm0,1.37h-1.27V576.3h1.27Zm0,1.38h-1.27v-1.27h1.27Zm0,1.37h-1.27v-1.26h1.27Zm1.37,1.38h-1.27v-1.27h1.27Zm1.38-1.38h-1.27v-1.26h1.27Zm1.37-2.75H134.3V576.3h1.26Zm0,1.38H134.3v-1.27h1.26Zm1.38,1.37h-1.27v-1.26h1.27Zm1.37,1.38h-1.26v-1.27h1.26Zm1.38-5.5h-1.27v-1.27h1.27Zm0,1.37h-1.27V576.3h1.27Zm0,1.38h-1.27v-1.27h1.27Zm0,1.37h-1.27v-1.26h1.27Z"/><path class="cls-2" d="M143.81,572.06h-1.27V570.8h1.27Zm0,4.13h-1.27v-1.27h1.27Zm0,1.37h-1.27V576.3h1.27Zm0,1.38h-1.27v-1.27h1.27Zm0,1.37h-1.27v-1.26h1.27Zm0,1.38h-1.27v-1.27h1.27Z"/><path class="cls-2" d="M147.94,573.44h-1.27v-1.27h1.27Zm0,1.37h-1.27v-1.26h1.27Zm0,1.38h-1.27v-1.27h1.27Zm0,1.37h-1.27V576.3h1.27Zm0,1.38h-1.27v-1.27h1.27Zm0,1.37h-1.27v-1.26h1.27Zm1.37-4.12h-1.26v-1.27h1.26Zm0,5.5h-1.26v-1.27h1.26Zm1.38-5.5h-1.27v-1.27h1.27Zm0,5.5h-1.27v-1.27h1.27Zm1.37-5.5H150.8v-1.27h1.26Zm0,5.5H150.8v-1.27h1.26Z"/><path class="cls-2" d="M156.19,572.06h-1.27V570.8h1.27Zm0,1.38h-1.27v-1.27h1.27Zm0,1.37h-1.27v-1.26h1.27Zm0,1.38h-1.27v-1.27h1.27Zm0,1.37h-1.27V576.3h1.27Zm0,1.38h-1.27v-1.27h1.27Zm0,1.37h-1.27v-1.26h1.27Zm0,1.38h-1.27v-1.27h1.27Zm1.37-5.5H156.3v-1.27h1.26Zm1.38,0h-1.27v-1.27h1.27Zm1.37,0h-1.26v-1.27h1.26Zm1.38,1.37h-1.27V576.3h1.27Zm0,1.38h-1.27v-1.27h1.27Zm0,1.37h-1.27v-1.26h1.27Zm0,1.38h-1.27v-1.27h1.27Z"/><path class="cls-2" d="M169.94,580.31h-1.27v-1.26h1.27Zm1.37-4.12h-1.26v-1.27h1.26Zm0,2.75h-1.26v-1.27h1.26Zm0,2.75h-1.26v-1.27h1.26Zm1.38-5.5h-1.27v-1.27h1.27Zm0,2.75h-1.27v-1.27h1.27Zm0,2.75h-1.27v-1.27h1.27Zm1.37-5.5H172.8v-1.27h1.26Zm0,2.75H172.8v-1.27h1.26Zm0,2.75H172.8v-1.27h1.26Zm1.38-4.13h-1.27V576.3h1.27Zm0,1.38h-1.27v-1.27h1.27Zm0,1.37h-1.27v-1.26h1.27Zm0,1.38h-1.27v-1.27h1.27Z"/><path class="cls-2" d="M179.56,576.19H178.3v-1.27h1.26Zm0,1.37H178.3V576.3h1.26Zm0,1.38H178.3v-1.27h1.26Zm0,1.37H178.3v-1.26h1.26Zm1.38,1.38h-1.27v-1.27h1.27Zm1.37,0h-1.26v-1.27h1.26Zm1.38,0h-1.27v-1.27h1.27Zm1.37-5.5H183.8v-1.27h1.26Zm0,1.37H183.8V576.3h1.26Zm0,1.38H183.8v-1.27h1.26Zm0,1.37H183.8v-1.26h1.26Zm0,1.38H183.8v-1.27h1.26Z"/><path class="cls-2" d="M189.19,573.44h-1.27v-1.27h1.27Zm0,1.37h-1.27v-1.26h1.27Zm0,1.38h-1.27v-1.27h1.27Zm0,1.37h-1.27V576.3h1.27Zm0,1.38h-1.27v-1.27h1.27Zm0,1.37h-1.27v-1.26h1.27Zm1.37-4.12H189.3v-1.27h1.26Zm0,5.5H189.3v-1.27h1.26Zm1.38-5.5h-1.27v-1.27h1.27Zm0,5.5h-1.27v-1.27h1.27Zm1.37-5.5h-1.26v-1.27h1.26Zm0,5.5h-1.26v-1.27h1.26Z"/><path class="cls-2" d="M197.44,577.56h-1.27V576.3h1.27Zm0,1.38h-1.27v-1.27h1.27Zm0,1.37h-1.27v-1.26h1.27Zm1.37-4.12h-1.26v-1.27h1.26Zm0,5.5h-1.26v-1.27h1.26Zm1.38-5.5h-1.27v-1.27h1.27Zm0,5.5h-1.27v-1.27h1.27Zm1.37-5.5H200.3v-1.27h1.26Zm0,5.5H200.3v-1.27h1.26Zm1.38-4.13h-1.27V576.3h1.27Zm0,1.38h-1.27v-1.27h1.27Zm0,1.37h-1.27v-1.26h1.27Z"/><path class="cls-2" d="M205.69,576.19h-1.27v-1.27h1.27Zm1.37,0H205.8v-1.27h1.26Zm1.38-2.75h-1.27v-1.27h1.27Zm0,1.37h-1.27v-1.26h1.27Zm0,1.38h-1.27v-1.27h1.27Zm0,1.37h-1.27V576.3h1.27Zm0,1.38h-1.27v-1.27h1.27Zm0,1.37h-1.27v-1.26h1.27Zm0,1.38h-1.27v-1.27h1.27Zm1.37-9.63h-1.26V570.8h1.26Zm0,4.13h-1.26v-1.27h1.26Zm1.38-4.13h-1.27V570.8h1.27Zm0,4.13h-1.27v-1.27h1.27Zm1.37-4.13H211.3V570.8h1.26Zm1.38,0h-1.27V570.8h1.27Zm0,1.38h-1.27v-1.27h1.27Zm0,1.37h-1.27v-1.26h1.27Zm0,1.38h-1.27v-1.27h1.27Zm0,1.37h-1.27V576.3h1.27Zm0,1.38h-1.27v-1.27h1.27Zm0,1.37h-1.27v-1.26h1.27Zm1.37,1.38h-1.26v-1.27h1.26Zm1.38,0h-1.27v-1.27h1.27Z"/><path class="cls-2" d="M219.44,580.31h-1.27v-1.26h1.27Zm1.37-4.12h-1.26v-1.27h1.26Zm0,2.75h-1.26v-1.27h1.26Zm0,2.75h-1.26v-1.27h1.26Zm1.38-5.5h-1.27v-1.27h1.27Zm0,2.75h-1.27v-1.27h1.27Zm0,2.75h-1.27v-1.27h1.27Zm1.37-5.5H222.3v-1.27h1.26Zm0,2.75H222.3v-1.27h1.26Zm0,2.75H222.3v-1.27h1.26Zm1.38-4.13h-1.27V576.3h1.27Zm0,1.38h-1.27v-1.27h1.27Zm0,1.37h-1.27v-1.26h1.27Zm0,1.38h-1.27v-1.27h1.27Z"/><path class="cls-2" d="M229.06,577.56H227.8V576.3h1.26Zm0,4.13H227.8v-1.27h1.26Zm1.38-5.5h-1.27v-1.27h1.27Zm0,2.75h-1.27v-1.27h1.27Zm0,2.75h-1.27v-1.27h1.27Zm1.37-5.5h-1.26v-1.27h1.26Zm0,2.75h-1.26v-1.27h1.26Zm0,2.75h-1.26v-1.27h1.26Zm1.38-5.5h-1.27v-1.27h1.27Zm0,4.12h-1.27v-1.26h1.27Z"/><path class="cls-2" d="M237.31,572.06h-1.26V570.8h1.26Zm0,1.38h-1.26v-1.27h1.26Zm0,1.37h-1.26v-1.26h1.26Zm0,1.38h-1.26v-1.27h1.26Zm0,1.37h-1.26V576.3h1.26Zm0,1.38h-1.26v-1.27h1.26Zm0,1.37h-1.26v-1.26h1.26Zm0,1.38h-1.26v-1.27h1.26Zm1.38-5.5h-1.27v-1.27h1.27Zm1.37,0H238.8v-1.27h1.26Zm1.38,0h-1.27v-1.27h1.27Zm1.37,1.37h-1.26V576.3h1.26Zm0,1.38h-1.26v-1.27h1.26Zm0,1.37h-1.26v-1.26h1.26Zm0,1.38h-1.26v-1.27h1.26Z"/><path class="cls-2" d="M251.06,576.19H249.8v-1.27h1.26Zm0,1.37H249.8V576.3h1.26Zm0,1.38H249.8v-1.27h1.26Zm0,1.37H249.8v-1.26h1.26Zm0,1.38H249.8v-1.27h1.26Zm1.38-5.5h-1.27v-1.27h1.27Zm1.37,0h-1.26v-1.27h1.26Zm1.38,0h-1.27v-1.27h1.27Zm0,1.37h-1.27V576.3h1.27Zm0,1.38h-1.27v-1.27h1.27Zm0,1.37h-1.27v-1.26h1.27Zm0,1.38h-1.27v-1.27h1.27Zm1.37-5.5H255.3v-1.27h1.26Zm1.38,0h-1.27v-1.27h1.27Zm1.37,1.37h-1.26V576.3h1.26Zm0,1.38h-1.26v-1.27h1.26Zm0,1.37h-1.26v-1.26h1.26Zm0,1.38h-1.26v-1.27h1.26Z"/><path class="cls-2" d="M263.44,577.56h-1.27V576.3h1.27Zm0,1.38h-1.27v-1.27h1.27Zm0,1.37h-1.27v-1.26h1.27Zm1.37-4.12h-1.26v-1.27h1.26Zm0,5.5h-1.26v-1.27h1.26Zm1.38-5.5h-1.27v-1.27h1.27Zm0,5.5h-1.27v-1.27h1.27Zm1.37-5.5H266.3v-1.27h1.26Zm0,5.5H266.3v-1.27h1.26Zm1.38-4.13h-1.27V576.3h1.27Zm0,1.38h-1.27v-1.27h1.27Zm0,1.37h-1.27v-1.26h1.27Z"/><path class="cls-2" d="M273.06,577.56H271.8V576.3h1.26Zm0,1.38H271.8v-1.27h1.26Zm0,1.37H271.8v-1.26h1.26Zm1.38-4.12h-1.27v-1.27h1.27Zm0,5.5h-1.27v-1.27h1.27Zm1.37-5.5h-1.26v-1.27h1.26Zm0,5.5h-1.26v-1.27h1.26Zm1.38-5.5h-1.27v-1.27h1.27Zm0,5.5h-1.27v-1.27h1.27Zm1.37-9.63H277.3V570.8h1.26Zm0,1.38H277.3v-1.27h1.26Zm0,1.37H277.3v-1.26h1.26Zm0,1.38H277.3v-1.27h1.26Zm0,1.37H277.3V576.3h1.26Zm0,1.38H277.3v-1.27h1.26Zm0,1.37H277.3v-1.26h1.26Zm0,1.38H277.3v-1.27h1.26Z"/><path class="cls-2" d="M282.69,577.56h-1.27V576.3h1.27Zm0,1.38h-1.27v-1.27h1.27Zm0,1.37h-1.27v-1.26h1.27Zm1.37-4.12H282.8v-1.27h1.26Zm0,2.75H282.8v-1.27h1.26Zm0,2.75H282.8v-1.27h1.26Zm1.38-5.5h-1.27v-1.27h1.27Zm0,2.75h-1.27v-1.27h1.27Zm0,2.75h-1.27v-1.27h1.27Zm1.37-5.5h-1.26v-1.27h1.26Zm0,2.75h-1.26v-1.27h1.26Zm0,2.75h-1.26v-1.27h1.26Zm1.38-4.13h-1.27V576.3h1.27Zm0,1.38h-1.27v-1.27h1.27Zm0,2.75h-1.27v-1.27h1.27Z"/></g><g class="cls-1"><path class="cls-2" d="M7.69,593.94H6.42v-1.27H7.69Zm1.37,0H7.79v-1.27H9.06Zm1.38,0H9.17v-1.27h1.27Zm1.37,0H10.55v-1.27h1.26Z"/><path class="cls-2" d="M20.06,588.44H18.79v-1.27h1.27Zm0,6.87H18.79v-1.26h1.27Zm0,1.38H18.79v-1.27h1.27Zm1.38-8.25H20.17v-1.27h1.27Zm0,5.5H20.17v-1.27h1.27Zm0,2.75H20.17v-1.27h1.27Zm1.37-8.25H21.55v-1.27h1.26Zm0,4.12H21.55V591.3h1.26Zm0,4.13H21.55v-1.27h1.26Zm1.38-8.25H22.92v-1.27h1.27Zm0,4.12H22.92V591.3h1.27Zm0,4.13H22.92v-1.27h1.27Zm1.37-6.88H24.3v-1.26h1.26Zm0,1.38H24.3v-1.27h1.26Zm0,5.5H24.3v-1.27h1.26Z"/><path class="cls-2" d="M29.69,591.19H28.42v-1.27h1.27Zm0,1.37H28.42V591.3h1.27Zm0,1.38H28.42v-1.27h1.27Zm0,1.37H28.42v-1.26h1.27Zm0,1.38H28.42v-1.27h1.27Zm1.37-5.5H29.79v-1.27h1.27Zm1.38,0H31.17v-1.27h1.27Zm1.37,0H32.55v-1.27h1.26Zm1.38,1.37H33.92V591.3h1.27Zm0,1.38H33.92v-1.27h1.27Zm0,1.37H33.92v-1.26h1.27Zm0,1.38H33.92v-1.27h1.27Z"/><path class="cls-2" d="M39.31,592.56H38V591.3h1.27Zm0,1.38H38v-1.27h1.27Zm0,1.37H38v-1.26h1.27Zm1.38-4.12H39.42v-1.27h1.27Zm0,5.5H39.42v-1.27h1.27Zm1.37-5.5H40.8v-1.27h1.26Zm0,5.5H40.8v-1.27h1.26Zm1.38-5.5H42.17v-1.27h1.27Zm0,5.5H42.17v-1.27h1.27Zm1.37-9.63H43.55V585.8h1.26Zm0,1.38H43.55v-1.27h1.26Zm0,1.37H43.55v-1.26h1.26Zm0,1.38H43.55v-1.27h1.26Zm0,1.37H43.55V591.3h1.26Zm0,1.38H43.55v-1.27h1.26Zm0,1.37H43.55v-1.26h1.26Zm0,1.38H43.55v-1.27h1.26Z"/><path class="cls-2" d="M53.06,589.81H51.79v-1.26h1.27Zm0,1.38H51.79v-1.27h1.27Zm0,5.5H51.79v-1.27h1.27Zm1.38-8.25H53.17v-1.27h1.27Zm0,4.12H53.17V591.3h1.27Zm0,4.13H53.17v-1.27h1.27Zm1.37-8.25H54.55v-1.27h1.26Zm0,4.12H54.55V591.3h1.26Zm0,4.13H54.55v-1.27h1.26Zm1.38-8.25H55.92v-1.27h1.27Zm0,4.12H55.92V591.3h1.27Zm0,4.13H55.92v-1.27h1.27Zm1.37-8.25H57.3v-1.27h1.26Zm0,5.5H57.3v-1.27h1.26Zm0,1.37H57.3v-1.26h1.26Z"/><path class="cls-2" d="M62.69,588.44H61.42v-1.27h1.27Zm0,1.37H61.42v-1.26h1.27Zm0,1.38H61.42v-1.27h1.27Zm0,1.37H61.42V591.3h1.27Zm0,1.38H61.42v-1.27h1.27Zm0,1.37H61.42v-1.26h1.27Zm0,1.38H61.42v-1.27h1.27Zm1.37-8.25H62.79v-1.27h1.27Zm0,4.12H62.79V591.3h1.27Zm1.38-4.12H64.17v-1.27h1.27Zm0,4.12H64.17V591.3h1.27Zm1.37-4.12H65.55v-1.27h1.26Zm0,4.12H65.55V591.3h1.26Zm1.38-2.75H66.92v-1.26h1.27Zm0,1.38H66.92v-1.27h1.27Z"/><path class="cls-2" d="M72.31,588.44H71v-1.27h1.27Zm0,8.25H71v-1.27h1.27Zm1.38-8.25H72.42v-1.27h1.27Zm0,1.37H72.42v-1.26h1.27Zm0,1.38H72.42v-1.27h1.27Zm0,1.37H72.42V591.3h1.27Zm0,1.38H72.42v-1.27h1.27Zm0,1.37H72.42v-1.26h1.27Zm0,1.38H72.42v-1.27h1.27Zm1.37-8.25H73.8v-1.27h1.26Zm0,8.25H73.8v-1.27h1.26Z"/><path class="cls-2" d="M83.31,595.31H82v-1.26h1.27Zm1.38-4.12H83.42v-1.27h1.27Zm0,2.75H83.42v-1.27h1.27Zm0,2.75H83.42v-1.27h1.27Zm1.37-5.5H84.8v-1.27h1.26Zm0,2.75H84.8v-1.27h1.26Zm0,2.75H84.8v-1.27h1.26Zm1.38-5.5H86.17v-1.27h1.27Zm0,2.75H86.17v-1.27h1.27Zm0,2.75H86.17v-1.27h1.27Zm1.37-4.13H87.55V591.3h1.26Zm0,1.38H87.55v-1.27h1.26Zm0,1.37H87.55v-1.26h1.26Zm0,1.38H87.55v-1.27h1.26Z"/><path class="cls-2" d="M92.94,591.19H91.67v-1.27h1.27Zm0,1.37H91.67V591.3h1.27Zm0,1.38H91.67v-1.27h1.27Zm0,1.37H91.67v-1.26h1.27Zm0,1.38H91.67v-1.27h1.27Zm1.37-5.5H93v-1.27h1.27Zm1.38,0H94.42v-1.27h1.27Zm1.37,0H95.8v-1.27h1.26Zm1.38,1.37H97.17V591.3h1.27Zm0,1.38H97.17v-1.27h1.27Zm0,1.37H97.17v-1.26h1.27Zm0,1.38H97.17v-1.27h1.27Z"/><path class="cls-2" d="M102.56,592.56h-1.27V591.3h1.27Zm0,1.38h-1.27v-1.27h1.27Zm0,1.37h-1.27v-1.26h1.27Zm1.38-4.12h-1.27v-1.27h1.27Zm0,5.5h-1.27v-1.27h1.27Zm1.37-5.5h-1.26v-1.27h1.26Zm0,5.5h-1.26v-1.27h1.26Zm1.38-5.5h-1.27v-1.27h1.27Zm0,5.5h-1.27v-1.27h1.27Zm1.37-9.63H106.8V585.8h1.26Zm0,1.38H106.8v-1.27h1.26Zm0,1.37H106.8v-1.26h1.26Zm0,1.38H106.8v-1.27h1.26Zm0,1.37H106.8V591.3h1.26Zm0,1.38H106.8v-1.27h1.26Zm0,1.37H106.8v-1.26h1.26Zm0,1.38H106.8v-1.27h1.26Z"/><path class="cls-2" d="M116.31,588.44H115v-1.27h1.27Zm0,1.37H115v-1.26h1.27Zm0,1.38H115v-1.27h1.27Zm0,1.37H115V591.3h1.27Zm0,1.38H115v-1.27h1.27Zm0,1.37H115v-1.26h1.27Zm1.38,1.38h-1.27v-1.27h1.27Zm1.37,0H117.8v-1.27h1.26Zm1.38,0h-1.27v-1.27h1.27Zm1.37-8.25h-1.26v-1.27h1.26Zm0,1.37h-1.26v-1.26h1.26Zm0,1.38h-1.26v-1.27h1.26Zm0,1.37h-1.26V591.3h1.26Zm0,1.38h-1.26v-1.27h1.26Zm0,1.37h-1.26v-1.26h1.26Z"/><path class="cls-2" d="M125.94,589.81h-1.27v-1.26h1.27Zm0,1.38h-1.27v-1.27h1.27Zm0,1.37h-1.27V591.3h1.27Zm0,1.38h-1.27v-1.27h1.27Zm0,1.37h-1.27v-1.26h1.27Zm0,1.38h-1.27v-1.27h1.27Zm1.37-8.25H126v-1.27h1.27Zm0,5.5H126v-1.27h1.27Zm1.38-5.5h-1.27v-1.27h1.27Zm0,5.5h-1.27v-1.27h1.27Zm1.37-5.5H128.8v-1.27h1.26Zm0,5.5H128.8v-1.27h1.26Zm1.38-4.13h-1.27v-1.26h1.27Zm0,1.38h-1.27v-1.27h1.27Zm0,1.37h-1.27V591.3h1.27Zm0,1.38h-1.27v-1.27h1.27Zm0,1.37h-1.27v-1.26h1.27Zm0,1.38h-1.27v-1.27h1.27Z"/><path class="cls-2" d="M135.56,588.44h-1.27v-1.27h1.27Zm0,1.37h-1.27v-1.26h1.27Zm0,1.38h-1.27v-1.27h1.27Zm0,1.37h-1.27V591.3h1.27Zm0,1.38h-1.27v-1.27h1.27Zm0,1.37h-1.27v-1.26h1.27Zm0,1.38h-1.27v-1.27h1.27Zm1.38-8.25h-1.27v-1.27h1.27Zm0,4.12h-1.27V591.3h1.27Zm1.37-4.12h-1.26v-1.27h1.26Zm0,4.12h-1.26V591.3h1.26Zm0,1.38h-1.26v-1.27h1.26Zm1.38-5.5h-1.27v-1.27h1.27Zm0,4.12h-1.27V591.3h1.27Zm0,2.75h-1.27v-1.26h1.27Zm1.37-5.5H139.8v-1.26h1.26Zm0,1.38H139.8v-1.27h1.26Zm0,5.5H139.8v-1.27h1.26Z"/><path class="cls-2" d="M143.81,588.44h-1.27v-1.27h1.27Zm1.38,0h-1.27v-1.27h1.27Zm1.37,0h-1.27v-1.27h1.27Zm0,1.37h-1.27v-1.26h1.27Zm0,1.38h-1.27v-1.27h1.27Zm0,1.37h-1.27V591.3h1.27Zm0,1.38h-1.27v-1.27h1.27Zm0,1.37h-1.27v-1.26h1.27Zm0,1.38h-1.27v-1.27h1.27Zm1.38-8.25h-1.27v-1.27h1.27Zm1.37,0h-1.26v-1.27h1.26Z"/></g></g></g><g id="Data"><g id="Data_Lines_-_Busses" data-name="Data Lines - Busses" class="cls-1"><g class="cls-1"><path class="cls-3" d="M5.14,5H2.73V2.62H5.14Zm0,2.62H2.73V5.25H5.14Zm0,2.63H2.73V7.87H5.14Zm0,2.62H2.73V10.5H5.14Zm0,2.63H2.73V13.12H5.14Zm0,2.62H2.73V15.75H5.14Zm0,2.63H2.73V18.37H5.14ZM7.77,5H5.35V2.62H7.77Zm0,15.75H5.35V18.37H7.77ZM10.39,5H8V2.62h2.41Zm0,15.75H8V18.37h2.41ZM13,7.66H10.6V5.25H13Zm0,10.5H10.6V15.75H13Zm2.62-7.87H13.23V7.87h2.41Zm0,2.62H13.23V10.5h2.41Zm0,2.63H13.23V13.12h2.41Z"/><path class="cls-3" d="M23.52,18.16H21.1V15.75h2.42Zm2.62-7.87H23.73V7.87h2.41Zm0,5.25H23.73V13.12h2.41Zm0,5.25H23.73V18.37h2.41Zm2.63-10.5H26.35V7.87h2.42Zm0,5.25H26.35V13.12h2.42Zm0,5.25H26.35V18.37h2.42Zm2.62-10.5H29V7.87h2.41Zm0,5.25H29V13.12h2.41Zm0,5.25H29V18.37h2.41ZM34,12.91H31.6V10.5H34Zm0,2.63H31.6V13.12H34Zm0,2.62H31.6V15.75H34Zm0,2.63H31.6V18.37H34Z"/><path class="cls-3" d="M41.89,5H39.48V2.62h2.41Zm0,2.62H39.48V5.25h2.41Zm0,2.63H39.48V7.87h2.41Zm0,2.62H39.48V10.5h2.41Zm0,2.63H39.48V13.12h2.41Zm0,2.62H39.48V15.75h2.41Zm2.63-7.87H42.1V7.87h2.42Zm0,10.5H42.1V18.37h2.42Zm2.62-10.5H44.73V7.87h2.41Zm0,10.5H44.73V18.37h2.41Zm2.63-10.5H47.35V7.87h2.42Zm0,10.5H47.35V18.37h2.42Z"/><path class="cls-3" d="M55,18.16H52.6V15.75H55Zm2.62-7.87H55.23V7.87h2.41Zm0,5.25H55.23V13.12h2.41Zm0,5.25H55.23V18.37h2.41Zm2.63-10.5H57.85V7.87h2.42Zm0,5.25H57.85V13.12h2.42Zm0,5.25H57.85V18.37h2.42Zm2.62-10.5H60.48V7.87h2.41Zm0,5.25H60.48V13.12h2.41Zm0,5.25H60.48V18.37h2.41Zm2.63-7.88H63.1V10.5h2.42Zm0,2.63H63.1V13.12h2.42Zm0,2.62H63.1V15.75h2.42Zm0,2.63H63.1V18.37h2.42Z"/><path class="cls-3" d="M81.27,5H78.85V2.62h2.42Zm0,2.62H78.85V5.25h2.42Zm0,2.63H78.85V7.87h2.42Zm0,2.62H78.85V10.5h2.42Zm0,2.63H78.85V13.12h2.42Zm0,2.62H78.85V15.75h2.42Zm0,2.63H78.85V18.37h2.42Zm2.62,0H81.48V18.37h2.41Zm2.63,0H84.1V18.37h2.42Zm2.62,0H86.73V18.37h2.41Zm2.63,0H89.35V18.37h2.42Z"/><path class="cls-3" d="M97,2.41H94.6V0H97Zm0,7.88H94.6V7.87H97Zm0,2.62H94.6V10.5H97Zm0,2.63H94.6V13.12H97Zm0,2.62H94.6V15.75H97Zm0,2.63H94.6V18.37H97Z"/><path class="cls-3" d="M104.89,10.29h-2.41V7.87h2.41Zm0,2.62h-2.41V10.5h2.41Zm0,2.63h-2.41V13.12h2.41Zm0,2.62h-2.41V15.75h2.41Zm0,2.63h-2.41V18.37h2.41Zm2.63-10.5H105.1V7.87h2.42Zm2.62,0h-2.41V7.87h2.41Zm2.63,0h-2.42V7.87h2.42Zm2.62,2.62H113V10.5h2.41Zm0,2.63H113V13.12h2.41Zm0,2.62H113V15.75h2.41Zm0,2.63H113V18.37h2.41Z"/><path class="cls-3" d="M123.27,12.91h-2.42V10.5h2.42Zm0,2.63h-2.42V13.12h2.42Zm0,2.62h-2.42V15.75h2.42Zm2.62-7.87h-2.41V7.87h2.41Zm0,5.25h-2.41V13.12h2.41Zm0,5.25h-2.41V18.37h2.41Zm2.63-10.5H126.1V7.87h2.42Zm0,5.25H126.1V13.12h2.42Zm0,5.25H126.1V18.37h2.42Zm2.62-10.5h-2.41V7.87h2.41Zm0,5.25h-2.41V13.12h2.41Zm0,5.25h-2.41V18.37h2.41Zm2.63-7.88h-2.42V10.5h2.42Zm0,2.63h-2.42V13.12h2.42Zm0,5.25h-2.42V18.37h2.42Z"/><path class="cls-3" d="M141.64,12.91h-2.41V10.5h2.41Zm0,7.88h-2.41V18.37h2.41Zm2.63-10.5h-2.42V7.87h2.42Zm0,5.25h-2.42V13.12h2.42Zm0,5.25h-2.42V18.37h2.42Zm2.62-10.5h-2.41V7.87h2.41Zm0,5.25h-2.41V13.12h2.41Zm0,5.25h-2.41V18.37h2.41Zm2.63-10.5H147.1V7.87h2.42Zm0,7.87H147.1V15.75h2.42Z"/><path class="cls-3" d="M165.27,15.54h-2.42V13.12h2.42Zm2.62,0h-2.41V13.12h2.41Zm2.63,0H168.1V13.12h2.42Zm2.62,0h-2.41V13.12h2.41Z"/><path class="cls-3" d="M188.89,5h-2.41V2.62h2.41Zm0,2.62h-2.41V5.25h2.41Zm0,2.63h-2.41V7.87h2.41Zm0,2.62h-2.41V10.5h2.41Zm0,2.63h-2.41V13.12h2.41Zm0,2.62h-2.41V15.75h2.41Zm0,2.63h-2.41V18.37h2.41ZM191.52,5H189.1V2.62h2.42Zm0,7.87H189.1V10.5h2.42Zm0,7.88H189.1V18.37h2.42ZM194.14,5h-2.41V2.62h2.41Zm0,7.87h-2.41V10.5h2.41Zm0,7.88h-2.41V18.37h2.41ZM196.77,5h-2.42V2.62h2.42Zm0,7.87h-2.42V10.5h2.42Zm0,7.88h-2.42V18.37h2.42Zm2.62-13.13H197V5.25h2.41Zm0,2.63H197V7.87h2.41Zm0,5.25H197V13.12h2.41Zm0,2.62H197V15.75h2.41Z"/><path class="cls-3" d="M207.27,10.29h-2.42V7.87h2.42Zm0,2.62h-2.42V10.5h2.42Zm0,2.63h-2.42V13.12h2.42Zm0,2.62h-2.42V15.75h2.42Zm2.62,2.63h-2.41V18.37h2.41Zm2.63,0H210.1V18.37h2.42Zm2.62,0h-2.41V18.37h2.41Zm2.63-10.5h-2.42V7.87h2.42Zm0,2.62h-2.42V10.5h2.42Zm0,2.63h-2.42V13.12h2.42Zm0,2.62h-2.42V15.75h2.42Zm0,2.63h-2.42V18.37h2.42Z"/><path class="cls-3" d="M225.64,12.91h-2.41V10.5h2.41Zm0,7.88h-2.41V18.37h2.41Zm2.63-10.5h-2.42V7.87h2.42Zm0,5.25h-2.42V13.12h2.42Zm0,5.25h-2.42V18.37h2.42Zm2.62-10.5h-2.41V7.87h2.41Zm0,5.25h-2.41V13.12h2.41Zm0,5.25h-2.41V18.37h2.41Zm2.63-10.5H231.1V7.87h2.42Zm0,7.87H231.1V15.75h2.42Z"/><path class="cls-3" d="M241.39,12.91H239V10.5h2.41Zm0,7.88H239V18.37h2.41ZM244,10.29H241.6V7.87H244Zm0,5.25H241.6V13.12H244Zm0,5.25H241.6V18.37H244Zm2.62-10.5h-2.41V7.87h2.41Zm0,5.25h-2.41V13.12h2.41Zm0,5.25h-2.41V18.37h2.41Zm2.63-10.5h-2.42V7.87h2.42Zm0,7.87h-2.42V15.75h2.42Z"/><path class="cls-3" d="M257.14,12.91h-2.41V10.5h2.41Zm0,2.63h-2.41V13.12h2.41Zm0,2.62h-2.41V15.75h2.41Zm2.63-7.87h-2.42V7.87h2.42Zm0,5.25h-2.42V13.12h2.42Zm0,5.25h-2.42V18.37h2.42Zm2.62-10.5H260V7.87h2.41Zm0,5.25H260V13.12h2.41Zm0,5.25H260V18.37h2.41ZM265,10.29H262.6V7.87H265Zm0,5.25H262.6V13.12H265Zm0,5.25H262.6V18.37H265Zm2.62-7.88h-2.41V10.5h2.41Zm0,2.63h-2.41V13.12h2.41Zm0,5.25h-2.41V18.37h2.41Z"/><path class="cls-3" d="M275.52,12.91H273.1V10.5h2.42Zm0,7.88H273.1V18.37h2.42Zm2.62-10.5h-2.41V7.87h2.41Zm0,5.25h-2.41V13.12h2.41Zm0,5.25h-2.41V18.37h2.41Zm2.63-10.5h-2.42V7.87h2.42Zm0,5.25h-2.42V13.12h2.42Zm0,5.25h-2.42V18.37h2.42Zm2.62-10.5H281V7.87h2.41Zm0,7.87H281V15.75h2.41Z"/></g></g><g id="Path_1" data-name="Path 1"><path class="cls-3" d="M0,33.22H292.34"/><rect class="cls-3" y="32.72" width="292.34" height="1"/></g><g id="_-_All_GPIO_pins_-_Both_SPI_UART_interfaces_-_Both_I2C_and_I2S_interfaces_-_Both_DAC_pins" data-name=" - All GPIO pins - Both SPI UART interfaces - Both I2C and I2S interfaces - Both DAC pins" class="cls-1"><g class="cls-1"><path class="cls-3" d="M2.7,55.67H1.43V54.4H2.7Zm1.37,0H2.81V54.4H4.07Zm1.38,0H4.18V54.4H5.45Zm1.37,0H5.56V54.4H6.82Z"/><path class="cls-3" d="M15.07,51.54H13.81V50.28h1.26Zm0,1.38H13.81V51.65h1.26Zm0,1.37H13.81V53h1.26Zm0,1.38H13.81V54.4h1.26Zm0,1.37H13.81V55.78h1.26Zm0,1.38H13.81V57.15h1.26Zm1.38-8.25H15.18V48.9h1.27Zm0,5.5H15.18V54.4h1.27Zm1.37-5.5H16.56V48.9h1.26Zm0,5.5H16.56V54.4h1.26Zm1.38-5.5H17.93V48.9H19.2Zm0,5.5H17.93V54.4H19.2Zm1.37-4.13H19.31V50.28h1.26Zm0,1.38H19.31V51.65h1.26Zm0,1.37H19.31V53h1.26Zm0,1.38H19.31V54.4h1.26Zm0,1.37H19.31V55.78h1.26Zm0,1.38H19.31V57.15h1.26Z"/><path class="cls-3" d="M24.7,48.79H23.43V47.53H24.7Zm0,1.38H23.43V48.9H24.7Zm0,1.37H23.43V50.28H24.7Zm0,1.38H23.43V51.65H24.7Zm0,1.37H23.43V53H24.7Zm0,1.38H23.43V54.4H24.7Zm0,1.37H23.43V55.78H24.7Zm1.37,1.38H24.81V57.15h1.26Zm1.38,0H26.18V57.15h1.27Z"/><path class="cls-3" d="M30.2,48.79H28.93V47.53H30.2Zm0,1.38H28.93V48.9H30.2Zm0,1.37H28.93V50.28H30.2Zm0,1.38H28.93V51.65H30.2Zm0,1.37H28.93V53H30.2Zm0,1.38H28.93V54.4H30.2Zm0,1.37H28.93V55.78H30.2Zm1.37,1.38H30.31V57.15h1.26Zm1.38,0H31.68V57.15H33Z"/><path class="cls-3" d="M39.82,51.54H38.56V50.28h1.26Zm0,1.38H38.56V51.65h1.26Zm0,1.37H38.56V53h1.26Zm0,1.38H38.56V54.4h1.26Zm0,1.37H38.56V55.78h1.26Zm1.38-6.87H39.93V48.9H41.2Zm0,8.25H39.93V57.15H41.2Zm1.37-8.25H41.31V48.9h1.26Zm0,8.25H41.31V57.15h1.26ZM44,50.17H42.68V48.9H44Zm0,5.5H42.68V54.4H44Zm0,2.75H42.68V57.15H44Zm1.37-8.25H44.06V48.9h1.26Zm0,5.5H44.06V54.4h1.26Zm0,1.37H44.06V55.78h1.26Z"/><path class="cls-3" d="M49.45,50.17H48.18V48.9h1.27Zm0,1.37H48.18V50.28h1.27Zm0,1.38H48.18V51.65h1.27Zm0,1.37H48.18V53h1.27Zm0,1.38H48.18V54.4h1.27Zm0,1.37H48.18V55.78h1.27Zm0,1.38H48.18V57.15h1.27Zm1.37-8.25H49.56V48.9h1.26Zm0,4.12H49.56V53h1.26Zm1.38-4.12H50.93V48.9H52.2Zm0,4.12H50.93V53H52.2Zm1.37-4.12H52.31V48.9h1.26Zm0,4.12H52.31V53h1.26ZM55,51.54H53.68V50.28H55Zm0,1.38H53.68V51.65H55Z"/><path class="cls-3" d="M59.07,50.17H57.81V48.9h1.26Zm0,8.25H57.81V57.15h1.26Zm1.38-8.25H59.18V48.9h1.27Zm0,1.37H59.18V50.28h1.27Zm0,1.38H59.18V51.65h1.27Zm0,1.37H59.18V53h1.27Zm0,1.38H59.18V54.4h1.27Zm0,1.37H59.18V55.78h1.27Zm0,1.38H59.18V57.15h1.27Zm1.37-8.25H60.56V48.9h1.26Zm0,8.25H60.56V57.15h1.26Z"/><path class="cls-3" d="M66,51.54H64.68V50.28H66Zm0,1.38H64.68V51.65H66Zm0,1.37H64.68V53H66Zm0,1.38H64.68V54.4H66ZM66,57H64.68V55.78H66Zm1.37-6.87H66.06V48.9h1.26Zm0,8.25H66.06V57.15h1.26Zm1.38-8.25H67.43V48.9H68.7Zm0,8.25H67.43V57.15H68.7Zm1.37-8.25H68.81V48.9h1.26Zm0,8.25H68.81V57.15h1.26Zm1.38-6.88H70.18V50.28h1.27Zm0,1.38H70.18V51.65h1.27Zm0,1.37H70.18V53h1.27Zm0,1.38H70.18V54.4h1.27Zm0,1.37H70.18V55.78h1.27Z"/><path class="cls-3" d="M79.7,52.92H78.43V51.65H79.7Zm0,1.37H78.43V53H79.7Zm0,1.38H78.43V54.4H79.7Zm0,1.37H78.43V55.78H79.7Zm0,1.38H78.43V57.15H79.7Zm0,1.37H78.43V58.53H79.7Zm0,1.38H78.43V59.91H79.7Zm1.37-8.25H79.81V51.65h1.26Zm0,5.5H79.81V57.15h1.26Zm1.38-5.5H81.18V51.65h1.27Zm0,5.5H81.18V57.15h1.27Zm1.37-5.5H82.56V51.65h1.26Zm0,5.5H82.56V57.15h1.26Zm1.38-4.13H83.93V53H85.2Zm0,1.38H83.93V54.4H85.2Zm0,1.37H83.93V55.78H85.2Z"/><path class="cls-3" d="M89.32,48.79H88.06V47.53h1.26Zm0,4.13H88.06V51.65h1.26Zm0,1.37H88.06V53h1.26Zm0,1.38H88.06V54.4h1.26Zm0,1.37H88.06V55.78h1.26Zm0,1.38H88.06V57.15h1.26Z"/><path class="cls-3" d="M93.45,52.92H92.18V51.65h1.27Zm0,1.37H92.18V53h1.27Zm0,1.38H92.18V54.4h1.27Zm0,1.37H92.18V55.78h1.27Zm0,1.38H92.18V57.15h1.27Zm1.37-5.5H93.56V51.65h1.26Zm1.38,0H94.93V51.65H96.2Zm1.37,0H96.31V51.65h1.26ZM99,54.29H97.68V53H99Zm0,1.38H97.68V54.4H99ZM99,57H97.68V55.78H99Zm0,1.38H97.68V57.15H99Z"/><path class="cls-3" d="M103.07,54.29h-1.26V53h1.26Zm0,4.13h-1.26V57.15h1.26Zm1.38-5.5h-1.27V51.65h1.27Zm0,2.75h-1.27V54.4h1.27Zm0,2.75h-1.27V57.15h1.27Zm1.37-5.5h-1.26V51.65h1.26Zm0,2.75h-1.26V54.4h1.26Zm0,2.75h-1.26V57.15h1.26Zm1.38-5.5h-1.27V51.65h1.27Zm0,4.12h-1.27V55.78h1.27Z"/></g><g class="cls-1"><path class="cls-3" d="M2.7,70.67H1.43V69.4H2.7Zm1.37,0H2.81V69.4H4.07Zm1.38,0H4.18V69.4H5.45Zm1.37,0H5.56V69.4H6.82Z"/><path class="cls-3" d="M15.07,65.17H13.81V63.9h1.26Zm0,1.37H13.81V65.28h1.26Zm0,1.38H13.81V66.65h1.26Zm0,1.37H13.81V68h1.26Zm0,1.38H13.81V69.4h1.26Zm0,1.37H13.81V70.78h1.26Zm0,1.38H13.81V72.15h1.26Zm1.38-8.25H15.18V63.9h1.27Zm0,4.12H15.18V68h1.27Zm0,4.13H15.18V72.15h1.27Zm1.37-8.25H16.56V63.9h1.26Zm0,4.12H16.56V68h1.26Zm0,4.13H16.56V72.15h1.26Zm1.38-8.25H17.93V63.9H19.2Zm0,4.12H17.93V68H19.2Zm0,4.13H17.93V72.15H19.2Zm1.37-6.88H19.31V65.28h1.26Zm0,1.38H19.31V66.65h1.26Zm0,2.75H19.31V69.4h1.26Zm0,1.37H19.31V70.78h1.26Z"/><path class="cls-3" d="M24.7,69.29H23.43V68H24.7Zm0,1.38H23.43V69.4H24.7Zm0,1.37H23.43V70.78H24.7Zm1.37-4.12H24.81V66.65h1.26Zm0,5.5H24.81V72.15h1.26Zm1.38-5.5H26.18V66.65h1.27Zm0,5.5H26.18V72.15h1.27Zm1.37-5.5H27.56V66.65h1.26Zm0,5.5H27.56V72.15h1.26Zm1.38-4.13H28.93V68H30.2Zm0,1.38H28.93V69.4H30.2Zm0,1.37H28.93V70.78H30.2Z"/><path class="cls-3" d="M34.32,65.17H33.06V63.9h1.26Zm0,1.37H33.06V65.28h1.26Zm0,1.38H33.06V66.65h1.26Zm0,1.37H33.06V68h1.26Zm0,1.38H33.06V69.4h1.26Zm0,1.37H33.06V70.78h1.26Zm1.38-4.12H34.43V66.65H35.7Zm0,5.5H34.43V72.15H35.7Zm1.37-5.5H35.81V66.65h1.26Zm0,5.5H35.81V72.15h1.26Zm1.38-5.5H37.18V66.65h1.27Zm0,5.5H37.18V72.15h1.27Z"/><path class="cls-3" d="M42.57,63.79H41.31V62.53h1.26Zm0,1.38H41.31V63.9h1.26Zm0,1.37H41.31V65.28h1.26Zm0,1.38H41.31V66.65h1.26Zm0,1.37H41.31V68h1.26Zm0,1.38H41.31V69.4h1.26Zm0,1.37H41.31V70.78h1.26Zm0,1.38H41.31V72.15h1.26ZM44,67.92H42.68V66.65H44Zm1.37,0H44.06V66.65h1.26Zm1.38,0H45.43V66.65H46.7Zm1.37,1.37H46.81V68h1.26Zm0,1.38H46.81V69.4h1.26Zm0,1.37H46.81V70.78h1.26Zm0,1.38H46.81V72.15h1.26Z"/><path class="cls-3" d="M56.32,66.54H55.06V65.28h1.26Zm0,1.38H55.06V66.65h1.26Zm0,5.5H55.06V72.15h1.26Zm1.38-8.25H56.43V63.9H57.7Zm0,4.12H56.43V68H57.7Zm0,4.13H56.43V72.15H57.7Zm1.37-8.25H57.81V63.9h1.26Zm0,4.12H57.81V68h1.26Zm0,4.13H57.81V72.15h1.26Zm1.38-8.25H59.18V63.9h1.27Zm0,4.12H59.18V68h1.27Zm0,4.13H59.18V72.15h1.27Zm1.37-8.25H60.56V63.9h1.26Zm0,5.5H60.56V69.4h1.26Zm0,1.37H60.56V70.78h1.26Z"/><path class="cls-3" d="M66,65.17H64.68V63.9H66Zm0,1.37H64.68V65.28H66Zm0,1.38H64.68V66.65H66Zm0,1.37H64.68V68H66Zm0,1.38H64.68V69.4H66ZM66,72H64.68V70.78H66Zm0,1.38H64.68V72.15H66Zm1.37-8.25H66.06V63.9h1.26Zm0,4.12H66.06V68h1.26Zm1.38-4.12H67.43V63.9H68.7Zm0,4.12H67.43V68H68.7Zm1.37-4.12H68.81V63.9h1.26Zm0,4.12H68.81V68h1.26Zm1.38-2.75H70.18V65.28h1.27Zm0,1.38H70.18V66.65h1.27Z"/><path class="cls-3" d="M75.57,65.17H74.31V63.9h1.26Zm0,8.25H74.31V72.15h1.26ZM77,65.17H75.68V63.9H77Zm0,1.37H75.68V65.28H77Zm0,1.38H75.68V66.65H77Zm0,1.37H75.68V68H77Zm0,1.38H75.68V69.4H77ZM77,72H75.68V70.78H77Zm0,1.38H75.68V72.15H77Zm1.37-8.25H77.06V63.9h1.26Zm0,8.25H77.06V72.15h1.26Z"/><path class="cls-3" d="M86.57,66.54H85.31V65.28h1.26Zm0,1.38H85.31V66.65h1.26Zm0,2.75H85.31V69.4h1.26Zm0,1.37H85.31V70.78h1.26ZM88,65.17H86.68V63.9H88Zm0,4.12H86.68V68H88Zm0,4.13H86.68V72.15H88Zm1.37-8.25H88.06V63.9h1.26Zm0,4.12H88.06V68h1.26Zm0,4.13H88.06V72.15h1.26Zm1.38-8.25H89.43V63.9H90.7Zm0,8.25H89.43V72.15H90.7Zm1.37-4.13H90.81V68h1.26Zm0,1.38H90.81V69.4h1.26Zm0,1.37H90.81V70.78h1.26Zm1.38-2.75H92.18V68h1.27Zm1.37,0H93.56V68h1.26Z"/><path class="cls-3" d="M101.7,65.17h-1.27V63.9h1.27Zm0,1.37h-1.27V65.28h1.27Zm0,1.38h-1.27V66.65h1.27Zm0,1.37h-1.27V68h1.27Zm0,1.38h-1.27V69.4h1.27Zm0,1.37h-1.27V70.78h1.27Zm1.37,1.38h-1.26V72.15h1.26Zm1.38,0h-1.27V72.15h1.27Zm1.37,0h-1.26V72.15h1.26Zm1.38-8.25h-1.27V63.9h1.27Zm0,1.37h-1.27V65.28h1.27Zm0,1.38h-1.27V66.65h1.27Zm0,1.37h-1.27V68h1.27Zm0,1.38h-1.27V69.4h1.27Zm0,1.37h-1.27V70.78h1.27Z"/><path class="cls-3" d="M111.32,66.54h-1.26V65.28h1.26Zm0,1.38h-1.26V66.65h1.26Zm0,1.37h-1.26V68h1.26Zm0,1.38h-1.26V69.4h1.26Zm0,1.37h-1.26V70.78h1.26Zm0,1.38h-1.26V72.15h1.26Zm1.38-8.25h-1.27V63.9h1.27Zm0,5.5h-1.27V69.4h1.27Zm1.37-5.5h-1.26V63.9h1.26Zm0,5.5h-1.26V69.4h1.26Zm1.38-5.5h-1.27V63.9h1.27Zm0,5.5h-1.27V69.4h1.27Zm1.37-4.13h-1.26V65.28h1.26Zm0,1.38h-1.26V66.65h1.26Zm0,1.37h-1.26V68h1.26Zm0,1.38h-1.26V69.4h1.26Zm0,1.37h-1.26V70.78h1.26Zm0,1.38h-1.26V72.15h1.26Z"/><path class="cls-3" d="M121,65.17h-1.27V63.9H121Zm0,1.37h-1.27V65.28H121Zm0,1.38h-1.27V66.65H121Zm0,1.37h-1.27V68H121Zm0,1.38h-1.27V69.4H121ZM121,72h-1.27V70.78H121Zm0,1.38h-1.27V72.15H121Zm1.37-8.25h-1.26V63.9h1.26Zm0,4.12h-1.26V68h1.26Zm1.38-4.12h-1.27V63.9h1.27Zm0,4.12h-1.27V68h1.27Zm0,1.38h-1.27V69.4h1.27Zm1.37-5.5h-1.26V63.9h1.26Zm0,4.12h-1.26V68h1.26Zm0,2.75h-1.26V70.78h1.26Zm1.38-5.5h-1.27V65.28h1.27Zm0,1.38h-1.27V66.65h1.27Zm0,5.5h-1.27V72.15h1.27Z"/><path class="cls-3" d="M129.2,65.17h-1.27V63.9h1.27Zm1.37,0h-1.26V63.9h1.26Zm1.38,0h-1.27V63.9H132Zm0,1.37h-1.27V65.28H132Zm0,1.38h-1.27V66.65H132Zm0,1.37h-1.27V68H132Zm0,1.38h-1.27V69.4H132ZM132,72h-1.27V70.78H132Zm0,1.38h-1.27V72.15H132Zm1.37-8.25h-1.26V63.9h1.26Zm1.38,0h-1.27V63.9h1.27Z"/><path class="cls-3" d="M141.57,63.79h-1.26V62.53h1.26Zm0,4.13h-1.26V66.65h1.26Zm0,1.37h-1.26V68h1.26Zm0,1.38h-1.26V69.4h1.26Zm0,1.37h-1.26V70.78h1.26Zm0,1.38h-1.26V72.15h1.26Z"/><path class="cls-3" d="M145.7,67.92h-1.27V66.65h1.27Zm0,1.37h-1.27V68h1.27Zm0,1.38h-1.27V69.4h1.27Zm0,1.37h-1.27V70.78h1.27Zm0,1.38h-1.27V72.15h1.27Zm1.37-5.5h-1.26V66.65h1.26Zm1.38,0h-1.27V66.65h1.27Zm1.37,0h-1.26V66.65h1.26Zm1.38,1.37h-1.27V68h1.27Zm0,1.38h-1.27V69.4h1.27Zm0,1.37h-1.27V70.78h1.27Zm0,1.38h-1.27V72.15h1.27Z"/><path class="cls-3" d="M155.32,65.17h-1.26V63.9h1.26Zm0,1.37h-1.26V65.28h1.26Zm0,1.38h-1.26V66.65h1.26Zm0,1.37h-1.26V68h1.26Zm0,1.38h-1.26V69.4h1.26Zm0,1.37h-1.26V70.78h1.26Zm1.38-4.12h-1.27V66.65h1.27Zm0,5.5h-1.27V72.15h1.27Zm1.37-5.5h-1.26V66.65h1.26Zm0,5.5h-1.26V72.15h1.26Zm1.38-5.5h-1.27V66.65h1.27Zm0,5.5h-1.27V72.15h1.27Z"/><path class="cls-3" d="M163.57,69.29h-1.26V68h1.26Zm0,1.38h-1.26V69.4h1.26Zm0,1.37h-1.26V70.78h1.26ZM165,67.92h-1.27V66.65H165Zm0,2.75h-1.27V69.4H165Zm0,2.75h-1.27V72.15H165Zm1.37-5.5h-1.26V66.65h1.26Zm0,2.75h-1.26V69.4h1.26Zm0,2.75h-1.26V72.15h1.26Zm1.38-5.5h-1.27V66.65h1.27Zm0,2.75h-1.27V69.4h1.27Zm0,2.75h-1.27V72.15h1.27Zm1.37-4.13h-1.26V68h1.26Zm0,1.38h-1.26V69.4h1.26Zm0,2.75h-1.26V72.15h1.26Z"/><path class="cls-3" d="M173.19,67.92h-1.26V66.65h1.26Zm0,1.37h-1.26V68h1.26Zm0,1.38h-1.26V69.4h1.26Zm0,1.37h-1.26V70.78h1.26Zm0,1.38h-1.26V72.15h1.26Zm1.38-4.13h-1.26V68h1.26ZM176,67.92h-1.27V66.65H176Zm1.37,0h-1.26V66.65h1.26Z"/><path class="cls-3" d="M178.69,67.92h-1.26V66.65h1.26Zm1.38,0h-1.26V66.65h1.26Zm1.38-2.75h-1.27V63.9h1.27Zm0,1.37h-1.27V65.28h1.27Zm0,1.38h-1.27V66.65h1.27Zm0,1.37h-1.27V68h1.27Zm0,1.38h-1.27V69.4h1.27Zm0,1.37h-1.27V70.78h1.27Zm0,1.38h-1.27V72.15h1.27Zm1.37-9.63h-1.26V62.53h1.26Zm0,4.13h-1.26V66.65h1.26Zm1.38-4.13h-1.27V62.53h1.27Zm0,4.13h-1.27V66.65h1.27Zm1.37-4.13h-1.26V62.53h1.26Z"/><path class="cls-3" d="M186.94,72h-1.26V70.78h1.26Zm1.38-4.12h-1.26V66.65h1.26Zm0,2.75h-1.26V69.4h1.26Zm0,2.75h-1.26V72.15h1.26Zm1.38-5.5h-1.27V66.65h1.27Zm0,2.75h-1.27V69.4h1.27Zm0,2.75h-1.27V72.15h1.27Zm1.37-5.5h-1.26V66.65h1.26Zm0,2.75h-1.26V69.4h1.26Zm0,2.75h-1.26V72.15h1.26Zm1.38-4.13h-1.27V68h1.27Zm0,1.38h-1.27V69.4h1.27Zm0,1.37h-1.27V70.78h1.27Zm0,1.38h-1.27V72.15h1.27Z"/><path class="cls-3" d="M196.57,69.29h-1.26V68h1.26Zm0,1.38h-1.26V69.4h1.26Zm0,1.37h-1.26V70.78h1.26ZM198,67.92h-1.27V66.65H198Zm0,5.5h-1.27V72.15H198Zm1.37-5.5h-1.26V66.65h1.26Zm0,5.5h-1.26V72.15h1.26Zm1.38-5.5h-1.27V66.65h1.27Zm0,5.5h-1.27V72.15h1.27Zm1.37-5.5h-1.26V66.65h1.26Zm0,5.5h-1.26V72.15h1.26Z"/><path class="cls-3" d="M206.19,69.29h-1.26V68h1.26Zm0,1.38h-1.26V69.4h1.26Zm0,1.37h-1.26V70.78h1.26Zm1.38-4.12h-1.26V66.65h1.26Zm0,2.75h-1.26V69.4h1.26Zm0,2.75h-1.26V72.15h1.26Zm1.38-5.5h-1.27V66.65H209Zm0,2.75h-1.27V69.4H209Zm0,2.75h-1.27V72.15H209Zm1.37-5.5h-1.26V66.65h1.26Zm0,2.75h-1.26V69.4h1.26Zm0,2.75h-1.26V72.15h1.26Zm1.38-4.13h-1.27V68h1.27Zm0,1.38h-1.27V69.4h1.27Zm0,2.75h-1.27V72.15h1.27Z"/><path class="cls-3" d="M215.82,69.29h-1.26V68h1.26Zm0,4.13h-1.26V72.15h1.26Zm1.38-5.5h-1.27V66.65h1.27Zm0,2.75h-1.27V69.4h1.27Zm0,2.75h-1.27V72.15h1.27Zm1.37-5.5h-1.26V66.65h1.26Zm0,2.75h-1.26V69.4h1.26Zm0,2.75h-1.26V72.15h1.26Zm1.38-5.5h-1.27V66.65H220ZM220,72h-1.27V70.78H220Z"/></g><g class="cls-1"><path class="cls-3" d="M2.7,85.67H1.43V84.4H2.7Zm1.37,0H2.81V84.4H4.07Zm1.38,0H4.18V84.4H5.45Zm1.37,0H5.56V84.4H6.82Z"/><path class="cls-3" d="M15.07,80.17H13.81V78.9h1.26Zm0,1.37H13.81V80.28h1.26Zm0,1.38H13.81V81.65h1.26Zm0,1.37H13.81V83h1.26Zm0,1.38H13.81V84.4h1.26Zm0,1.37H13.81V85.78h1.26Zm0,1.38H13.81V87.15h1.26Zm1.38-8.25H15.18V78.9h1.27Zm0,4.12H15.18V83h1.27Zm0,4.13H15.18V87.15h1.27Zm1.37-8.25H16.56V78.9h1.26Zm0,4.12H16.56V83h1.26Zm0,4.13H16.56V87.15h1.26Zm1.38-8.25H17.93V78.9H19.2Zm0,4.12H17.93V83H19.2Zm0,4.13H17.93V87.15H19.2Zm1.37-6.88H19.31V80.28h1.26Zm0,1.38H19.31V81.65h1.26Zm0,2.75H19.31V84.4h1.26Zm0,1.37H19.31V85.78h1.26Z"/><path class="cls-3" d="M24.7,84.29H23.43V83H24.7Zm0,1.38H23.43V84.4H24.7Zm0,1.37H23.43V85.78H24.7Zm1.37-4.12H24.81V81.65h1.26Zm0,5.5H24.81V87.15h1.26Zm1.38-5.5H26.18V81.65h1.27Zm0,5.5H26.18V87.15h1.27Zm1.37-5.5H27.56V81.65h1.26Zm0,5.5H27.56V87.15h1.26Zm1.38-4.13H28.93V83H30.2Zm0,1.38H28.93V84.4H30.2Zm0,1.37H28.93V85.78H30.2Z"/><path class="cls-3" d="M34.32,80.17H33.06V78.9h1.26Zm0,1.37H33.06V80.28h1.26Zm0,1.38H33.06V81.65h1.26Zm0,1.37H33.06V83h1.26Zm0,1.38H33.06V84.4h1.26Zm0,1.37H33.06V85.78h1.26Zm1.38-4.12H34.43V81.65H35.7Zm0,5.5H34.43V87.15H35.7Zm1.37-5.5H35.81V81.65h1.26Zm0,5.5H35.81V87.15h1.26Zm1.38-5.5H37.18V81.65h1.27Zm0,5.5H37.18V87.15h1.27Z"/><path class="cls-3" d="M42.57,78.79H41.31V77.53h1.26Zm0,1.38H41.31V78.9h1.26Zm0,1.37H41.31V80.28h1.26Zm0,1.38H41.31V81.65h1.26Zm0,1.37H41.31V83h1.26Zm0,1.38H41.31V84.4h1.26Zm0,1.37H41.31V85.78h1.26Zm0,1.38H41.31V87.15h1.26ZM44,82.92H42.68V81.65H44Zm1.37,0H44.06V81.65h1.26Zm1.38,0H45.43V81.65H46.7Zm1.37,1.37H46.81V83h1.26Zm0,1.38H46.81V84.4h1.26Zm0,1.37H46.81V85.78h1.26Zm0,1.38H46.81V87.15h1.26Z"/><path class="cls-3" d="M56.32,80.17H55.06V78.9h1.26Zm0,8.25H55.06V87.15h1.26Zm1.38-8.25H56.43V78.9H57.7Zm0,1.37H56.43V80.28H57.7Zm0,1.38H56.43V81.65H57.7Zm0,1.37H56.43V83H57.7Zm0,1.38H56.43V84.4H57.7Zm0,1.37H56.43V85.78H57.7Zm0,1.38H56.43V87.15H57.7Zm1.37-8.25H57.81V78.9h1.26Zm0,8.25H57.81V87.15h1.26Z"/><path class="cls-3" d="M63.2,80.17H61.93V78.9H63.2Zm0,6.87H61.93V85.78H63.2Zm0,1.38H61.93V87.15H63.2Zm1.37-8.25H63.31V78.9h1.26Zm0,5.5H63.31V84.4h1.26Zm0,2.75H63.31V87.15h1.26ZM66,80.17H64.68V78.9H66Zm0,4.12H64.68V83H66Zm0,4.13H64.68V87.15H66Zm1.37-8.25H66.06V78.9h1.26Zm0,4.12H66.06V83h1.26Zm0,4.13H66.06V87.15h1.26Zm1.38-6.88H67.43V80.28H68.7Zm0,1.38H67.43V81.65H68.7Zm0,5.5H67.43V87.15H68.7Z"/><path class="cls-3" d="M72.82,81.54H71.56V80.28h1.26Zm0,1.38H71.56V81.65h1.26Zm0,1.37H71.56V83h1.26Zm0,1.38H71.56V84.4h1.26Zm0,1.37H71.56V85.78h1.26Zm1.38-6.87H72.93V78.9H74.2Zm0,8.25H72.93V87.15H74.2Zm1.37-8.25H74.31V78.9h1.26Zm0,8.25H74.31V87.15h1.26ZM77,80.17H75.68V78.9H77Zm0,8.25H75.68V87.15H77Zm1.37-8.25H77.06V78.9h1.26Zm0,1.37H77.06V80.28h1.26Zm0,6.88H77.06V87.15h1.26Z"/><path class="cls-3" d="M86.57,87H85.31V85.78h1.26ZM88,82.92H86.68V81.65H88Zm0,2.75H86.68V84.4H88Zm0,2.75H86.68V87.15H88Zm1.37-5.5H88.06V81.65h1.26Zm0,2.75H88.06V84.4h1.26Zm0,2.75H88.06V87.15h1.26Zm1.38-5.5H89.43V81.65H90.7Zm0,2.75H89.43V84.4H90.7Zm0,2.75H89.43V87.15H90.7Zm1.37-4.13H90.81V83h1.26Zm0,1.38H90.81V84.4h1.26Zm0,1.37H90.81V85.78h1.26Zm0,1.38H90.81V87.15h1.26Z"/><path class="cls-3" d="M96.2,82.92H94.93V81.65H96.2Zm0,1.37H94.93V83H96.2Zm0,1.38H94.93V84.4H96.2Zm0,1.37H94.93V85.78H96.2Zm0,1.38H94.93V87.15H96.2Zm1.37-5.5H96.31V81.65h1.26Zm1.38,0H97.68V81.65H99Zm1.37,0H99.06V81.65h1.26Zm1.38,1.37h-1.27V83h1.27Zm0,1.38h-1.27V84.4h1.27Zm0,1.37h-1.27V85.78h1.27Zm0,1.38h-1.27V87.15h1.27Z"/><path class="cls-3" d="M105.82,84.29h-1.26V83h1.26Zm0,1.38h-1.26V84.4h1.26Zm0,1.37h-1.26V85.78h1.26Zm1.38-4.12h-1.27V81.65h1.27Zm0,5.5h-1.27V87.15h1.27Zm1.37-5.5h-1.26V81.65h1.26Zm0,5.5h-1.26V87.15h1.26Zm1.38-5.5h-1.27V81.65H110Zm0,5.5h-1.27V87.15H110Zm1.37-9.63h-1.26V77.53h1.26Zm0,1.38h-1.26V78.9h1.26Zm0,1.37h-1.26V80.28h1.26Zm0,1.38h-1.26V81.65h1.26Zm0,1.37h-1.26V83h1.26Zm0,1.38h-1.26V84.4h1.26Zm0,1.37h-1.26V85.78h1.26Zm0,1.38h-1.26V87.15h1.26Z"/><path class="cls-3" d="M119.57,80.17h-1.26V78.9h1.26Zm0,8.25h-1.26V87.15h1.26ZM121,80.17h-1.27V78.9H121Zm0,1.37h-1.27V80.28H121Zm0,1.38h-1.27V81.65H121Zm0,1.37h-1.27V83H121Zm0,1.38h-1.27V84.4H121ZM121,87h-1.27V85.78H121Zm0,1.38h-1.27V87.15H121Zm1.37-8.25h-1.26V78.9h1.26Zm0,8.25h-1.26V87.15h1.26Z"/><path class="cls-3" d="M126.45,80.17h-1.27V78.9h1.27Zm0,6.87h-1.27V85.78h1.27Zm0,1.38h-1.27V87.15h1.27Zm1.37-8.25h-1.26V78.9h1.26Zm0,5.5h-1.26V84.4h1.26Zm0,2.75h-1.26V87.15h1.26Zm1.38-8.25h-1.27V78.9h1.27Zm0,4.12h-1.27V83h1.27Zm0,4.13h-1.27V87.15h1.27Zm1.37-8.25h-1.26V78.9h1.26Zm0,4.12h-1.26V83h1.26Zm0,4.13h-1.26V87.15h1.26ZM132,81.54h-1.27V80.28H132Zm0,1.38h-1.27V81.65H132Zm0,5.5h-1.27V87.15H132Z"/><path class="cls-3" d="M136.07,81.54h-1.26V80.28h1.26Zm0,1.38h-1.26V81.65h1.26Zm0,5.5h-1.26V87.15h1.26Zm1.38-8.25h-1.27V78.9h1.27Zm0,4.12h-1.27V83h1.27Zm0,4.13h-1.27V87.15h1.27Zm1.37-8.25h-1.26V78.9h1.26Zm0,4.12h-1.26V83h1.26Zm0,4.13h-1.26V87.15h1.26Zm1.38-8.25h-1.27V78.9h1.27Zm0,4.12h-1.27V83h1.27Zm0,4.13h-1.27V87.15h1.27Zm1.37-8.25h-1.26V78.9h1.26Zm0,5.5h-1.26V84.4h1.26Zm0,1.37h-1.26V85.78h1.26Z"/><path class="cls-3" d="M149.82,78.79h-1.26V77.53h1.26Zm0,4.13h-1.26V81.65h1.26Zm0,1.37h-1.26V83h1.26Zm0,1.38h-1.26V84.4h1.26Zm0,1.37h-1.26V85.78h1.26Zm0,1.38h-1.26V87.15h1.26Z"/><path class="cls-3" d="M153.94,82.92h-1.26V81.65h1.26Zm0,1.37h-1.26V83h1.26Zm0,1.38h-1.26V84.4h1.26Zm0,1.37h-1.26V85.78h1.26Zm0,1.38h-1.26V87.15h1.26Zm1.38-5.5h-1.26V81.65h1.26Zm1.38,0h-1.27V81.65h1.27Zm1.37,0h-1.26V81.65h1.26Zm1.38,1.37h-1.27V83h1.27Zm0,1.38h-1.27V84.4h1.27Zm0,1.37h-1.27V85.78h1.27Zm0,1.38h-1.27V87.15h1.27Z"/><path class="cls-3" d="M163.57,80.17h-1.26V78.9h1.26Zm0,1.37h-1.26V80.28h1.26Zm0,1.38h-1.26V81.65h1.26Zm0,1.37h-1.26V83h1.26Zm0,1.38h-1.26V84.4h1.26Zm0,1.37h-1.26V85.78h1.26ZM165,82.92h-1.27V81.65H165Zm0,5.5h-1.27V87.15H165Zm1.37-5.5h-1.26V81.65h1.26Zm0,5.5h-1.26V87.15h1.26Zm1.38-5.5h-1.27V81.65h1.27Zm0,5.5h-1.27V87.15h1.27Z"/><path class="cls-3" d="M171.82,84.29h-1.26V83h1.26Zm0,1.38h-1.26V84.4h1.26Zm0,1.37h-1.26V85.78h1.26Zm1.38-4.12h-1.27V81.65h1.27Zm0,2.75h-1.27V84.4h1.27Zm0,2.75h-1.27V87.15h1.27Zm1.37-5.5h-1.26V81.65h1.26Zm0,2.75h-1.26V84.4h1.26Zm0,2.75h-1.26V87.15h1.26Zm1.38-5.5h-1.27V81.65H176Zm0,2.75h-1.27V84.4H176Zm0,2.75h-1.27V87.15H176Zm1.37-4.13h-1.26V83h1.26Zm0,1.38h-1.26V84.4h1.26Zm0,2.75h-1.26V87.15h1.26Z"/><path class="cls-3" d="M181.44,82.92h-1.26V81.65h1.26Zm0,1.37h-1.26V83h1.26Zm0,1.38h-1.26V84.4h1.26Zm0,1.37h-1.26V85.78h1.26Zm0,1.38h-1.26V87.15h1.26Zm1.38-4.13h-1.26V83h1.26Zm1.38-1.37h-1.27V81.65h1.27Zm1.37,0h-1.26V81.65h1.26Z"/><path class="cls-3" d="M186.94,82.92h-1.26V81.65h1.26Zm1.38,0h-1.26V81.65h1.26Zm1.38-2.75h-1.27V78.9h1.27Zm0,1.37h-1.27V80.28h1.27Zm0,1.38h-1.27V81.65h1.27Zm0,1.37h-1.27V83h1.27Zm0,1.38h-1.27V84.4h1.27Zm0,1.37h-1.27V85.78h1.27Zm0,1.38h-1.27V87.15h1.27Zm1.37-9.63h-1.26V77.53h1.26Zm0,4.13h-1.26V81.65h1.26Zm1.38-4.13h-1.27V77.53h1.27Zm0,4.13h-1.27V81.65h1.27Zm1.37-4.13h-1.26V77.53h1.26Z"/><path class="cls-3" d="M195.19,87h-1.26V85.78h1.26Zm1.38-4.12h-1.26V81.65h1.26Zm0,2.75h-1.26V84.4h1.26Zm0,2.75h-1.26V87.15h1.26Zm1.38-5.5h-1.27V81.65H198Zm0,2.75h-1.27V84.4H198Zm0,2.75h-1.27V87.15H198Zm1.37-5.5h-1.26V81.65h1.26Zm0,2.75h-1.26V84.4h1.26Zm0,2.75h-1.26V87.15h1.26Zm1.38-4.13h-1.27V83h1.27Zm0,1.38h-1.27V84.4h1.27Zm0,1.37h-1.27V85.78h1.27Zm0,1.38h-1.27V87.15h1.27Z"/><path class="cls-3" d="M204.82,84.29h-1.26V83h1.26Zm0,1.38h-1.26V84.4h1.26Zm0,1.37h-1.26V85.78h1.26Zm1.38-4.12h-1.27V81.65h1.27Zm0,5.5h-1.27V87.15h1.27Zm1.37-5.5h-1.26V81.65h1.26Zm0,5.5h-1.26V87.15h1.26Zm1.38-5.5h-1.27V81.65H209Zm0,5.5h-1.27V87.15H209Zm1.37-5.5h-1.26V81.65h1.26Zm0,5.5h-1.26V87.15h1.26Z"/><path class="cls-3" d="M214.44,84.29h-1.26V83h1.26Zm0,1.38h-1.26V84.4h1.26Zm0,1.37h-1.26V85.78h1.26Zm1.38-4.12h-1.26V81.65h1.26Zm0,2.75h-1.26V84.4h1.26Zm0,2.75h-1.26V87.15h1.26Zm1.38-5.5h-1.27V81.65h1.27Zm0,2.75h-1.27V84.4h1.27Zm0,2.75h-1.27V87.15h1.27Zm1.37-5.5h-1.26V81.65h1.26Zm0,2.75h-1.26V84.4h1.26Zm0,2.75h-1.26V87.15h1.26ZM220,84.29h-1.27V83H220Zm0,1.38h-1.27V84.4H220Zm0,2.75h-1.27V87.15H220Z"/><path class="cls-3" d="M224.07,84.29h-1.26V83h1.26Zm0,4.13h-1.26V87.15h1.26Zm1.38-5.5h-1.27V81.65h1.27Zm0,2.75h-1.27V84.4h1.27Zm0,2.75h-1.27V87.15h1.27Zm1.37-5.5h-1.26V81.65h1.26Zm0,2.75h-1.26V84.4h1.26Zm0,2.75h-1.26V87.15h1.26Zm1.38-5.5h-1.27V81.65h1.27Zm0,4.12h-1.27V85.78h1.27Z"/></g><g class="cls-1"><path class="cls-3" d="M2.7,100.67H1.43V99.4H2.7Zm1.37,0H2.81V99.4H4.07Zm1.38,0H4.18V99.4H5.45Zm1.37,0H5.56V99.4H6.82Z"/><path class="cls-3" d="M15.07,95.17H13.81V93.9h1.26Zm0,1.37H13.81V95.28h1.26Zm0,1.38H13.81V96.65h1.26Zm0,1.37H13.81V98h1.26Zm0,1.38H13.81V99.4h1.26Zm0,1.37H13.81v-1.26h1.26Zm0,1.38H13.81v-1.27h1.26Zm1.38-8.25H15.18V93.9h1.27Zm0,4.12H15.18V98h1.27Zm0,4.13H15.18v-1.27h1.27Zm1.37-8.25H16.56V93.9h1.26Zm0,4.12H16.56V98h1.26Zm0,4.13H16.56v-1.27h1.26Zm1.38-8.25H17.93V93.9H19.2Zm0,4.12H17.93V98H19.2Zm0,4.13H17.93v-1.27H19.2Zm1.37-6.88H19.31V95.28h1.26Zm0,1.38H19.31V96.65h1.26Zm0,2.75H19.31V99.4h1.26Zm0,1.37H19.31v-1.26h1.26Z"/><path class="cls-3" d="M24.7,99.29H23.43V98H24.7Zm0,1.38H23.43V99.4H24.7Zm0,1.37H23.43v-1.26H24.7Zm1.37-4.12H24.81V96.65h1.26Zm0,5.5H24.81v-1.27h1.26Zm1.38-5.5H26.18V96.65h1.27Zm0,5.5H26.18v-1.27h1.27Zm1.37-5.5H27.56V96.65h1.26Zm0,5.5H27.56v-1.27h1.26Zm1.38-4.13H28.93V98H30.2Zm0,1.38H28.93V99.4H30.2Zm0,1.37H28.93v-1.26H30.2Z"/><path class="cls-3" d="M34.32,95.17H33.06V93.9h1.26Zm0,1.37H33.06V95.28h1.26Zm0,1.38H33.06V96.65h1.26Zm0,1.37H33.06V98h1.26Zm0,1.38H33.06V99.4h1.26Zm0,1.37H33.06v-1.26h1.26Zm1.38-4.12H34.43V96.65H35.7Zm0,5.5H34.43v-1.27H35.7Zm1.37-5.5H35.81V96.65h1.26Zm0,5.5H35.81v-1.27h1.26Zm1.38-5.5H37.18V96.65h1.27Zm0,5.5H37.18v-1.27h1.27Z"/><path class="cls-3" d="M42.57,93.79H41.31V92.53h1.26Zm0,1.38H41.31V93.9h1.26Zm0,1.37H41.31V95.28h1.26Zm0,1.38H41.31V96.65h1.26Zm0,1.37H41.31V98h1.26Zm0,1.38H41.31V99.4h1.26Zm0,1.37H41.31v-1.26h1.26Zm0,1.38H41.31v-1.27h1.26ZM44,97.92H42.68V96.65H44Zm1.37,0H44.06V96.65h1.26Zm1.38,0H45.43V96.65H46.7Zm1.37,1.37H46.81V98h1.26Zm0,1.38H46.81V99.4h1.26Zm0,1.37H46.81v-1.26h1.26Zm0,1.38H46.81v-1.27h1.26Z"/><path class="cls-3" d="M56.32,95.17H55.06V93.9h1.26Zm0,1.37H55.06V95.28h1.26Zm0,1.38H55.06V96.65h1.26Zm0,1.37H55.06V98h1.26Zm0,1.38H55.06V99.4h1.26Zm0,1.37H55.06v-1.26h1.26Zm0,1.38H55.06v-1.27h1.26Zm1.38-8.25H56.43V93.9H57.7Zm0,8.25H56.43v-1.27H57.7Zm1.37-8.25H57.81V93.9h1.26Zm0,8.25H57.81v-1.27h1.26Zm1.38-6.88H59.18V95.28h1.27Zm0,5.5H59.18v-1.26h1.27Zm1.37-4.12H60.56V96.65h1.26Zm0,1.37H60.56V98h1.26Zm0,1.38H60.56V99.4h1.26Z"/><path class="cls-3" d="M66,96.54H64.68V95.28H66Zm0,1.38H64.68V96.65H66Zm0,1.37H64.68V98H66Zm0,1.38H64.68V99.4H66ZM66,102H64.68v-1.26H66Zm0,1.38H64.68v-1.27H66Zm1.37-8.25H66.06V93.9h1.26Zm0,5.5H66.06V99.4h1.26Zm1.38-5.5H67.43V93.9H68.7Zm0,5.5H67.43V99.4H68.7Zm1.37-5.5H68.81V93.9h1.26Zm0,5.5H68.81V99.4h1.26Zm1.38-4.13H70.18V95.28h1.27Zm0,1.38H70.18V96.65h1.27Zm0,1.37H70.18V98h1.27Zm0,1.38H70.18V99.4h1.27Zm0,1.37H70.18v-1.26h1.27Zm0,1.38H70.18v-1.27h1.27Z"/><path class="cls-3" d="M75.57,96.54H74.31V95.28h1.26Zm0,1.38H74.31V96.65h1.26Zm0,1.37H74.31V98h1.26Zm0,1.38H74.31V99.4h1.26Zm0,1.37H74.31v-1.26h1.26ZM77,95.17H75.68V93.9H77Zm0,8.25H75.68v-1.27H77Zm1.37-8.25H77.06V93.9h1.26Zm0,8.25H77.06v-1.27h1.26Zm1.38-8.25H78.43V93.9H79.7Zm0,8.25H78.43v-1.27H79.7Zm1.37-8.25H79.81V93.9h1.26Zm0,1.37H79.81V95.28h1.26Zm0,6.88H79.81v-1.27h1.26Z"/><path class="cls-3" d="M89.32,97.92H88.06V96.65h1.26Zm0,1.37H88.06V98h1.26Zm0,1.38H88.06V99.4h1.26Zm0,1.37H88.06v-1.26h1.26Zm0,1.38H88.06v-1.27h1.26Zm0,1.37H88.06v-1.26h1.26Zm0,1.38H88.06v-1.26h1.26Zm1.38-8.25H89.43V96.65H90.7Zm0,5.5H89.43v-1.27H90.7Zm1.37-5.5H90.81V96.65h1.26Zm0,5.5H90.81v-1.27h1.26Zm1.38-5.5H92.18V96.65h1.27Zm0,5.5H92.18v-1.27h1.27Zm1.37-4.13H93.56V98h1.26Zm0,1.38H93.56V99.4h1.26Zm0,1.37H93.56v-1.26h1.26Z"/><path class="cls-3" d="M99,93.79H97.68V92.53H99Zm0,4.13H97.68V96.65H99Zm0,1.37H97.68V98H99Zm0,1.38H97.68V99.4H99ZM99,102H97.68v-1.26H99Zm0,1.38H97.68v-1.27H99Z"/><path class="cls-3" d="M103.07,97.92h-1.26V96.65h1.26Zm0,1.37h-1.26V98h1.26Zm0,1.38h-1.26V99.4h1.26Zm0,1.37h-1.26v-1.26h1.26Zm0,1.38h-1.26v-1.27h1.26Zm1.38-5.5h-1.27V96.65h1.27Zm1.37,0h-1.26V96.65h1.26Zm1.38,0h-1.27V96.65h1.27Zm1.37,1.37h-1.26V98h1.26Zm0,1.38h-1.26V99.4h1.26Zm0,1.37h-1.26v-1.26h1.26Zm0,1.38h-1.26v-1.27h1.26Z"/><path class="cls-3" d="M112.7,99.29h-1.27V98h1.27Zm0,4.13h-1.27v-1.27h1.27Zm1.37-5.5h-1.26V96.65h1.26Zm0,2.75h-1.26V99.4h1.26Zm0,2.75h-1.26v-1.27h1.26Zm1.38-5.5h-1.27V96.65h1.27Zm0,2.75h-1.27V99.4h1.27Zm0,2.75h-1.27v-1.27h1.27Zm1.37-5.5h-1.26V96.65h1.26Zm0,4.12h-1.26v-1.26h1.26Z"/></g></g></g></g><g id="ESP_Graph" data-name="ESP Graph"><g id="ESP"><g id="Rectangle_72" data-name="Rectangle 72"><rect class="cls-4" x="46.68" y="163.2" width="194.52" height="295.11" rx="15.6"/></g><g id="Rectangle_73" data-name="Rectangle 73"><rect class="cls-5" x="108.94" y="275.76" width="69.99" height="69.99" transform="translate(-177.58 192.8) rotate(-45)"/></g><g id="Group_2" data-name="Group 2"><g id="Rectangle_74" data-name="Rectangle 74"><rect class="cls-5" x="74.76" y="178.06" width="138.36" height="17.3" rx="3.22"/></g><g id="Group_1" data-name="Group 1"><g id="Rectangle_75" data-name="Rectangle 75"><rect class="cls-6" x="79.03" y="180.58" width="3.52" height="3.52"/></g><g id="Rectangle_76" data-name="Rectangle 76"><rect class="cls-6" x="79.03" y="189.12" width="3.52" height="3.52"/></g><g id="Rectangle_77" data-name="Rectangle 77"><rect class="cls-6" x="87.22" y="180.58" width="3.52" height="3.52"/></g><g id="Rectangle_78" data-name="Rectangle 78"><rect class="cls-6" x="87.22" y="189.12" width="3.52" height="3.52"/></g><g id="Rectangle_79" data-name="Rectangle 79"><rect class="cls-6" x="96.06" y="180.58" width="3.52" height="3.52"/></g><g id="Rectangle_80" data-name="Rectangle 80"><rect class="cls-6" x="96.06" y="189.12" width="3.52" height="3.52"/></g><g id="Rectangle_81" data-name="Rectangle 81"><rect class="cls-6" x="104.24" y="180.58" width="3.52" height="3.52"/></g><g id="Rectangle_82" data-name="Rectangle 82"><rect class="cls-6" x="104.24" y="189.12" width="3.52" height="3.52"/></g><g id="Rectangle_83" data-name="Rectangle 83"><rect class="cls-6" x="112.96" y="180.58" width="3.52" height="3.52"/></g><g id="Rectangle_84" data-name="Rectangle 84"><rect class="cls-6" x="112.96" y="189.12" width="3.52" height="3.52"/></g><g id="Rectangle_85" data-name="Rectangle 85"><rect class="cls-6" x="121.14" y="180.58" width="3.52" height="3.52"/></g><g id="Rectangle_86" data-name="Rectangle 86"><rect class="cls-6" x="121.14" y="189.12" width="3.52" height="3.52"/></g><g id="Rectangle_87" data-name="Rectangle 87"><rect class="cls-6" x="129.98" y="180.58" width="3.52" height="3.52"/></g><g id="Rectangle_88" data-name="Rectangle 88"><rect class="cls-6" x="129.98" y="189.12" width="3.52" height="3.52"/></g><g id="Rectangle_89" data-name="Rectangle 89"><rect class="cls-6" x="138.16" y="180.58" width="3.52" height="3.52"/></g><g id="Rectangle_90" data-name="Rectangle 90"><rect class="cls-6" x="138.16" y="189.12" width="3.52" height="3.52"/></g><g id="Rectangle_91" data-name="Rectangle 91"><rect class="cls-6" x="146.17" y="180.58" width="3.52" height="3.52"/></g><g id="Rectangle_92" data-name="Rectangle 92"><rect class="cls-6" x="146.17" y="189.12" width="3.52" height="3.52"/></g><g id="Rectangle_93" data-name="Rectangle 93"><rect class="cls-6" x="154.35" y="180.58" width="3.52" height="3.52"/></g><g id="Rectangle_94" data-name="Rectangle 94"><rect class="cls-6" x="154.35" y="189.12" width="3.52" height="3.52"/></g><g id="Rectangle_95" data-name="Rectangle 95"><rect class="cls-6" x="163.19" y="180.58" width="3.52" height="3.52"/></g><g id="Rectangle_96" data-name="Rectangle 96"><rect class="cls-6" x="163.19" y="189.12" width="3.52" height="3.52"/></g><g id="Rectangle_97" data-name="Rectangle 97"><rect class="cls-6" x="171.37" y="180.58" width="3.52" height="3.52"/></g><g id="Rectangle_98" data-name="Rectangle 98"><rect class="cls-6" x="171.37" y="189.12" width="3.52" height="3.52"/></g><g id="Rectangle_99" data-name="Rectangle 99"><rect class="cls-6" x="179.74" y="180.58" width="3.52" height="3.52"/></g><g id="Rectangle_100" data-name="Rectangle 100"><rect class="cls-6" x="179.74" y="189.12" width="3.52" height="3.52"/></g><g id="Rectangle_101" data-name="Rectangle 101"><rect class="cls-6" x="187.92" y="180.58" width="3.52" height="3.52"/></g><g id="Rectangle_102" data-name="Rectangle 102"><rect class="cls-6" x="187.92" y="189.12" width="3.52" height="3.52"/></g><g id="Rectangle_103" data-name="Rectangle 103"><rect class="cls-6" x="196.76" y="180.58" width="3.52" height="3.52"/></g><g id="Rectangle_104" data-name="Rectangle 104"><rect class="cls-6" x="196.76" y="189.12" width="3.52" height="3.52"/></g><g id="Rectangle_105" data-name="Rectangle 105"><rect class="cls-6" x="204.94" y="180.58" width="3.52" height="3.52"/></g><g id="Rectangle_106" data-name="Rectangle 106"><rect class="cls-6" x="204.94" y="189.12" width="3.52" height="3.52"/></g></g></g><g id="Group_4" data-name="Group 4"><g id="Rectangle_107" data-name="Rectangle 107"><rect class="cls-5" x="74.76" y="419.55" width="138.36" height="17.3" rx="3.22"/></g><g id="Group_3" data-name="Group 3"><g id="Rectangle_108" data-name="Rectangle 108"><rect class="cls-6" x="79.03" y="422.06" width="3.52" height="3.52"/></g><g id="Rectangle_109" data-name="Rectangle 109"><rect class="cls-6" x="79.03" y="430.61" width="3.52" height="3.52"/></g><g id="Rectangle_110" data-name="Rectangle 110"><rect class="cls-6" x="87.22" y="422.06" width="3.52" height="3.52"/></g><g id="Rectangle_111" data-name="Rectangle 111"><rect class="cls-6" x="87.22" y="430.61" width="3.52" height="3.52"/></g><g id="Rectangle_112" data-name="Rectangle 112"><rect class="cls-6" x="96.06" y="422.06" width="3.52" height="3.52"/></g><g id="Rectangle_113" data-name="Rectangle 113"><rect class="cls-6" x="96.06" y="430.61" width="3.52" height="3.52"/></g><g id="Rectangle_114" data-name="Rectangle 114"><rect class="cls-6" x="104.24" y="422.06" width="3.52" height="3.52"/></g><g id="Rectangle_115" data-name="Rectangle 115"><rect class="cls-6" x="104.24" y="430.61" width="3.52" height="3.52"/></g><g id="Rectangle_116" data-name="Rectangle 116"><rect class="cls-6" x="112.96" y="422.06" width="3.52" height="3.52"/></g><g id="Rectangle_117" data-name="Rectangle 117"><rect class="cls-6" x="112.96" y="430.61" width="3.52" height="3.52"/></g><g id="Rectangle_118" data-name="Rectangle 118"><rect class="cls-6" x="121.14" y="422.06" width="3.52" height="3.52"/></g><g id="Rectangle_119" data-name="Rectangle 119"><rect class="cls-6" x="121.14" y="430.61" width="3.52" height="3.52"/></g><g id="Rectangle_120" data-name="Rectangle 120"><rect class="cls-6" x="129.98" y="422.06" width="3.52" height="3.52"/></g><g id="Rectangle_121" data-name="Rectangle 121"><rect class="cls-6" x="129.98" y="430.61" width="3.52" height="3.52"/></g><g id="Rectangle_122" data-name="Rectangle 122"><rect class="cls-6" x="138.16" y="422.06" width="3.52" height="3.52"/></g><g id="Rectangle_123" data-name="Rectangle 123"><rect class="cls-6" x="138.16" y="430.61" width="3.52" height="3.52"/></g><g id="Rectangle_124" data-name="Rectangle 124"><rect class="cls-6" x="146.17" y="422.06" width="3.52" height="3.52"/></g><g id="Rectangle_125" data-name="Rectangle 125"><rect class="cls-6" x="146.17" y="430.61" width="3.52" height="3.52"/></g><g id="Rectangle_126" data-name="Rectangle 126"><rect class="cls-6" x="154.35" y="422.06" width="3.52" height="3.52"/></g><g id="Rectangle_127" data-name="Rectangle 127"><rect class="cls-6" x="154.35" y="430.61" width="3.52" height="3.52"/></g><g id="Rectangle_128" data-name="Rectangle 128"><rect class="cls-6" x="163.19" y="422.06" width="3.52" height="3.52"/></g><g id="Rectangle_129" data-name="Rectangle 129"><rect class="cls-6" x="163.19" y="430.61" width="3.52" height="3.52"/></g><g id="Rectangle_130" data-name="Rectangle 130"><rect class="cls-6" x="171.37" y="422.06" width="3.52" height="3.52"/></g><g id="Rectangle_131" data-name="Rectangle 131"><rect class="cls-6" x="171.37" y="430.61" width="3.52" height="3.52"/></g><g id="Rectangle_132" data-name="Rectangle 132"><rect class="cls-6" x="179.74" y="422.06" width="3.52" height="3.52"/></g><g id="Rectangle_133" data-name="Rectangle 133"><rect class="cls-6" x="179.74" y="430.61" width="3.52" height="3.52"/></g><g id="Rectangle_134" data-name="Rectangle 134"><rect class="cls-6" x="187.92" y="422.06" width="3.52" height="3.52"/></g><g id="Rectangle_135" data-name="Rectangle 135"><rect class="cls-6" x="187.92" y="430.61" width="3.52" height="3.52"/></g><g id="Rectangle_136" data-name="Rectangle 136"><rect class="cls-6" x="196.76" y="422.06" width="3.52" height="3.52"/></g><g id="Rectangle_137" data-name="Rectangle 137"><rect class="cls-6" x="196.76" y="430.61" width="3.52" height="3.52"/></g><g id="Rectangle_138" data-name="Rectangle 138"><rect class="cls-6" x="204.94" y="422.06" width="3.52" height="3.52"/></g><g id="Rectangle_139" data-name="Rectangle 139"><rect class="cls-6" x="204.94" y="430.61" width="3.52" height="3.52"/></g></g></g><g id="ESP32" class="cls-1"><g class="cls-1"><path class="cls-7" d="M104.1,307.35,102.5,309l.86.86,1.52-1.52,1.14,1.15L104.5,311l.9.9,1.6-1.6,1.14,1.14-3,3L100,309.16l2.94-3Z"/><path class="cls-7" d="M107.78,308.65a2.58,2.58,0,0,0,1.72-.67,1,1,0,0,0,.35-.7.66.66,0,0,0-.2-.45.57.57,0,0,0-.46-.17,2.64,2.64,0,0,0-.94.4l-.46.24a2.4,2.4,0,0,1-1.16.33,1.87,1.87,0,0,1-1.22-.63,2.37,2.37,0,0,1-.78-1.72,2.58,2.58,0,0,1,.84-1.82,5.22,5.22,0,0,1,2-1.19l.51,1.59a2,2,0,0,0-1.24.54.87.87,0,0,0-.28.6.57.57,0,0,0,.14.41.49.49,0,0,0,.31.16,1.19,1.19,0,0,0,.68-.21l.54-.29a2.78,2.78,0,0,1,1.45-.43,1.7,1.7,0,0,1,1.26.59,2.48,2.48,0,0,1,.82,1.8,2.85,2.85,0,0,1-1,2.06,3.91,3.91,0,0,1-1.19.85,5.74,5.74,0,0,1-1.2.37Z"/><path class="cls-7" d="M113.07,303l1.72,1.72-1.35,1.34-5.19-5.19,2.15-2.14a2.5,2.5,0,0,1,1.78-.85,2.24,2.24,0,0,1,1.74.78,2.24,2.24,0,0,1,0,3.49ZM112,302l.45-.45a1.21,1.21,0,0,0,.4-.73.84.84,0,0,0-.3-.65.88.88,0,0,0-.62-.31,1.15,1.15,0,0,0-.77.39l-.45.46Z"/><path class="cls-7" d="M117.37,298.62a1.16,1.16,0,0,0,.74.31,1,1,0,0,0,.73-.33,1,1,0,0,0,.3-.75.84.84,0,0,0-.27-.58.82.82,0,0,0-.66-.26,1.19,1.19,0,0,0-.65.35.91.91,0,0,0-.19.26l-.91-.91a1,1,0,0,0,.42-.69.72.72,0,0,0-.2-.54.79.79,0,0,0-.51-.23.78.78,0,0,0-.52.24.77.77,0,0,0-.24.51.91.91,0,0,0,.28.64l-1.26,1.25a2.63,2.63,0,0,1-.68-1.7,2.6,2.6,0,0,1,.86-1.87,2.51,2.51,0,0,1,1.75-.83,2,2,0,0,1,1.43.58,1.78,1.78,0,0,1,.48.79,1.29,1.29,0,0,1,0,.8,1.72,1.72,0,0,1,1.09-.14,1.85,1.85,0,0,1,1,.54,2.22,2.22,0,0,1,.68,1.59,3.38,3.38,0,0,1-3,3.06,3,3,0,0,1-2-.71Z"/><path class="cls-7" d="M126.58,293l-4.16,4.16-.06-2.69a11.66,11.66,0,0,0-.25-2.38,2,2,0,0,0-.53-1.09,1,1,0,0,0-.65-.34.72.72,0,0,0-.54.22.79.79,0,0,0-.24.66,1.86,1.86,0,0,0,.45.83l-1.39,1.39a2.92,2.92,0,0,1-.86-2,3.15,3.15,0,0,1,2.91-2.95,2.45,2.45,0,0,1,1.78.77,2.86,2.86,0,0,1,.77,2.31l-.06,1.68,1.69-1.7Z"/></g></g></g><g id="Rectangle_156" data-name="Rectangle 156"><path class="cls-2" d="M210.37,442.05h-12a1,1,0,0,1,0-2h12a1,1,0,1,1,0,2Zm-24,0h-12a1,1,0,0,1,0-2h12a1,1,0,1,1,0,2Zm-24,0h-12a1,1,0,0,1,0-2h12a1,1,0,1,1,0,2Zm-24,0h-12a1,1,0,0,1,0-2h12a1,1,0,1,1,0,2Zm-24,0h-12a1,1,0,0,1,0-2h12a1,1,0,1,1,0,2Zm-24,0h-12a1,1,0,0,1,0-2h12a1,1,0,1,1,0,2Zm-20.18-6.44a1,1,0,0,1-1-1v-12a1,1,0,0,1,2,0v12A1,1,0,0,1,70.19,435.61Zm147-1.33a1,1,0,0,1-1-1V421.69c0-.12,0-.23,0-.35a1,1,0,0,1,.93-1.06,1,1,0,0,1,1.07.93c0,.16,0,.32,0,.48v11.59A1,1,0,0,1,217.22,434.28Zm-8.91-17.72h-12a1,1,0,0,1,0-2h12a1,1,0,0,1,0,2Zm-24,0h-12a1,1,0,0,1,0-2h12a1,1,0,0,1,0,2Zm-24,0h-12a1,1,0,0,1,0-2h12a1,1,0,0,1,0,2Zm-24,0h-12a1,1,0,0,1,0-2h12a1,1,0,0,1,0,2Zm-24,0h-12a1,1,0,0,1,0-2h12a1,1,0,0,1,0,2Zm-24,0h-12a1,1,0,0,1,0-2h12a1,1,0,0,1,0,2Z"/></g><g id="Rectangle_141" data-name="Rectangle 141"><path class="cls-3" d="M210.37,200.26h-12a1,1,0,0,1,0-2h12a1,1,0,0,1,0,2Zm-24,0h-12a1,1,0,0,1,0-2h12a1,1,0,0,1,0,2Zm-24,0h-12a1,1,0,0,1,0-2h12a1,1,0,0,1,0,2Zm-24,0h-12a1,1,0,0,1,0-2h12a1,1,0,0,1,0,2Zm-24,0h-12a1,1,0,0,1,0-2h12a1,1,0,0,1,0,2Zm-24,0h-12a1,1,0,0,1,0-2h12a1,1,0,0,1,0,2Zm-20.18-6.44a1,1,0,0,1-1-1v-12a1,1,0,0,1,2,0v12A1,1,0,0,1,70.19,193.82Zm147-1.33a1,1,0,0,1-1-1V179.9c0-.12,0-.23,0-.34a1,1,0,1,1,2-.13c0,.15,0,.31,0,.47v11.59A1,1,0,0,1,217.22,192.49Zm-8.91-17.71h-12a1,1,0,0,1,0-2h12a1,1,0,0,1,0,2Zm-24,0h-12a1,1,0,0,1,0-2h12a1,1,0,0,1,0,2Zm-24,0h-12a1,1,0,0,1,0-2h12a1,1,0,0,1,0,2Zm-24,0h-12a1,1,0,0,1,0-2h12a1,1,0,0,1,0,2Zm-24,0h-12a1,1,0,0,1,0-2h12a1,1,0,1,1,0,2Zm-24,0h-12a1,1,0,0,1,0-2h12a1,1,0,1,1,0,2Z"/></g></g></g></g></g></svg>