<svg xmlns="http://www.w3.org/2000/svg" width="156.097" height="195.28" viewBox="0 0 156.097 195.28">
  <defs>
    <style>
      .cls-1 {
        fill: none;
      }

      .cls-2 {
        fill: #595959;
      }

      .cls-3 {
        fill: #212121;
      }

      .cls-4 {
        fill: #3f3f3f;
      }

      .cls-5 {
        fill: #2b2b2b;
      }
    </style>
  </defs>
  <g id="Lora_Node" data-name="Lora Node" transform="translate(-1442.928 -89.239)">
    <g id="Group_15" data-name="Group 15" transform="translate(1442.928 89.239)">
      <g id="Group_14" data-name="Group 14">
        <path id="Path_9" data-name="Path 9" class="cls-1" d="M1533.75,95.532h-81.06a4.184,4.184,0,0,0-3.82,3.461l-1.371,7.535a2.709,2.709,0,0,0,2.56,3.461h81.061a4.18,4.18,0,0,0,3.816-3.461l1.371-7.535A2.707,2.707,0,0,0,1533.75,95.532Z" transform="translate(-1399.816 -82.934)"/>
        <path id="Path_10" data-name="Path 10" class="cls-2" d="M1575.708,89.239H1462.984a6.443,6.443,0,0,0-5.883,5.331l-33.355,183.287c-.537,2.947,1.229,5.333,3.942,5.333h112.724a6.445,6.445,0,0,0,5.883-5.333L1579.65,94.57C1580.185,91.625,1578.421,89.239,1575.708,89.239Z" transform="translate(-1423.649 -89.239)"/>
        <path id="Path_11" data-name="Path 11" class="cls-3" d="M1536.307,98.993l-1.371,7.535a4.18,4.18,0,0,1-3.816,3.461H1450.06a2.709,2.709,0,0,1-2.56-3.461l1.371-7.535a4.184,4.184,0,0,1,3.82-3.461h81.06A2.707,2.707,0,0,1,1536.307,98.993Z" transform="translate(-1399.816 -82.934)"/>
      </g>
      <path id="Path_12" data-name="Path 12" class="cls-4" d="M1520.363,253.935H1430.27l23.668-129.64a5.521,5.521,0,0,1,5.431-4.528h78.87a5.521,5.521,0,0,1,5.431,6.512Z" transform="translate(-1417.016 -58.654)"/>
      <path id="Path_13" data-name="Path 13" class="cls-5" d="M1505.657,224.244h-67.728l17.793-97.456a4.151,4.151,0,0,1,4.084-3.405h59.29a4.15,4.15,0,0,1,4.082,4.9Z" transform="translate(-1409.342 -55.031)"/>
    </g>
  </g>
</svg>
