<svg xmlns="http://www.w3.org/2000/svg" width="156.53" height="194.488" viewBox="0 0 156.53 194.488">
  <defs>
    <style>
      .cls-1 {
        fill: none;
      }

      .cls-2 {
        fill: #595959;
      }

      .cls-3 {
        fill: #212121;
      }

      .cls-4 {
        fill: #151515;
      }

      .cls-5 {
        fill: #383838;
      }

      .cls-6 {
        fill: #191919;
      }
    </style>
  </defs>
  <g id="Power_Node_Advanced" data-name="Power Node Advanced" transform="translate(-1359.14 -600.747)">
    <g id="Group_22" data-name="Group 22" transform="translate(1359.14 600.747)">
      <g id="Group_20" data-name="Group 20">
        <path id="Path_26" data-name="Path 26" class="cls-1" d="M1469.48,607.04H1388.2a4.2,4.2,0,0,0-3.83,3.471l-1.375,7.556a2.716,2.716,0,0,0,2.568,3.471h81.285a4.192,4.192,0,0,0,3.826-3.471l1.375-7.556A2.714,2.714,0,0,0,1469.48,607.04Z" transform="translate(-1335.175 -594.407)"/>
        <path id="Path_27" data-name="Path 27" class="cls-2" d="M1511.62,600.747H1398.584a6.463,6.463,0,0,0-5.9,5.346l-33.448,183.794c-.538,2.955,1.233,5.348,3.953,5.348h113.036a6.461,6.461,0,0,0,5.9-5.348l33.448-183.794C1516.111,603.14,1514.34,600.747,1511.62,600.747Z" transform="translate(-1359.14 -600.747)"/>
        <path id="Path_28" data-name="Path 28" class="cls-3" d="M1472.044,610.511l-1.375,7.556a4.192,4.192,0,0,1-3.826,3.471h-81.285a2.716,2.716,0,0,1-2.568-3.471l1.375-7.556a4.2,4.2,0,0,1,3.83-3.471h81.285A2.714,2.714,0,0,1,1472.044,610.511Z" transform="translate(-1335.175 -594.407)"/>
      </g>
      <g id="Group_21" data-name="Group 21" transform="translate(46.635 35.992)">
        <path id="Path_29" data-name="Path 29" class="cls-4" d="M1397.806,618.677l10.344,13.986-15.435,13.986-10.344-13.986Z" transform="translate(-1382.371 -618.677)"/>
      </g>
      <path id="Path_30" data-name="Path 30" class="cls-5" d="M1442.943,748.281h-70.206a4.939,4.939,0,0,1-4.848-5.882l19.737-101.393a4.937,4.937,0,0,1,4.848-3.995h70.206a4.937,4.937,0,0,1,4.846,5.882l-19.737,101.393A4.937,4.937,0,0,1,1442.943,748.281Z" transform="translate(-1350.418 -564.214)"/>
      <path id="Path_31" data-name="Path 31" class="cls-6" d="M1446.346,649.649h-27.1a1.564,1.564,0,0,1-1.536-1.853l5.472-28.845a1.562,1.562,0,0,1,1.536-1.271h27.1a1.563,1.563,0,0,1,1.536,1.855l-5.47,28.843A1.564,1.564,0,0,1,1446.346,649.649Z" transform="translate(-1300.16 -583.687)"/>
    </g>
  </g>
</svg>
